<svg width="180" height="129" viewBox="0 0 180 129" fill="none" xmlns="http://www.w3.org/2000/svg">
<path d="M21.2413 88.8999C21.2413 88.65 21.3246 88.3168 21.3246 88.0669C21.3246 87.7337 21.3246 87.4838 21.2413 87.234C20.1585 86.9841 18.9924 86.7342 18.9091 86.3177C18.7425 85.9012 19.5754 84.985 20.2418 84.152C19.9919 83.6523 19.6587 83.2358 19.2423 82.8193C18.2427 83.2358 17.1599 83.6523 16.7434 83.4024C16.4102 83.1525 16.4935 81.9031 16.5768 80.9036C16.0771 80.6537 15.494 80.4871 14.9942 80.4038C14.4112 81.32 13.8281 82.3196 13.3283 82.3196C12.9119 82.3196 12.2455 81.2367 11.6624 80.4038C11.0794 80.4871 10.5796 80.737 10.0798 80.9036C10.1631 81.9864 10.2464 83.1525 9.91324 83.4024C9.58006 83.6523 8.41394 83.1525 7.4144 82.8193C6.99793 83.2358 6.66474 83.6523 6.41485 84.152C7.08121 84.985 7.91416 85.9012 7.74757 86.3177C7.58099 86.7342 6.41487 86.9841 5.41533 87.234C5.41533 87.4838 5.33203 87.817 5.33203 88.0669C5.33203 88.4001 5.33204 88.65 5.41533 88.8999C6.49816 89.1497 7.66428 89.3996 7.74757 89.8161C7.91416 90.2326 7.08121 91.1488 6.41485 91.9818C6.66474 92.4815 6.99793 92.898 7.4144 93.3145C8.41394 92.898 9.49677 92.4815 9.91324 92.7314C10.2464 92.9813 10.1631 94.2307 10.0798 95.3136C10.5796 95.5634 11.1627 95.73 11.6624 95.8133C12.2455 94.8971 12.8286 93.8975 13.3283 93.8975C13.7448 93.8975 14.4112 94.9804 14.9942 95.8133C15.5773 95.73 16.0771 95.4801 16.5768 95.3136C16.4935 94.2307 16.4102 93.0646 16.7434 92.7314C17.0766 92.4815 18.2427 92.9813 19.2423 93.3145C19.6587 92.898 19.9919 92.4815 20.2418 91.9818C19.5754 91.1488 18.7425 90.2326 18.9091 89.8161C18.9924 89.3996 20.1585 89.1497 21.2413 88.8999ZM13.245 91.8985C11.0794 91.8985 9.33017 90.1493 9.33017 87.9836C9.33017 85.8179 11.0794 84.0688 13.245 84.0688C15.4107 84.0688 17.1599 85.8179 17.1599 87.9836C17.2432 90.1493 15.494 91.8985 13.245 91.8985Z" fill="#F2F2F2"/>
<path d="M116.945 102.643C107.7 99.4783 106.867 87.234 106.867 87.234H100.703H86.7093H80.5454C80.5454 87.234 79.7958 99.4783 70.4668 102.643C74.7981 105.059 86.2095 105.392 93.706 105.226C101.203 105.392 112.614 105.059 116.945 102.643Z" fill="url(#paint0_linear)"/>
<path d="M120.36 107.391C120.36 104.809 119.028 102.643 117.362 102.643H70.6334C68.9675 102.643 67.6348 104.726 67.6348 107.391H120.36Z" fill="url(#paint1_linear)"/>
<path d="M157.093 85.9012C157.093 87.3173 156.01 88.4001 154.594 88.4001H33.3172C31.9012 88.4001 30.8184 87.3173 30.8184 85.9012V10.6028C30.8184 9.18676 31.9012 8.10393 33.3172 8.10393H154.594C156.01 8.10393 157.093 9.18676 157.093 10.6028V85.9012Z" fill="url(#paint2_linear)"/>
<path d="M93.9566 83.4024C95.2906 83.4024 96.3721 82.3209 96.3721 80.9869C96.3721 79.6528 95.2906 78.5713 93.9566 78.5713C92.6225 78.5713 91.541 79.6528 91.541 80.9869C91.541 82.3209 92.6225 83.4024 93.9566 83.4024Z" fill="#2E3857"/>
<path d="M157.093 72.5741C157.093 73.9901 156.01 75.0729 154.594 75.0729H33.3172C31.9012 75.0729 30.8184 73.9901 30.8184 72.5741V10.6028C30.8184 9.18676 31.9012 8.10393 33.3172 8.10393H154.594C156.01 8.10393 157.093 9.18676 157.093 10.6028V72.5741Z" fill="#2E3857"/>
<path d="M154.094 68.9924C154.094 70.3251 153.011 71.3247 151.762 71.3247H36.1486C34.8159 71.3247 33.8164 70.2418 33.8164 68.9924V13.8513C33.8164 12.5186 34.8992 11.519 36.1486 11.519H151.679C153.011 11.519 154.011 12.6018 154.011 13.8513V68.9924H154.094Z" fill="#2F80ED"/>
<path d="M154.094 13.8513C154.094 12.5186 153.011 11.519 151.762 11.519H36.1486C34.8159 11.519 33.8164 12.6018 33.8164 13.8513V18.5991H154.094V13.8513Z" fill="#D3D3D3"/>
<path d="M33.8164 66.0771V68.9924C33.8164 70.3251 34.8992 71.3247 36.1486 71.3247H151.679C153.011 71.3247 154.011 70.2418 154.011 68.9924V66.0771H33.8164Z" fill="#D3D3D3"/>
<path d="M124.358 59.9966C114.529 57.581 108.782 47.669 111.281 37.5903L116.362 16.8499C118.944 6.18816 129.772 -1.30837 140.434 0.190932C141.1 0.274227 141.766 0.440816 142.433 0.607406C152.262 3.02295 158.009 12.935 155.51 23.0137L150.429 43.7541C147.847 54.4158 137.019 61.9124 126.357 60.413C125.691 60.2465 125.024 60.1632 124.358 59.9966ZM140.85 6.85451C140.434 6.77122 140.017 6.68793 139.517 6.60463C132.104 5.5218 124.524 10.8527 122.692 18.3492L117.611 39.0896C115.945 45.8365 119.527 52.0836 125.94 53.6662C126.357 53.7495 126.773 53.8328 127.273 53.9161C134.686 54.9989 142.266 49.668 144.099 42.1715L149.18 21.4311C150.846 14.6842 147.264 8.43711 140.85 6.85451Z" fill="#CCCCCC"/>
<path d="M155.51 22.9304C158.009 12.7684 152.262 2.93965 142.433 0.524103C141.933 0.440808 141.517 0.35751 141.017 0.274216C150.013 3.27283 155.094 12.6018 152.762 22.264L147.681 43.0044C145.099 53.6662 134.27 61.1627 123.608 59.6634C123.442 59.6634 123.192 59.5801 123.025 59.5801C123.442 59.7467 123.942 59.83 124.358 59.9966C125.024 60.1632 125.691 60.2464 126.357 60.413C137.019 61.9123 147.764 54.4158 150.429 43.7541L155.51 22.9304Z" fill="#E2E2E2"/>
<path d="M139.434 6.52133C139.017 6.35474 138.601 6.18815 138.101 6.10486C137.685 6.02156 137.268 5.93827 136.768 5.85498C129.355 4.77214 121.775 10.103 119.943 17.5995L114.862 38.3399C113.196 45.0868 116.778 51.3339 123.191 52.9165C123.608 52.9998 124.024 53.0831 124.524 53.1664H124.607C119.027 51.084 116.028 45.2534 117.611 39.0063L122.692 18.2659C124.524 10.8527 132.021 5.60509 139.434 6.52133Z" fill="#E2E2E2"/>
<path d="M161.508 35.1747L121.193 25.1794C120.361 27.1784 119.694 29.2608 119.111 31.4265L115.03 47.8355C113.031 55.9151 113.447 63.8281 115.696 70.0752L114.697 69.9919L114.28 80.4871L128.94 82.9859C140.101 85.1516 152.262 74.24 156.261 58.1641L160.342 41.755C161.008 39.4228 161.342 37.2571 161.508 35.1747Z" fill="url(#paint3_linear)"/>
<path d="M107.116 21.681C106.284 23.6801 105.534 25.8457 105.034 28.0947L100.869 44.8369C96.7046 61.6625 102.785 77.5718 114.363 80.4871C126.024 83.4024 138.768 72.0743 142.933 55.3321L147.098 38.5898C147.681 36.3409 148.014 34.1752 148.264 32.0096L107.116 21.681Z" fill="#FFD112"/>
<path d="M131.854 42.7545C132.854 38.7564 130.522 34.7583 126.69 33.7587C122.858 32.7592 118.86 35.258 117.861 39.2562C117.194 42.0049 118.027 44.7536 119.943 46.5028L115.279 65.3274C114.862 66.8267 115.862 68.4093 117.361 68.7425C118.86 69.159 120.443 68.1595 120.776 66.6601L125.274 48.3353C128.356 48.1687 131.021 46.003 131.854 42.7545Z" fill="#CE8032"/>
<path d="M116.029 65.9105L120.694 47.0859C118.861 45.3367 117.945 42.588 118.611 39.8392C119.611 35.8411 123.526 33.3422 127.441 34.3418C128.107 34.5084 128.69 34.7583 129.19 35.0914C128.44 34.5084 127.524 34.0919 126.608 33.842C122.776 32.8425 118.778 35.3413 117.778 39.3395C117.112 42.0882 117.945 44.8369 119.861 46.5861L115.196 65.4107C114.863 66.7434 115.613 68.1595 116.862 68.6592C116.113 67.9929 115.779 66.91 116.029 65.9105Z" fill="#BA6C25"/>
<path d="M88.043 58.2474L97.2054 68.5759L99.0379 66.9101L97.0388 64.5778L98.8713 62.9952L100.87 65.2442L103.952 62.5787L95.2063 52.6667L88.043 58.2474Z" fill="url(#paint4_linear)"/>
<path d="M90.1231 47.669L38.2305 93.4811L43.6446 99.6449L95.5373 53.8328C97.2032 52.3335 97.3698 49.7513 95.8705 48.0021C94.4544 46.253 91.8723 46.1697 90.1231 47.669Z" fill="url(#paint5_linear)"/>
<path d="M44.1443 86.1512C43.9777 86.2344 43.8944 86.3177 43.7278 86.401C42.9782 87.0674 42.8948 88.2335 43.5612 89.0665L48.5589 94.7305C49.2253 95.4802 50.3914 95.5635 51.2243 94.8971C51.3076 94.8138 51.4742 94.6472 51.5575 94.5639L44.1443 86.1512Z" fill="url(#paint6_linear)"/>
<path d="M21.822 90.7324C17.0742 94.8971 16.6578 102.144 20.8225 106.892L28.9021 116.054C33.0668 120.802 40.3135 121.218 45.0613 117.054C49.8091 112.889 50.2255 105.642 46.0608 100.894L37.9812 91.7319C33.8165 86.9841 26.5698 86.5676 21.822 90.7324ZM42.3958 103.393C44.978 106.308 44.7281 110.806 41.8128 113.389C38.8975 115.971 34.3995 115.721 31.8174 112.805C30.4014 111.223 29.9016 109.224 30.0682 107.225C28.1524 107.225 26.1534 106.392 24.8206 104.809C22.2385 101.894 22.4884 97.3959 25.4037 94.8138C28.319 92.2317 32.8169 92.4815 35.3991 95.3969C36.8151 96.9795 37.3149 98.9785 37.1483 100.978C39.0641 100.978 41.0631 101.811 42.3958 103.393Z" fill="url(#paint7_linear)"/>
<path d="M45.9781 98.5621L39.5645 91.3154L43.3127 87.9836L49.7264 95.2303L45.9781 98.5621Z" fill="url(#paint8_linear)"/>
<path d="M85.8763 62.4954L80.1289 56.4149L80.6287 55.9984L86.2927 62.079L85.8763 62.4954Z" fill="url(#paint9_linear)"/>
<path d="M82.877 65.0776L77.2129 58.9971L77.6294 58.5806L83.3767 64.6611L82.877 65.0776Z" fill="url(#paint10_linear)"/>
<path d="M53.5566 90.9823L47.8926 84.985L48.3091 84.4853L53.9731 90.5658L53.5566 90.9823Z" fill="url(#paint11_linear)"/>
<path d="M52.9753 23.4302C53.0586 22.8471 53.0586 22.264 53.0586 21.681C53.0586 21.0979 53.0586 20.5148 52.9753 19.9318C50.8097 19.3487 48.4774 18.8489 48.1442 18.016C47.8943 17.1831 49.4769 15.2673 50.893 13.6014C50.3099 12.6018 49.6435 11.6856 48.8939 10.8527C46.8115 11.6023 44.5625 12.6018 43.8962 12.1021C43.1465 11.6023 43.3964 9.10346 43.563 6.93779C42.5635 6.43802 41.3973 6.10485 40.3145 5.85497C39.1484 7.68745 37.8157 9.85311 36.8994 9.85311C35.9832 9.85311 34.7337 7.77074 33.4843 5.85497C32.3182 6.10485 31.2354 6.43802 30.2358 6.93779C30.3191 9.10346 30.569 11.6023 29.9027 12.1021C29.153 12.6018 26.904 11.6856 24.905 10.8527C24.1553 11.6856 23.489 12.6018 22.9059 13.6014C24.3219 15.2673 25.9045 17.1831 25.6546 18.016C25.4047 18.8489 22.9892 19.3487 20.8235 19.9318C20.7402 20.5148 20.7402 21.0979 20.7402 21.681C20.7402 22.264 20.7402 22.8471 20.8235 23.4302C22.9892 24.0132 25.4047 24.513 25.6546 25.3459C25.9045 26.1789 24.3219 28.0947 22.9059 29.7606C23.489 30.7601 24.1553 31.6763 24.905 32.5093C26.9873 31.7596 29.2363 30.7601 29.9027 31.2599C30.6523 31.7596 30.4024 34.2585 30.2358 36.4241C31.2354 36.9239 32.3182 37.2571 33.4843 37.507C34.6505 35.6745 35.8999 33.5088 36.8994 33.5088C37.8157 33.5088 39.0651 35.6745 40.3145 37.507C41.4806 37.2571 42.5635 36.9239 43.563 36.4241C43.4797 34.2585 43.2298 31.7596 43.8962 31.2599C44.6458 30.7601 46.8948 31.6763 48.8939 32.5093C49.6435 31.6763 50.3099 30.7601 50.893 29.7606C49.4769 28.0114 47.8943 26.1789 48.1442 25.3459C48.4774 24.513 50.893 24.0132 52.9753 23.4302ZM36.8161 29.6773C32.4015 29.6773 28.8198 26.0956 28.8198 21.681C28.8198 17.2663 32.4015 13.6847 36.8161 13.6847C41.2307 13.6847 44.8124 17.2663 44.8124 21.681C44.8124 26.0956 41.2307 29.6773 36.8161 29.6773Z" fill="#FFD112"/>
<path d="M68.2199 29.6773C68.2199 29.4274 68.3032 29.0942 68.3032 28.8443C68.3032 28.5111 68.3031 28.2613 68.2199 28.0114C67.137 27.7615 65.9709 27.5116 65.8876 27.0951C65.721 26.6787 66.5539 25.7624 67.2203 24.9295C66.9704 24.4297 66.6373 24.0132 66.2208 23.5967C65.2212 24.0132 64.1384 24.4297 63.7219 24.1798C63.3888 23.9299 63.472 22.6805 63.5553 21.681C63.0556 21.4311 62.4725 21.2645 61.9727 21.1812C61.3897 22.0974 60.8066 23.097 60.3069 23.097C59.8904 23.097 59.224 22.0141 58.641 21.1812C58.0579 21.2645 57.5581 21.5144 57.0584 21.681C57.1417 22.7638 57.2249 23.9299 56.8918 24.1798C56.5586 24.4297 55.3925 23.9299 54.3929 23.5967C53.9764 24.0132 53.6433 24.4297 53.3934 24.9295C54.0598 25.7624 54.8927 26.6787 54.7261 27.0951C54.5595 27.5116 53.3934 27.7615 52.3938 28.0114C52.3938 28.2613 52.3105 28.5944 52.3105 28.8443C52.3105 29.1775 52.3106 29.4274 52.3938 29.6773C53.4767 29.9271 54.6428 30.177 54.7261 30.5935C54.8927 31.01 54.0598 31.9262 53.3934 32.7592C53.6433 33.2589 53.9764 33.6754 54.3929 34.0919C55.3925 33.6754 56.4753 33.2589 56.8918 33.5088C57.2249 33.7587 57.1417 35.0081 57.0584 36.091C57.5581 36.3408 58.1412 36.5074 58.641 36.5907C59.224 35.6745 59.8071 34.6749 60.3069 34.6749C60.7233 34.6749 61.3897 35.7578 61.9727 36.5907C62.5558 36.5074 63.0556 36.2575 63.5553 36.091C63.472 35.0081 63.3888 33.842 63.7219 33.5088C64.0551 33.2589 65.2212 33.7587 66.2208 34.0919C66.6373 33.6754 66.9704 33.2589 67.2203 32.7592C66.5539 31.9262 65.721 31.01 65.8876 30.5935C65.9709 30.177 67.137 29.9271 68.2199 29.6773ZM60.3069 32.6759C58.1412 32.6759 56.392 30.9267 56.392 28.761C56.392 26.5954 58.1412 24.8462 60.3069 24.8462C62.4725 24.8462 64.2217 26.5954 64.2217 28.761C64.2217 30.9267 62.4725 32.6759 60.3069 32.6759Z" fill="#FFD112"/>
<defs>
<linearGradient id="paint0_linear" x1="93.6833" y1="105.697" x2="93.6833" y2="87.2371" gradientUnits="userSpaceOnUse">
<stop stop-color="#F5F5F5"/>
<stop offset="0.1619" stop-color="#ECECEC"/>
<stop offset="0.4295" stop-color="#D3D3D3"/>
<stop offset="0.7676" stop-color="#AAAAAA"/>
<stop offset="1" stop-color="#8A8A8A"/>
</linearGradient>
<linearGradient id="paint1_linear" x1="79.4376" y1="120.59" x2="107.787" y2="92.2406" gradientUnits="userSpaceOnUse">
<stop stop-color="#B9B9B9"/>
<stop offset="0.2096" stop-color="#C6C6C6"/>
<stop offset="0.7016" stop-color="#DFDFDF"/>
<stop offset="1" stop-color="#E8E8E8"/>
</linearGradient>
<linearGradient id="paint2_linear" x1="30.8152" y1="48.2693" x2="157.073" y2="48.2693" gradientUnits="userSpaceOnUse">
<stop stop-color="#B9B9B9"/>
<stop offset="0.3411" stop-color="#D3D3D3"/>
<stop offset="0.7511" stop-color="#ECECEC"/>
<stop offset="1" stop-color="#F5F5F5"/>
</linearGradient>
<linearGradient id="paint3_linear" x1="128.076" y1="83.835" x2="141.393" y2="30.1552" gradientUnits="userSpaceOnUse">
<stop stop-color="#DB7E15"/>
<stop offset="0.0475917" stop-color="#DF8715"/>
<stop offset="0.1263" stop-color="#EBA015"/>
<stop offset="0.2258" stop-color="#FFC915"/>
<stop offset="0.2595" stop-color="#FFC615"/>
<stop offset="0.4894" stop-color="#FFB315"/>
<stop offset="0.7307" stop-color="#FFA915"/>
<stop offset="1" stop-color="#FFA515"/>
</linearGradient>
<linearGradient id="paint4_linear" x1="88.0664" y1="60.6003" x2="103.964" y2="60.6003" gradientUnits="userSpaceOnUse">
<stop stop-color="#DB7E15"/>
<stop offset="0.1122" stop-color="#DF8715"/>
<stop offset="0.2977" stop-color="#EBA015"/>
<stop offset="0.5323" stop-color="#FFC915"/>
<stop offset="0.5526" stop-color="#FFC615"/>
<stop offset="0.6915" stop-color="#FFB315"/>
<stop offset="0.8373" stop-color="#FFA915"/>
<stop offset="1" stop-color="#FFA515"/>
</linearGradient>
<linearGradient id="paint5_linear" x1="65.7316" y1="69.3013" x2="70.8679" y2="74.9931" gradientUnits="userSpaceOnUse">
<stop stop-color="#FFA515"/>
<stop offset="0.278" stop-color="#FFC715"/>
<stop offset="0.4462" stop-color="#FFD615"/>
<stop offset="0.5761" stop-color="#F9C615"/>
<stop offset="0.8276" stop-color="#E89E15"/>
<stop offset="1" stop-color="#DB7E15"/>
</linearGradient>
<linearGradient id="paint6_linear" x1="43.3057" y1="86.6689" x2="50.982" y2="95.7845" gradientUnits="userSpaceOnUse">
<stop stop-color="#FFA515"/>
<stop offset="0.278" stop-color="#FFC715"/>
<stop offset="0.4462" stop-color="#FFD615"/>
<stop offset="0.5761" stop-color="#F9C615"/>
<stop offset="0.8276" stop-color="#E89E15"/>
<stop offset="1" stop-color="#DB7E15"/>
</linearGradient>
<linearGradient id="paint7_linear" x1="17.9429" y1="103.908" x2="48.9181" y2="103.908" gradientUnits="userSpaceOnUse">
<stop offset="0.5699" stop-color="#FFC915"/>
<stop offset="0.5886" stop-color="#FFC615"/>
<stop offset="0.7163" stop-color="#FFB315"/>
<stop offset="0.8504" stop-color="#FFA915"/>
<stop offset="1" stop-color="#FFA515"/>
</linearGradient>
<linearGradient id="paint8_linear" x1="41.4234" y1="89.6801" x2="47.834" y2="96.9245" gradientUnits="userSpaceOnUse">
<stop stop-color="#FFA515"/>
<stop offset="0.278" stop-color="#FFC715"/>
<stop offset="0.4462" stop-color="#FFD615"/>
<stop offset="0.5761" stop-color="#F9C615"/>
<stop offset="0.8276" stop-color="#E89E15"/>
<stop offset="1" stop-color="#DB7E15"/>
</linearGradient>
<linearGradient id="paint9_linear" x1="80.3889" y1="56.2343" x2="86.0917" y2="62.2847" gradientUnits="userSpaceOnUse">
<stop stop-color="#DB7E15"/>
<stop offset="0.1122" stop-color="#DF8715"/>
<stop offset="0.2977" stop-color="#EBA015"/>
<stop offset="0.5323" stop-color="#FFC915"/>
<stop offset="0.5526" stop-color="#FFC615"/>
<stop offset="0.6915" stop-color="#FFB315"/>
<stop offset="0.8373" stop-color="#FFA915"/>
<stop offset="1" stop-color="#FFA515"/>
</linearGradient>
<linearGradient id="paint10_linear" x1="77.4383" y1="58.8198" x2="83.1412" y2="64.8703" gradientUnits="userSpaceOnUse">
<stop stop-color="#DB7E15"/>
<stop offset="0.1122" stop-color="#DF8715"/>
<stop offset="0.2977" stop-color="#EBA015"/>
<stop offset="0.5323" stop-color="#FFC915"/>
<stop offset="0.5526" stop-color="#FFC615"/>
<stop offset="0.6915" stop-color="#FFB315"/>
<stop offset="0.8373" stop-color="#FFA915"/>
<stop offset="1" stop-color="#FFA515"/>
</linearGradient>
<linearGradient id="paint11_linear" x1="48.1083" y1="84.7352" x2="53.7808" y2="90.7534" gradientUnits="userSpaceOnUse">
<stop stop-color="#DB7E15"/>
<stop offset="0.1122" stop-color="#DF8715"/>
<stop offset="0.2977" stop-color="#EBA015"/>
<stop offset="0.5323" stop-color="#FFC915"/>
<stop offset="0.5526" stop-color="#FFC615"/>
<stop offset="0.6915" stop-color="#FFB315"/>
<stop offset="0.8373" stop-color="#FFA915"/>
<stop offset="1" stop-color="#FFA515"/>
</linearGradient>
</defs>
</svg>
