<svg width="1627" height="1440" viewBox="0 0 1627 1440" fill="none" xmlns="http://www.w3.org/2000/svg">
<path d="M1161.28 0H465.075C423.275 0 384.675 22.3 363.775 58.5L15.675 661.5C-5.225 697.7 -5.225 742.3 15.675 778.5L363.775 1381.5C384.675 1417.7 423.275 1440 465.075 1440H1161.28C1203.08 1440 1241.68 1417.7 1262.58 1381.5L1610.68 778.5C1631.58 742.3 1631.58 697.7 1610.68 661.5L1262.58 58.5C1241.68 22.3 1203.08 0 1161.28 0Z" fill="#FBAA1A"/>
<path fill-rule="evenodd" clip-rule="evenodd" d="M508.575 980.2V1124.1C508.575 1140.8 515.375 1155.9 526.275 1166.8C537.175 1177.7 552.275 1184.5 568.975 1184.5C572.275 1184.5 568.775 1184.6 570.675 1184.6C570.875 1184.6 570.975 1184.6 571.775 1184.5H571.875H571.975H572.075H572.175H572.275H572.375H572.475H572.575H572.775C620.175 1182.2 667.475 1176 714.075 1166C760.475 1156.1 806.175 1142.3 850.475 1124.9C850.775 1124.8 851.075 1124.7 851.375 1124.6C877.675 1113.3 902.275 1098.4 924.575 1080.4C925.475 1079.7 926.375 1079 927.175 1078.3C921.375 1078.6 915.575 1078.7 909.775 1078.7C804.075 1078.7 708.375 1035.9 639.075 966.6C569.775 897.3 526.975 801.6 526.975 695.9C526.975 673.6 528.975 651.4 532.775 629.4C536.575 607.7 542.375 586.1 550.175 564.9C550.875 562.9 551.775 561.1 552.775 559.4C565.175 527.9 582.775 499.2 604.775 474.2C627.475 448.4 654.875 426.6 685.975 410.1C686.475 409.8 686.975 409.5 687.475 409.3C702.575 401.2 718.575 395 735.075 390.8C751.675 386.6 768.675 384.5 785.675 384.5C813.575 384.5 841.075 390.2 866.575 401.1C892.075 411.9 915.275 427.7 934.875 447.9C946.475 459.9 946.075 479.1 934.075 490.6C922.075 502.2 902.875 501.8 891.375 489.8C877.475 475.5 861.075 464.3 843.275 456.7C825.475 449.1 805.875 445.1 785.775 445.1C773.575 445.1 761.475 446.6 749.875 449.5C738.175 452.4 726.875 456.8 716.275 462.5C715.675 462.8 714.975 463.2 714.375 463.4C690.075 476.3 668.475 493.6 650.375 514.2C631.975 535.1 617.475 559.3 607.675 585.8C606.975 587.6 606.175 589.3 605.275 590.9C599.875 606.7 595.575 623.1 592.675 639.8C589.375 658.2 587.775 677 587.775 695.9C587.775 784.9 623.875 865.4 682.175 923.7C740.475 982 821.075 1018.1 909.975 1018.1C925.575 1018.1 940.975 1017 955.975 1014.8C970.875 1012.7 985.475 1009.5 999.875 1005.3C1000.37 1005.1 1000.98 1005 1001.58 1004.8C1017.48 1000.4 1033.88 1009.6 1038.58 1025.4C1041.68 1036 1038.77 1046.9 1031.77 1054.5C1012.07 1081.9 988.775 1106.4 962.675 1127.5C936.275 1148.8 906.875 1166.5 875.275 1180.1C874.475 1180.5 873.575 1180.9 872.675 1181.3C825.275 1199.9 776.475 1214.6 726.775 1225.2C677.675 1235.7 627.675 1242.3 577.075 1244.8C576.675 1244.8 576.375 1244.9 575.975 1244.9C575.675 1244.9 574.575 1245 572.675 1245H572.575C568.775 1245.1 571.075 1245.2 569.375 1245.2C535.975 1245.2 505.775 1231.7 483.875 1209.8C461.975 1187.9 448.475 1157.7 448.475 1124.3V988.5H412.075C396.875 988.5 382.975 982.7 372.375 973.2C371.575 972.5 370.775 971.8 369.975 971.1C359.175 960.3 352.575 945.5 352.575 929.1C352.575 925.5 352.975 921.8 353.675 917.9C354.275 914.7 355.275 911.4 356.575 908C356.675 907.7 356.775 907.5 356.875 907.2L405.275 785.4C406.275 782.3 407.075 779.1 407.675 775.9C408.175 773 408.375 769.7 408.375 766.1C408.375 763 408.175 760.3 407.875 758C407.575 755.5 407.075 753.1 406.575 750.9L406.475 750.6C401.275 733 397.375 715.1 394.775 697.1C392.175 678.8 390.775 660.6 390.775 642.5C390.775 536.8 433.575 441.1 502.875 371.8C572.175 302.5 667.875 259.7 773.575 259.7C795.875 259.7 818.075 261.7 840.075 265.5C861.775 269.3 883.375 275.1 904.575 282.9C906.575 283.6 908.375 284.5 910.075 285.5C941.575 297.9 970.275 315.5 995.275 337.5C1021.07 360.2 1042.87 387.6 1059.37 418.7C1059.67 419.2 1059.97 419.7 1060.17 420.2C1068.27 435.3 1074.47 451.3 1078.67 467.8C1082.87 484.4 1084.97 501.4 1084.97 518.4C1084.97 546.3 1079.27 573.8 1068.37 599.3C1057.57 624.8 1041.78 648 1021.58 667.6C1009.58 679.2 990.375 678.8 978.875 666.8C967.275 654.8 967.675 635.6 979.675 624.1C993.975 610.2 1005.17 593.8 1012.77 576C1020.37 558.2 1024.37 538.6 1024.37 518.5C1024.37 506.3 1022.87 494.2 1019.97 482.6C1017.07 470.9 1012.67 459.6 1006.97 449C1006.67 448.4 1006.28 447.7 1006.08 447.1C993.175 422.8 975.875 401.2 955.275 383.1C934.375 364.7 910.175 350.2 883.675 340.4C881.875 339.7 880.175 338.9 878.575 338C862.775 332.6 846.375 328.3 829.675 325.4C811.275 322.1 792.475 320.5 773.575 320.5C684.575 320.5 604.075 356.6 545.775 414.9C487.475 473.2 451.375 553.8 451.375 642.7C451.375 658.3 452.475 673.7 454.675 688.7C456.875 704 460.175 719 464.475 733.7C464.775 734.6 464.975 735.6 465.175 736.5C466.375 741.1 467.275 745.6 467.875 750.1C468.675 755.9 469.075 761.2 469.075 766.2C469.075 772.4 468.475 779 467.375 785.7C466.275 792.1 464.775 798.5 462.675 804.7C462.375 805.5 462.175 806.2 461.875 806.9L413.775 928.1H456.675C471.175 928.1 484.275 934 493.775 943.5C502.675 952.6 508.575 965.7 508.575 980.2Z" fill="white"/>
<path fill-rule="evenodd" clip-rule="evenodd" d="M1186.37 636.7C1194.07 615.5 1199.87 593.9 1203.77 572.2C1207.57 550.7 1209.47 528.4 1209.47 505.7C1209.47 445.8 1195.47 387.7 1169.57 335.7C1143.67 283.6 1105.77 237.3 1058.07 201.1C1044.77 191 1025.87 193.6 1015.77 206.9C1005.67 220.2 1008.27 239.1 1021.57 249.2C1061.67 279.6 1093.47 318.5 1115.27 362.5C1137.17 406.5 1148.97 455.5 1148.97 505.8C1148.97 524.3 1147.27 543.1 1143.97 561.9C1140.97 578.8 1136.77 595.2 1131.27 611.1C1130.37 612.7 1129.57 614.3 1128.97 616.1C1119.17 642.5 1104.67 666.8 1086.27 687.7C1068.17 708.3 1046.57 725.5 1022.27 738.5C1021.67 738.8 1020.97 739.1 1020.37 739.4C1009.77 745.1 998.475 749.5 986.775 752.4C975.175 755.3 963.175 756.8 950.875 756.8C930.775 756.8 911.275 752.8 893.375 745.2C875.475 737.6 859.075 726.4 845.275 712.1C833.675 700.1 814.575 699.7 802.575 711.3C790.575 722.9 790.175 742 801.775 754C821.275 774.2 844.575 790 870.075 800.8C895.575 811.6 923.075 817.4 950.975 817.4C967.975 817.4 984.975 815.3 1001.57 811.1C1018.07 807 1034.07 800.8 1049.17 792.6C1049.67 792.3 1050.17 792 1050.67 791.8C1081.77 775.2 1109.27 753.4 1131.87 727.7C1153.87 702.7 1171.57 673.8 1183.97 642.2C1184.87 640.4 1185.67 638.6 1186.37 636.7Z" fill="white"/>
<path fill-rule="evenodd" clip-rule="evenodd" d="M832.275 919C853.475 926.7 875.075 932.5 896.775 936.4C918.275 940.2 940.575 942.1 963.275 942.1C1023.17 942.1 1081.27 928.1 1133.27 902.2C1185.37 876.3 1231.67 838.4 1267.87 790.7C1277.97 777.4 1275.38 758.5 1262.08 748.4C1248.78 738.3 1229.87 740.9 1219.77 754.2C1189.37 794.3 1150.47 826.1 1106.47 847.9C1062.47 869.8 1013.47 881.6 963.175 881.6C944.675 881.6 925.875 879.9 907.075 876.6C890.175 873.6 873.775 869.4 857.875 863.9C856.275 863 854.675 862.2 852.875 861.6C826.475 851.8 802.175 837.3 781.275 818.9C760.675 800.8 743.475 779.2 730.475 754.9C730.175 754.3 729.875 753.6 729.575 753C723.875 742.4 719.475 731.1 716.575 719.4C713.675 707.8 712.175 695.8 712.175 683.5C712.175 663.4 716.175 643.9 723.775 626C731.375 608.1 742.575 591.7 756.875 577.9C768.875 566.3 769.275 547.2 757.675 535.2C746.075 523.2 726.975 522.8 714.975 534.4C694.775 553.9 678.975 577.2 668.175 602.7C657.375 628.2 651.575 655.7 651.575 683.6C651.575 700.6 653.675 717.6 657.875 734.2C661.975 750.7 668.175 766.7 676.375 781.8C676.675 782.3 676.975 782.8 677.175 783.3C693.775 814.4 715.575 841.9 741.275 864.5C766.275 886.5 795.175 904.2 826.775 916.6C828.675 917.5 830.375 918.3 832.275 919Z" fill="white"/>
</svg>
