<?xml version="1.0" encoding="utf-8"?>
<!-- Generator: Adobe Illustrator 21.0.0, SVG Export Plug-In . SVG Version: 6.00 Build 0)  -->
<svg version="1.1" id="Layer_1" xmlns="http://www.w3.org/2000/svg" xmlns:xlink="http://www.w3.org/1999/xlink" x="0px" y="0px"
	 viewBox="0 0 1265 370.8" style="enable-background:new 0 0 1265 370.8;" xml:space="preserve">
<style type="text/css">
	.st0{fill:#FBAA19;}
	.st1{fill:#FFFFFF;}
	.st2{enable-background:new    ;}
	.st3{fill:#670C23;}
</style>
<g id="Group_3273" transform="translate(-493 -850)">
	<g>
		<path id="Polygon_10" class="st0" d="M1711.5,850.5c4.3,0,8.2,2.3,10.4,6l34,58.5c2.2,3.7,2.2,8.3,0,12.1l-34,58.5
			c-2.1,3.7-6.1,6-10.4,6h-68.2c-4.3,0-8.2-2.3-10.4-6l-34-58.5c-2.2-3.7-2.2-8.3,0-12.1l34-58.5c2.1-3.7,6.1-6,10.4-6H1711.5z"/>
		<g>
			<path class="st1" d="M1642.7,943.4v-44.8h15.4c5.5,0,10,1.7,13.5,5.2c3.5,3.5,5.3,8,5.3,13.5v7.4c0,5.5-1.8,10-5.3,13.5
				c-3.5,3.5-8.1,5.2-13.5,5.2H1642.7z M1651.6,905.6v30.9h5.9c3.2,0,5.7-1.1,7.6-3.3s2.7-5,2.7-8.5v-7.5c0-3.5-0.9-6.3-2.7-8.5
				c-1.8-2.2-4.3-3.3-7.6-3.3H1651.6z"/>
			<path class="st1" d="M1701.1,918.5h11.1v7.8h-11.1v12.7h-8.5v-12.7h-11.1v-7.8h11.1v-12.1h8.5V918.5z"/>
		</g>
	</g>
	<path id="Path_1396" class="st0" d="M776.5,850.5c18.5,0,35.6,9.9,44.9,25.9l77.1,133.6c9.3,16,9.3,35.8,0,51.8l-77.1,133.6
		c-9.3,16-26.4,25.9-44.9,25.9H622.4c-18.5,0-35.6-9.9-44.9-25.9l-77.1-133.6c-9.3-16-9.3-35.8,0-51.8l77.1-133.6
		c9.3-16,26.4-25.9,44.9-25.9H776.5z"/>
	<g>
		<path class="st1" d="M618.1,1105.2v38.4c0,8.9,7.2,16.1,16.1,16.1l0,0c0.9,0,0,0,0.4,0h0.5c25.4-1.2,50.5-6.6,74.2-15.9h0.2
			c7-3,13.6-7,19.6-11.8l0.7-0.6c-1.5,0-3,0-4.6,0c-56.4,0.1-102.2-45.6-102.2-102c0-12,2.1-24,6.2-35.2c0.2-0.5,0.4-1,0.7-1.5
			c6.7-17.1,19.3-31.2,35.6-39.8l0.4-0.2c21.8-11.7,48.8-7.5,66,10.3c3.1,3.2,3,8.3-0.2,11.4c-3.2,3.1-8.3,3-11.4-0.2l0,0
			c-12.2-12.6-31.3-15.6-46.8-7.3l-0.5,0.2c-13.2,7.1-23.3,18.7-28.5,32.7c-0.2,0.5-0.4,0.9-0.7,1.4c-15.5,44.9,8.4,93.9,53.3,109.4
			c16.8,5.8,35,6.2,52.1,1.3l0.4-0.1c4.3-1.2,8.7,1.4,9.9,5.7c0.7,2.7,0,5.6-1.9,7.6c-10.6,14.8-25.1,26.3-41.8,33.5l-0.7,0.3
			c-25.3,9.9-52,15.7-79.1,17h-1.2h-0.9c-17.8,0-32.3-14.5-32.3-32.3l0,0v-36.2h-9.7c-3.9,0-7.7-1.4-10.6-4.1l-0.6-0.6
			c-4.4-4.4-5.9-11-3.6-16.8v-0.2l12.9-32.5l0,0c0.3-0.8,0.5-1.7,0.6-2.6c0.2-0.8,0.2-1.7,0.3-2.6c0-0.7,0-1.5-0.1-2.2
			c-0.1-0.6-0.2-1.3-0.4-1.9l0,0c-16-54.1,14.9-110.9,69-126.9c21-6.2,43.4-5.5,64,2c0.5,0.2,1,0.4,1.5,0.7
			c17.1,6.7,31.2,19.3,39.9,35.5l0.2,0.4c11.7,21.8,7.5,48.8-10.3,66c-3.2,3.1-8.3,3-11.4-0.2c-3.1-3.2-3-8.3,0.2-11.4
			c12.6-12.2,15.6-31.3,7.3-46.8l-0.2-0.5c-7-13.2-18.7-23.3-32.7-28.5c-0.5-0.2-0.9-0.4-1.4-0.7c-45-15.5-93.9,8.4-109.4,53.4
			c-5.8,16.9-6.2,35.2-1.2,52.3c0,0.3,0.1,0.5,0.2,0.7c0.3,1.2,0.5,2.3,0.7,3.5c0.2,1.5,0.3,3,0.3,4.5c0,1.7-0.2,3.5-0.4,5.2
			c-0.3,1.7-0.7,3.4-1.3,5.1c0,0.2-0.1,0.4-0.2,0.6l-12.9,32.3h11.4C611.8,1091.2,618.1,1097.4,618.1,1105.2L618.1,1105.2
			L618.1,1105.2z"/>
		<path class="st1" d="M799.1,1013.5c15.3-42.1,1.4-89.3-34.3-116.4c-3.5-2.7-8.6-2-11.3,1.5c-2.7,3.5-2,8.6,1.5,11.3
			c29.6,22.5,41.5,61.5,29.4,96.7c-0.2,0.4-0.5,0.9-0.6,1.3c-5.2,14-15.3,25.6-28.5,32.7l-0.5,0.2c-15.5,8.3-34.6,5.3-46.8-7.3
			c-3.1-3.2-8.2-3.3-11.4-0.2c-3.2,3.1-3.3,8.2-0.2,11.4c17.2,17.9,44.3,22.1,66.2,10.3l0.4-0.2c16.2-8.6,28.8-22.8,35.5-40
			C798.7,1014.4,798.9,1014,799.1,1013.5z"/>
		<path class="st1" d="M704.6,1088.8c42.1,15.3,89.3,1.4,116.3-34.3c2.7-3.5,2-8.6-1.5-11.3c-3.5-2.7-8.6-2-11.3,1.5
			c-22.5,29.6-61.5,41.4-96.6,29.3c-0.4-0.2-0.9-0.5-1.3-0.6c-14-5.2-25.6-15.3-32.7-28.5l-0.2-0.5c-8.3-15.5-5.3-34.6,7.3-46.8
			c3.2-3.1,3.3-8.2,0.2-11.4c-3.1-3.2-8.2-3.3-11.4-0.2l0,0c-17.8,17.2-22.1,44.2-10.3,66l0.2,0.4c8.6,16.3,22.8,28.9,40,35.6
			C703.6,1088.4,704.1,1088.7,704.6,1088.8z"/>
	</g>
	<g>
		<g class="st2">
			<path class="st3" d="M955.6,1130.9h-7v19.4h-2.9v-19.4h-7v-2.3h16.9V1130.9z"/>
			<path class="st3" d="M966.9,1150.3c-0.1-0.5-0.2-0.9-0.2-1.3c-0.1-0.4-0.1-0.7-0.1-1.1c-0.5,0.8-1.3,1.4-2.1,1.9
				c-0.9,0.5-1.8,0.8-2.8,0.8c-1.7,0-3-0.4-3.8-1.3c-0.9-0.9-1.3-2-1.3-3.6c0-1.5,0.6-2.7,1.9-3.6c1.2-0.9,2.9-1.3,5.1-1.3h3.2v-1.6
				c0-0.9-0.3-1.7-0.9-2.2c-0.6-0.6-1.4-0.8-2.4-0.8c-0.9,0-1.7,0.2-2.3,0.7c-0.6,0.5-0.9,1.1-0.9,1.7h-2.8l0-0.1
				c-0.1-1.2,0.5-2.2,1.7-3.2c1.2-1,2.7-1.5,4.5-1.5c1.8,0,3.3,0.5,4.4,1.4c1.1,0.9,1.7,2.3,1.7,4v7.8c0,0.6,0,1.1,0.1,1.7
				c0.1,0.5,0.2,1.1,0.3,1.6H966.9z M962,1148.1c1.1,0,2-0.3,2.9-0.8c0.9-0.5,1.4-1.2,1.7-1.9v-2.6h-3.3c-1.2,0-2.1,0.3-2.8,0.9
				s-1.1,1.3-1.1,2.1c0,0.7,0.2,1.3,0.7,1.7C960.5,1147.9,961.2,1148.1,962,1148.1z"/>
			<path class="st3" d="M977,1130H974v-3h2.9V1130z M977,1150.3H974v-16.1h2.9V1150.3z"/>
			<path class="st3" d="M984.7,1150.3h-2.9V1127h2.9V1150.3z"/>
			<path class="st3" d="M988.5,1142.1c0-2.4,0.6-4.4,1.9-5.9c1.3-1.5,3-2.3,5.3-2.3c2.2,0,4,0.8,5.3,2.3c1.3,1.5,1.9,3.5,1.9,5.9
				v0.3c0,2.4-0.6,4.4-1.9,5.9c-1.3,1.5-3.1,2.3-5.3,2.3s-4-0.8-5.3-2.3c-1.3-1.5-1.9-3.5-1.9-5.9V1142.1z M991.4,1142.4
				c0,1.7,0.4,3.1,1.1,4.2c0.7,1.1,1.8,1.7,3.2,1.7c1.4,0,2.5-0.6,3.2-1.7c0.7-1.1,1.1-2.5,1.1-4.2v-0.3c0-1.7-0.4-3.1-1.1-4.2
				c-0.7-1.1-1.8-1.7-3.2-1.7c-1.4,0-2.5,0.6-3.2,1.7c-0.7,1.1-1.1,2.5-1.1,4.2V1142.4z"/>
			<path class="st3" d="M1014.2,1136.7l-1.5-0.1c-0.8,0-1.4,0.2-2,0.6c-0.5,0.4-0.9,0.9-1.2,1.6v11.5h-2.9v-16.1h2.6l0.3,2.4
				c0.5-0.8,1-1.5,1.7-2c0.7-0.5,1.4-0.7,2.3-0.7c0.2,0,0.4,0,0.6,0.1c0.2,0,0.4,0.1,0.5,0.1L1014.2,1136.7z"/>
			<path class="st3" d="M1023.4,1150.6c-2.2,0-4-0.7-5.4-2.2c-1.3-1.5-2-3.4-2-5.8v-0.7c0-2.3,0.7-4.2,2.1-5.7
				c1.4-1.5,3-2.3,4.9-2.3c2.2,0,3.8,0.7,4.9,2s1.7,3.1,1.7,5.3v1.8h-10.5l0,0.1c0,1.5,0.4,2.8,1.2,3.8c0.8,1,1.8,1.5,3.2,1.5
				c1,0,1.9-0.1,2.6-0.4c0.8-0.3,1.4-0.7,1.9-1.2l1.1,1.9c-0.6,0.6-1.3,1-2.3,1.4C1025.9,1150.4,1024.8,1150.6,1023.4,1150.6z
				 M1023,1136.1c-1,0-1.8,0.4-2.5,1.2c-0.7,0.8-1.1,1.9-1.3,3.1l0,0.1h7.4v-0.4c0-1.1-0.3-2.1-0.9-2.9
				C1025.1,1136.5,1024.2,1136.1,1023,1136.1z"/>
			<path class="st3" d="M1032.2,1142.5c0-2.6,0.6-4.7,1.7-6.3c1.1-1.6,2.7-2.4,4.7-2.4c0.9,0,1.8,0.2,2.5,0.5
				c0.7,0.3,1.4,0.9,1.9,1.5v-8.9h2.9v23.3h-2.4l-0.3-2c-0.5,0.8-1.2,1.3-1.9,1.7c-0.8,0.4-1.7,0.6-2.7,0.6c-2,0-3.5-0.7-4.6-2.1
				c-1.1-1.4-1.7-3.3-1.7-5.6V1142.5z M1035.2,1142.8c0,1.6,0.3,2.9,1,3.9c0.7,1,1.7,1.5,3.1,1.5c0.9,0,1.6-0.2,2.2-0.6
				c0.6-0.4,1.1-1,1.5-1.7v-7.5c-0.4-0.7-0.9-1.2-1.5-1.6c-0.6-0.4-1.3-0.6-2.2-0.6c-1.4,0-2.5,0.6-3.1,1.7c-0.7,1.2-1,2.7-1,4.5
				V1142.8z"/>
			<path class="st3" d="M1074.3,1128.6v14.7c0,2.4-0.8,4.2-2.3,5.4c-1.5,1.3-3.5,1.9-6,1.9c-2.4,0-4.3-0.6-5.8-1.9
				c-1.5-1.3-2.2-3.1-2.2-5.4v-14.7h2.9v14.7c0,1.6,0.5,2.9,1.4,3.7c0.9,0.8,2.2,1.3,3.7,1.3c1.6,0,2.9-0.4,3.9-1.3
				c1-0.8,1.5-2.1,1.5-3.7v-14.7H1074.3z"/>
			<path class="st3" d="M1081.2,1134.1l0.2,2.4c0.5-0.9,1.2-1.5,2-2c0.8-0.5,1.7-0.7,2.8-0.7c1.7,0,3.1,0.5,4,1.5
				c1,1,1.4,2.6,1.4,4.7v10.2h-2.9v-10.1c0-1.4-0.3-2.4-0.8-3s-1.4-0.9-2.6-0.9c-0.8,0-1.6,0.2-2.2,0.6c-0.7,0.4-1.2,1-1.6,1.7v11.8
				h-2.9v-16.1H1081.2z"/>
			<path class="st3" d="M1099.1,1130h-2.9v-3h2.9V1130z M1099.1,1150.3h-2.9v-16.1h2.9V1150.3z"/>
			<path class="st3" d="M1104.8,1150.3v-14h-2.5v-2.2h2.5v-2c0-1.7,0.5-3.1,1.4-4c0.9-0.9,2.2-1.4,3.8-1.4c0.3,0,0.7,0,1,0.1
				c0.3,0.1,0.7,0.1,1.1,0.2l-0.4,2.2c-0.2,0-0.4-0.1-0.6-0.1c-0.3,0-0.5,0-0.8,0c-0.9,0-1.5,0.3-1.9,0.8c-0.4,0.5-0.6,1.3-0.6,2.2
				v2h3.4v2.2h-3.4v14H1104.8z"/>
			<path class="st3" d="M1117.3,1130h-2.9v-3h2.9V1130z M1117.3,1150.3h-2.9v-16.1h2.9V1150.3z"/>
			<path class="st3" d="M1128.6,1150.6c-2.2,0-4-0.7-5.4-2.2c-1.3-1.5-2-3.4-2-5.8v-0.7c0-2.3,0.7-4.2,2.1-5.7
				c1.4-1.5,3-2.3,4.9-2.3c2.2,0,3.8,0.7,4.9,2c1.1,1.3,1.7,3.1,1.7,5.3v1.8h-10.5l0,0.1c0,1.5,0.4,2.8,1.2,3.8
				c0.8,1,1.8,1.5,3.2,1.5c1,0,1.9-0.1,2.6-0.4c0.8-0.3,1.4-0.7,1.9-1.2l1.1,1.9c-0.6,0.6-1.3,1-2.3,1.4
				C1131,1150.4,1129.9,1150.6,1128.6,1150.6z M1128.1,1136.1c-1,0-1.8,0.4-2.5,1.2c-0.7,0.8-1.1,1.9-1.3,3.1l0,0.1h7.4v-0.4
				c0-1.1-0.3-2.1-0.9-2.9C1130.2,1136.5,1129.3,1136.1,1128.1,1136.1z"/>
			<path class="st3" d="M1137.3,1142.5c0-2.6,0.6-4.7,1.7-6.3c1.1-1.6,2.7-2.4,4.7-2.4c0.9,0,1.8,0.2,2.5,0.5
				c0.7,0.3,1.4,0.9,1.9,1.5v-8.9h2.9v23.3h-2.4l-0.3-2c-0.5,0.8-1.2,1.3-1.9,1.7c-0.8,0.4-1.7,0.6-2.7,0.6c-2,0-3.5-0.7-4.6-2.1
				c-1.1-1.4-1.7-3.3-1.7-5.6V1142.5z M1140.3,1142.8c0,1.6,0.3,2.9,1,3.9c0.7,1,1.7,1.5,3.1,1.5c0.9,0,1.6-0.2,2.2-0.6
				c0.6-0.4,1.1-1,1.5-1.7v-7.5c-0.4-0.7-0.9-1.2-1.5-1.6c-0.6-0.4-1.3-0.6-2.2-0.6c-1.4,0-2.5,0.6-3.1,1.7c-0.7,1.2-1,2.7-1,4.5
				V1142.8z"/>
			<path class="st3" d="M1175.4,1144.8c0-1-0.4-1.8-1.1-2.5c-0.7-0.7-2.1-1.2-4-1.7c-2.3-0.5-4.1-1.4-5.4-2.4
				c-1.3-1.1-1.9-2.4-1.9-4c0-1.7,0.7-3.1,2.1-4.2c1.4-1.1,3.2-1.7,5.4-1.7c2.4,0,4.3,0.7,5.7,2c1.4,1.3,2.1,2.8,2,4.5l0,0.1h-2.8
				c0-1.3-0.4-2.3-1.3-3.1c-0.8-0.8-2-1.2-3.6-1.2c-1.5,0-2.6,0.3-3.4,1c-0.8,0.7-1.2,1.5-1.2,2.6c0,0.9,0.4,1.7,1.3,2.4
				c0.8,0.6,2.2,1.2,4.1,1.7c2.3,0.6,4,1.4,5.2,2.5c1.2,1.1,1.8,2.5,1.8,4.1c0,1.8-0.7,3.2-2.1,4.2s-3.3,1.6-5.6,1.6
				c-2.2,0-4.1-0.6-5.8-1.8c-1.7-1.2-2.5-2.8-2.4-4.7l0-0.1h2.8c0,1.4,0.5,2.5,1.5,3.2c1,0.7,2.3,1.1,3.8,1.1c1.5,0,2.7-0.3,3.5-0.9
				C1174.9,1146.7,1175.4,1145.9,1175.4,1144.8z"/>
			<path class="st3" d="M1187,1144.3l0.5,2h0.1l4-12.2h3.3l-6.8,18.6c-0.4,1.1-1,2-1.8,2.8c-0.8,0.8-1.8,1.2-3.1,1.2
				c-0.2,0-0.5,0-0.9-0.1c-0.4-0.1-0.7-0.1-0.9-0.2l0.3-2.3c-0.1,0,0.1,0,0.5,0c0.4,0,0.7,0,0.8,0c0.6,0,1.1-0.3,1.5-0.8
				c0.4-0.6,0.7-1.2,1-1.8l0.7-1.7l-6-15.8h3.3L1187,1144.3z"/>
			<path class="st3" d="M1206.8,1146c0-0.6-0.2-1.2-0.7-1.6c-0.5-0.4-1.4-0.8-2.8-1.1c-2-0.4-3.4-1-4.4-1.7c-1-0.7-1.5-1.7-1.5-3
				c0-1.3,0.6-2.4,1.7-3.4c1.1-0.9,2.6-1.4,4.4-1.4c1.9,0,3.4,0.5,4.5,1.4c1.1,1,1.6,2.1,1.6,3.5l0,0.1h-2.8c0-0.7-0.3-1.3-0.9-1.9
				c-0.6-0.6-1.4-0.8-2.4-0.8c-1,0-1.8,0.2-2.3,0.7c-0.5,0.5-0.8,1-0.8,1.7c0,0.6,0.2,1.1,0.7,1.5c0.4,0.4,1.4,0.7,2.7,1
				c2,0.4,3.6,1,4.5,1.8c1,0.8,1.5,1.8,1.5,3c0,1.4-0.6,2.6-1.7,3.5c-1.2,0.9-2.7,1.3-4.5,1.3c-2.1,0-3.7-0.5-4.9-1.6
				c-1.2-1-1.7-2.3-1.7-3.7l0-0.1h2.8c0.1,1,0.4,1.8,1.2,2.3c0.7,0.5,1.6,0.7,2.6,0.7c1,0,1.9-0.2,2.5-0.6
				C1206.5,1147.2,1206.8,1146.7,1206.8,1146z"/>
			<path class="st3" d="M1217.2,1130.2v3.9h3.1v2.2h-3.1v9.8c0,0.8,0.2,1.3,0.5,1.6c0.3,0.3,0.7,0.5,1.2,0.5c0.2,0,0.4,0,0.6-0.1
				c0.2,0,0.4-0.1,0.5-0.1l0.4,2c-0.2,0.2-0.5,0.3-1,0.4c-0.4,0.1-0.8,0.2-1.3,0.2c-1.2,0-2.1-0.4-2.8-1.1c-0.7-0.7-1.1-1.9-1.1-3.4
				v-9.8h-2.6v-2.2h2.6v-3.9H1217.2z"/>
			<path class="st3" d="M1230.6,1150.6c-2.2,0-4-0.7-5.4-2.2c-1.3-1.5-2-3.4-2-5.8v-0.7c0-2.3,0.7-4.2,2.1-5.7
				c1.4-1.5,3-2.3,4.9-2.3c2.2,0,3.8,0.7,4.9,2c1.1,1.3,1.7,3.1,1.7,5.3v1.8h-10.5l0,0.1c0,1.5,0.4,2.8,1.2,3.8
				c0.8,1,1.8,1.5,3.2,1.5c1,0,1.9-0.1,2.6-0.4c0.8-0.3,1.4-0.7,1.9-1.2l1.1,1.9c-0.6,0.6-1.3,1-2.3,1.4
				C1233.1,1150.4,1232,1150.6,1230.6,1150.6z M1230.2,1136.1c-1,0-1.8,0.4-2.5,1.2c-0.7,0.8-1.1,1.9-1.3,3.1l0,0.1h7.4v-0.4
				c0-1.1-0.3-2.1-0.9-2.9C1232.3,1136.5,1231.4,1136.1,1230.2,1136.1z"/>
			<path class="st3" d="M1242.7,1134.1l0.2,2.1c0.5-0.8,1.2-1.4,2-1.8c0.8-0.4,1.8-0.6,2.8-0.6c1.1,0,2,0.2,2.8,0.7
				c0.8,0.5,1.3,1.2,1.7,2.2c0.5-0.9,1.2-1.6,2-2.2c0.8-0.5,1.8-0.8,2.9-0.8c1.6,0,2.9,0.6,3.9,1.7c1,1.1,1.4,2.8,1.4,5.1v9.7h-2.9
				v-9.7c0-1.6-0.3-2.7-0.8-3.4c-0.5-0.7-1.4-1-2.4-1c-1,0-1.8,0.3-2.4,1c-0.6,0.7-1,1.6-1.1,2.6v0.1v10.2h-3v-9.7
				c0-1.5-0.3-2.6-0.8-3.3c-0.6-0.7-1.4-1.1-2.4-1.1c-0.9,0-1.6,0.2-2.2,0.6c-0.6,0.4-1,0.9-1.3,1.6v12h-2.9v-16.1H1242.7z"/>
			<path class="st3" d="M1286.8,1144.8c0-1-0.4-1.8-1.1-2.5c-0.7-0.7-2.1-1.2-4-1.7c-2.3-0.5-4.1-1.4-5.4-2.4
				c-1.3-1.1-1.9-2.4-1.9-4c0-1.7,0.7-3.1,2.1-4.2c1.4-1.1,3.2-1.7,5.4-1.7c2.4,0,4.3,0.7,5.7,2c1.4,1.3,2.1,2.8,2,4.5l0,0.1h-2.8
				c0-1.3-0.4-2.3-1.3-3.1c-0.8-0.8-2-1.2-3.6-1.2c-1.5,0-2.6,0.3-3.4,1c-0.8,0.7-1.2,1.5-1.2,2.6c0,0.9,0.4,1.7,1.3,2.4
				s2.2,1.2,4.1,1.7c2.3,0.6,4,1.4,5.2,2.5c1.2,1.1,1.8,2.5,1.8,4.1c0,1.8-0.7,3.2-2.1,4.2s-3.3,1.6-5.6,1.6c-2.2,0-4.1-0.6-5.8-1.8
				c-1.7-1.2-2.5-2.8-2.4-4.7l0-0.1h2.8c0,1.4,0.5,2.5,1.5,3.2c1,0.7,2.3,1.1,3.8,1.1c1.5,0,2.7-0.3,3.5-0.9
				C1286.3,1146.7,1286.8,1145.9,1286.8,1144.8z"/>
			<path class="st3" d="M1292.8,1142.1c0-2.4,0.6-4.4,1.9-5.9c1.3-1.5,3-2.3,5.3-2.3c2.2,0,4,0.8,5.3,2.3c1.3,1.5,1.9,3.5,1.9,5.9
				v0.3c0,2.4-0.6,4.4-1.9,5.9c-1.3,1.5-3.1,2.3-5.3,2.3c-2.2,0-4-0.8-5.3-2.3c-1.3-1.5-1.9-3.5-1.9-5.9V1142.1z M1295.7,1142.4
				c0,1.7,0.4,3.1,1.1,4.2c0.7,1.1,1.8,1.7,3.2,1.7c1.4,0,2.5-0.6,3.2-1.7c0.7-1.1,1.1-2.5,1.1-4.2v-0.3c0-1.7-0.4-3.1-1.1-4.2
				c-0.7-1.1-1.8-1.7-3.2-1.7c-1.4,0-2.5,0.6-3.2,1.7c-0.7,1.1-1.1,2.5-1.1,4.2V1142.4z"/>
			<path class="st3" d="M1314,1150.3h-2.9V1127h2.9V1150.3z"/>
			<path class="st3" d="M1328.8,1147.9c-0.5,0.9-1.2,1.5-2,2s-1.7,0.7-2.8,0.7c-1.8,0-3.1-0.6-4.1-1.7c-1-1.1-1.5-2.9-1.5-5.3v-9.5
				h2.9v9.5c0,1.7,0.3,2.9,0.8,3.6c0.5,0.6,1.3,1,2.4,1c1,0,1.9-0.2,2.6-0.6c0.7-0.4,1.2-1,1.5-1.8v-11.6h2.9v16.1h-2.6
				L1328.8,1147.9z"/>
			<path class="st3" d="M1339.7,1130.2v3.9h3.1v2.2h-3.1v9.8c0,0.8,0.2,1.3,0.5,1.6c0.3,0.3,0.7,0.5,1.2,0.5c0.2,0,0.4,0,0.6-0.1
				c0.2,0,0.4-0.1,0.5-0.1l0.4,2c-0.2,0.2-0.5,0.3-1,0.4c-0.4,0.1-0.8,0.2-1.3,0.2c-1.2,0-2.1-0.4-2.9-1.1c-0.7-0.7-1.1-1.9-1.1-3.4
				v-9.8h-2.6v-2.2h2.6v-3.9H1339.7z"/>
			<path class="st3" d="M1349.6,1130h-2.9v-3h2.9V1130z M1349.6,1150.3h-2.9v-16.1h2.9V1150.3z"/>
			<path class="st3" d="M1353.4,1142.1c0-2.4,0.6-4.4,1.9-5.9c1.3-1.5,3-2.3,5.3-2.3c2.2,0,4,0.8,5.3,2.3c1.3,1.5,1.9,3.5,1.9,5.9
				v0.3c0,2.4-0.6,4.4-1.9,5.9c-1.3,1.5-3.1,2.3-5.3,2.3c-2.2,0-4-0.8-5.3-2.3c-1.3-1.5-1.9-3.5-1.9-5.9V1142.1z M1356.4,1142.4
				c0,1.7,0.4,3.1,1.1,4.2c0.7,1.1,1.8,1.7,3.2,1.7c1.4,0,2.5-0.6,3.2-1.7c0.7-1.1,1.1-2.5,1.1-4.2v-0.3c0-1.7-0.4-3.1-1.1-4.2
				c-0.7-1.1-1.8-1.7-3.2-1.7c-1.4,0-2.5,0.6-3.2,1.7c-0.7,1.1-1.1,2.5-1.1,4.2V1142.4z"/>
			<path class="st3" d="M1374.1,1134.1l0.2,2.4c0.5-0.9,1.2-1.5,2-2c0.8-0.5,1.7-0.7,2.8-0.7c1.7,0,3.1,0.5,4,1.5
				c1,1,1.4,2.6,1.4,4.7v10.2h-2.9v-10.1c0-1.4-0.3-2.4-0.8-3s-1.4-0.9-2.6-0.9c-0.8,0-1.6,0.2-2.2,0.6c-0.7,0.4-1.2,1-1.6,1.7v11.8
				h-2.9v-16.1H1374.1z"/>
			<path class="st3" d="M1398.2,1146c0-0.6-0.2-1.2-0.7-1.6c-0.5-0.4-1.4-0.8-2.8-1.1c-2-0.4-3.4-1-4.4-1.7c-1-0.7-1.5-1.7-1.5-3
				c0-1.3,0.6-2.4,1.7-3.4c1.1-0.9,2.6-1.4,4.4-1.4c1.9,0,3.4,0.5,4.5,1.4c1.1,1,1.6,2.1,1.6,3.5l0,0.1h-2.8c0-0.7-0.3-1.3-0.9-1.9
				c-0.6-0.6-1.4-0.8-2.4-0.8c-1,0-1.8,0.2-2.3,0.7c-0.5,0.5-0.8,1-0.8,1.7c0,0.6,0.2,1.1,0.7,1.5c0.4,0.4,1.4,0.7,2.7,1
				c2,0.4,3.6,1,4.5,1.8c1,0.8,1.5,1.8,1.5,3c0,1.4-0.6,2.6-1.7,3.5c-1.2,0.9-2.7,1.3-4.5,1.3c-2.1,0-3.7-0.5-4.9-1.6
				c-1.2-1-1.7-2.3-1.7-3.7l0-0.1h2.8c0.1,1,0.4,1.8,1.2,2.3s1.6,0.7,2.6,0.7c1,0,1.9-0.2,2.5-0.6
				C1398,1147.2,1398.2,1146.7,1398.2,1146z"/>
			<path class="st3" d="M1418.1,1142.3h-7.3v-2.3h7.3V1142.3z"/>
		</g>
		<g class="st2">
			<path class="st0" d="M1429,1150.3v-21.7h6.7c2.8,0,5.1,0.9,6.8,2.6c1.7,1.7,2.6,4,2.6,6.8v3c0,2.8-0.9,5-2.6,6.8
				c-1.7,1.7-4,2.6-6.8,2.6H1429z M1431.9,1130.9v17.1h3.7c2,0,3.6-0.7,4.8-2c1.2-1.3,1.7-3,1.7-5.1v-3c0-2-0.6-3.7-1.7-5.1
				c-1.2-1.3-2.7-2-4.8-2H1431.9z"/>
			<path class="st0" d="M1451.7,1130h-2.9v-3h2.9V1130z M1451.7,1150.3h-2.9v-16.1h2.9V1150.3z"/>
			<path class="st0" d="M1455.6,1142.5c0-2.6,0.6-4.7,1.7-6.3c1.1-1.6,2.7-2.4,4.7-2.4c1,0,1.9,0.2,2.7,0.6c0.8,0.4,1.4,1,1.9,1.8
				l0.4-2.1h2.3v16.2c0,2.1-0.6,3.7-1.8,4.8c-1.2,1.1-2.9,1.7-5.2,1.7c-0.8,0-1.6-0.1-2.5-0.3c-0.9-0.2-1.7-0.5-2.4-0.9l0.7-2.3
				c0.5,0.3,1.2,0.5,1.9,0.7c0.7,0.2,1.5,0.3,2.2,0.3c1.4,0,2.5-0.3,3.1-1c0.7-0.7,1-1.6,1-3v-1.8c-0.5,0.7-1.2,1.2-1.9,1.5
				c-0.7,0.3-1.6,0.5-2.5,0.5c-2,0-3.5-0.7-4.7-2.1c-1.1-1.4-1.7-3.3-1.7-5.6V1142.5z M1458.5,1142.8c0,1.6,0.3,2.9,1,3.9
				c0.7,1,1.7,1.5,3.1,1.5c0.9,0,1.6-0.2,2.2-0.6c0.6-0.4,1.1-1,1.5-1.7v-7.4c-0.4-0.7-0.9-1.2-1.5-1.6c-0.6-0.4-1.3-0.6-2.2-0.6
				c-1.4,0-2.5,0.6-3.1,1.8c-0.7,1.2-1,2.7-1,4.5V1142.8z"/>
			<path class="st0" d="M1476.8,1130h-2.9v-3h2.9V1130z M1476.8,1150.3h-2.9v-16.1h2.9V1150.3z"/>
			<path class="st0" d="M1485.2,1130.2v3.9h3.1v2.2h-3.1v9.8c0,0.8,0.2,1.3,0.5,1.6c0.3,0.3,0.7,0.5,1.2,0.5c0.2,0,0.4,0,0.6-0.1
				c0.2,0,0.4-0.1,0.5-0.1l0.4,2c-0.2,0.2-0.5,0.3-1,0.4c-0.4,0.1-0.8,0.2-1.3,0.2c-1.2,0-2.1-0.4-2.8-1.1c-0.7-0.7-1.1-1.9-1.1-3.4
				v-9.8h-2.6v-2.2h2.6v-3.9H1485.2z"/>
			<path class="st0" d="M1501.8,1150.3c-0.1-0.5-0.2-0.9-0.2-1.3c-0.1-0.4-0.1-0.7-0.1-1.1c-0.5,0.8-1.3,1.4-2.1,1.9
				c-0.9,0.5-1.8,0.8-2.8,0.8c-1.7,0-3-0.4-3.8-1.3c-0.9-0.9-1.3-2-1.3-3.6c0-1.5,0.6-2.7,1.9-3.6c1.2-0.9,2.9-1.3,5.1-1.3h3.2v-1.6
				c0-0.9-0.3-1.7-0.9-2.2c-0.6-0.6-1.4-0.8-2.4-0.8c-0.9,0-1.7,0.2-2.3,0.7c-0.6,0.5-0.9,1.1-0.9,1.7h-2.8l0-0.1
				c-0.1-1.2,0.5-2.2,1.7-3.2c1.2-1,2.7-1.5,4.5-1.5c1.8,0,3.3,0.5,4.4,1.4c1.1,0.9,1.7,2.3,1.7,4v7.8c0,0.6,0,1.1,0.1,1.7
				s0.2,1.1,0.3,1.6H1501.8z M1496.9,1148.1c1.1,0,2-0.3,2.9-0.8c0.9-0.5,1.4-1.2,1.7-1.9v-2.6h-3.3c-1.2,0-2.1,0.3-2.8,0.9
				s-1.1,1.3-1.1,2.1c0,0.7,0.2,1.3,0.7,1.7C1495.4,1147.9,1496,1148.1,1496.9,1148.1z"/>
			<path class="st0" d="M1511.8,1150.3h-2.9V1127h2.9V1150.3z"/>
			<path class="st0" d="M1519.5,1130h-2.9v-3h2.9V1130z M1519.5,1150.3h-2.9v-16.1h2.9V1150.3z"/>
			<path class="st0" d="M1526.8,1148h9.3v2.3h-12.8v-2.1l8.7-11.8h-8.6v-2.3h12.2v2L1526.8,1148z"/>
			<path class="st0" d="M1545.9,1150.6c-2.2,0-4-0.7-5.4-2.2c-1.3-1.5-2-3.4-2-5.8v-0.7c0-2.3,0.7-4.2,2.1-5.7
				c1.4-1.5,3-2.3,4.9-2.3c2.2,0,3.8,0.7,4.9,2c1.1,1.3,1.7,3.1,1.7,5.3v1.8h-10.5l0,0.1c0,1.5,0.4,2.8,1.2,3.8
				c0.8,1,1.8,1.5,3.2,1.5c1,0,1.9-0.1,2.6-0.4c0.8-0.3,1.4-0.7,1.9-1.2l1.1,1.9c-0.6,0.6-1.3,1-2.3,1.4
				C1548.4,1150.4,1547.2,1150.6,1545.9,1150.6z M1545.4,1136.1c-1,0-1.8,0.4-2.5,1.2c-0.7,0.8-1.1,1.9-1.3,3.1l0,0.1h7.4v-0.4
				c0-1.1-0.3-2.1-0.9-2.9C1547.6,1136.5,1546.6,1136.1,1545.4,1136.1z"/>
			<path class="st0" d="M1554.7,1142.5c0-2.6,0.6-4.7,1.7-6.3c1.1-1.6,2.7-2.4,4.7-2.4c0.9,0,1.8,0.2,2.5,0.5
				c0.7,0.3,1.4,0.9,1.9,1.5v-8.9h2.9v23.3h-2.4l-0.3-2c-0.5,0.8-1.2,1.3-1.9,1.7c-0.8,0.4-1.7,0.6-2.7,0.6c-2,0-3.5-0.7-4.6-2.1
				c-1.1-1.4-1.7-3.3-1.7-5.6V1142.5z M1557.6,1142.8c0,1.6,0.3,2.9,1,3.9c0.7,1,1.7,1.5,3.1,1.5c0.9,0,1.6-0.2,2.2-0.6
				c0.6-0.4,1.1-1,1.5-1.7v-7.5c-0.4-0.7-0.9-1.2-1.5-1.6c-0.6-0.4-1.3-0.6-2.2-0.6c-1.4,0-2.5,0.6-3.1,1.7c-0.7,1.2-1,2.7-1,4.5
				V1142.8z"/>
		</g>
		<g class="st2">
			<path class="st3" d="M1076.4,945.3h-51.5v153.9h-36.5V945.3h-51.3v-28.1h139.3V945.3z"/>
			<path class="st3" d="M1240.8,917.2v120.7c0,20.4-6.8,36.2-20.3,47.3c-13.5,11.1-31.2,16.6-53,16.6c-21.8,0-39.3-5.5-52.7-16.6
				c-13.4-11.1-20.1-26.8-20.1-47.3V917.2h36.6v120.7c0,12,3.2,21,9.6,26.9c6.4,6,15.3,8.9,26.5,8.9c11.4,0,20.4-3,26.9-8.9
				s9.8-14.9,9.8-27V917.2H1240.8z"/>
			<path class="st3" d="M1370.9,1051.7c0-7-2.5-12.6-7.4-16.9c-5-4.3-13.6-8.3-26.1-12c-21.7-6.3-38-13.7-49.1-22.3
				c-11.1-8.6-16.6-20.3-16.6-35.3c0-14.9,6.4-27.1,19.1-36.6c12.7-9.5,28.9-14.2,48.7-14.2c20,0,36.3,5.3,48.9,15.9
				c12.6,10.6,18.7,23.7,18.3,39.3l-0.3,0.8h-35.4c0-8.4-2.8-15.2-8.4-20.4c-5.6-5.2-13.5-7.8-23.7-7.8c-9.8,0-17.3,2.2-22.6,6.5
				c-5.3,4.3-8,9.9-8,16.6c0,6.2,2.9,11.2,8.6,15.2c5.7,4,15.6,8.1,29.6,12.6c20.1,5.6,35.3,13,45.6,22.1
				c10.3,9.2,15.5,21.2,15.5,36.1c0,15.6-6.1,27.9-18.4,36.9c-12.3,9-28.5,13.5-48.7,13.5c-19.8,0-37.1-5.1-51.9-15.3
				c-14.8-10.2-21.9-24.5-21.5-42.9l0.3-0.8h35.5c0,10.8,3.3,18.8,9.9,23.8c6.6,5,15.9,7.6,27.7,7.6c9.9,0,17.5-2,22.8-6.1
				C1368.3,1064,1370.9,1058.5,1370.9,1051.7z"/>
			<path class="st3" d="M1533.3,1051.7c0-7-2.5-12.6-7.4-16.9c-5-4.3-13.6-8.3-26.1-12c-21.7-6.3-38-13.7-49.1-22.3
				c-11.1-8.6-16.6-20.3-16.6-35.3c0-14.9,6.4-27.1,19.1-36.6c12.7-9.5,28.9-14.2,48.7-14.2c20,0,36.3,5.3,48.9,15.9
				c12.6,10.6,18.7,23.7,18.3,39.3l-0.3,0.8h-35.4c0-8.4-2.8-15.2-8.4-20.4c-5.6-5.2-13.5-7.8-23.7-7.8c-9.8,0-17.3,2.2-22.6,6.5
				c-5.3,4.3-8,9.9-8,16.6c0,6.2,2.9,11.2,8.6,15.2c5.7,4,15.6,8.1,29.6,12.6c20.1,5.6,35.3,13,45.6,22.1
				c10.3,9.2,15.5,21.2,15.5,36.1c0,15.6-6.1,27.9-18.4,36.9c-12.3,9-28.5,13.5-48.7,13.5c-19.8,0-37.1-5.1-51.9-15.3
				c-14.8-10.2-21.9-24.5-21.5-42.9l0.3-0.8h35.5c0,10.8,3.3,18.8,9.9,23.8c6.6,5,15.9,7.6,27.7,7.6c9.9,0,17.5-2,22.8-6.1
				C1530.7,1064,1533.3,1058.5,1533.3,1051.7z"/>
		</g>
	</g>
</g>
</svg>
