<?xml version="1.0" encoding="utf-8"?>
<!-- Generator: Adobe Illustrator 21.0.0, SVG Export Plug-In . SVG Version: 6.00 Build 0)  -->
<svg version="1.1" id="Layer_1" xmlns="http://www.w3.org/2000/svg" xmlns:xlink="http://www.w3.org/1999/xlink" x="0px" y="0px"
	 viewBox="0 0 1265 370.8" style="enable-background:new 0 0 1265 370.8;" xml:space="preserve">
<style type="text/css">
	.st0{fill:#FBAA19;}
	.st1{fill:#FFFFFF;}
	.st2{enable-background:new    ;}
</style>
<g>
	<path id="Polygon_10" class="st0" d="M1225.9,5c3.4,0,6.5,1.8,8.2,4.7l26.8,46.1c1.7,2.9,1.7,6.5,0,9.5l-26.8,46.1
		c-1.7,2.9-4.8,4.7-8.2,4.7h-53.7c-3.4,0-6.5-1.8-8.2-4.7l-26.8-46.1c-1.7-2.9-1.7-6.5,0-9.5L1164,9.8c1.7-2.9,4.8-4.7,8.2-4.7
		H1225.9z"/>
	<g>
		<path class="st1" d="M1171.7,78.2V42.9h12.1c4.3,0,7.9,1.3,10.6,4.1c2.8,2.8,4.2,6.3,4.2,10.6v5.8c0,4.3-1.4,7.9-4.2,10.6
			s-6.4,4.1-10.6,4.1L1171.7,78.2L1171.7,78.2z M1178.7,48.4v24.3h4.6c2.5,0,4.5-0.9,6-2.6s2.1-3.9,2.1-6.7v-5.9
			c0-2.8-0.7-5-2.1-6.7s-3.4-2.6-6-2.6h-4.6V48.4z"/>
		<path class="st1" d="M1217.7,58.6h8.7v6.1h-8.7v10h-6.7v-10h-8.7v-6.1h8.7V49h6.7V58.6z"/>
	</g>
</g>
<path id="Path_1396" class="st0" d="M278.4,5c18,0,34.7,9.6,43.7,25.2l75.1,130.1c9.1,15.6,9.1,34.9,0,50.4l-75.1,130.1
	c-9.1,15.6-25.7,25.2-43.7,25.2h-150c-18,0-34.7-9.6-43.7-25.2L9.6,210.7c-9.1-15.6-9.1-34.9,0-50.4L84.7,30.2
	C93.8,14.7,110.4,5,128.4,5H278.4z"/>
<g>
	<path class="st1" d="M124.4,253.1v37.4c0,8.7,7,15.7,15.7,15.7l0,0c0.9,0,0,0,0.4,0h0.5c24.7-1.2,49.2-6.4,72.2-15.5h0.2
		c6.8-2.9,13.2-6.8,19.1-11.5l0.7-0.6c-1.5,0-2.9,0-4.5,0c-54.9,0.1-99.5-44.4-99.5-99.3c0-11.7,2-23.4,6-34.3
		c0.2-0.5,0.4-1,0.7-1.5c6.5-16.6,18.8-30.4,34.7-38.7l0.4-0.2c21.2-11.4,47.5-7.3,64.3,10c3,3.1,2.9,8.1-0.2,11.1
		c-3.1,3-8.1,2.9-11.1-0.2l0,0c-11.9-12.3-30.5-15.2-45.6-7.1l-0.5,0.2c-12.9,6.9-22.7,18.2-27.7,31.8c-0.2,0.5-0.4,0.9-0.7,1.4
		c-15.1,43.7,8.2,91.4,51.9,106.5c16.4,5.6,34.1,6,50.7,1.3l0.4-0.1c4.2-1.2,8.5,1.4,9.6,5.5c0.7,2.6,0,5.5-1.8,7.4
		c-10.3,14.4-24.4,25.6-40.7,32.6l-0.7,0.3c-24.6,9.6-50.6,15.3-77,16.5h-1.2h-0.9c-17.3,0-31.4-14.1-31.4-31.4l0,0v-35.2h-9.4
		c-3.8,0-7.5-1.4-10.3-4l-0.6-0.6c-4.3-4.3-5.7-10.7-3.5-16.4v-0.2L97,202.5l0,0c0.3-0.8,0.5-1.7,0.6-2.5c0.2-0.8,0.2-1.7,0.3-2.5
		c0-0.7,0-1.5-0.1-2.1c-0.1-0.6-0.2-1.3-0.4-1.8l0,0c-15.6-52.7,14.5-108,67.2-123.5c20.4-6,42.2-5.4,62.3,1.9
		c0.5,0.2,1,0.4,1.5,0.7c16.6,6.5,30.4,18.8,38.8,34.6l0.2,0.4c11.4,21.2,7.3,47.5-10,64.3c-3.1,3-8.1,2.9-11.1-0.2
		c-3-3.1-2.9-8.1,0.2-11.1c12.3-11.9,15.2-30.5,7.1-45.6l-0.2-0.5c-6.8-12.9-18.2-22.7-31.8-27.7c-0.5-0.2-0.9-0.4-1.4-0.7
		c-43.8-15.1-91.4,8.2-106.5,52c-5.6,16.5-6,34.3-1.2,50.9c0,0.3,0.1,0.5,0.2,0.7c0.3,1.2,0.5,2.2,0.7,3.4c0.2,1.5,0.3,2.9,0.3,4.4
		c0,1.7-0.2,3.4-0.4,5.1c-0.3,1.7-0.7,3.3-1.3,5c0,0.2-0.1,0.4-0.2,0.6l-12.6,31.4h11.1C118.2,239.5,124.4,245.5,124.4,253.1
		L124.4,253.1L124.4,253.1z"/>
	<path class="st1" d="M300.6,163.8c14.9-41,1.4-86.9-33.4-113.3c-3.4-2.6-8.4-1.9-11,1.5c-2.6,3.4-1.9,8.4,1.5,11
		c28.8,21.9,40.4,59.9,28.6,94.1c-0.2,0.4-0.5,0.9-0.6,1.3c-5.1,13.6-14.9,24.9-27.7,31.8l-0.5,0.2c-15.1,8.1-33.7,5.2-45.6-7.1
		c-3-3.1-8-3.2-11.1-0.2c-3.1,3-3.2,8-0.2,11.1c16.7,17.4,43.1,21.5,64.4,10l0.4-0.2c15.8-8.4,28-22.2,34.6-38.9
		C300.2,164.7,300.4,164.3,300.6,163.8z"/>
	<path class="st1" d="M208.6,237.1c41,14.9,86.9,1.4,113.2-33.4c2.6-3.4,1.9-8.4-1.5-11c-3.4-2.6-8.4-1.9-11,1.5
		c-21.9,28.8-59.9,40.3-94,28.5c-0.4-0.2-0.9-0.5-1.3-0.6c-13.6-5.1-24.9-14.9-31.8-27.7l-0.2-0.5c-8.1-15.1-5.2-33.7,7.1-45.6
		c3.1-3,3.2-8,0.2-11.1s-8-3.2-11.1-0.2l0,0c-17.3,16.7-21.5,43-10,64.3l0.2,0.4c8.4,15.9,22.2,28.1,38.9,34.7
		C207.6,236.7,208.1,237,208.6,237.1z"/>
</g>
<g class="st2">
	<path class="st1" d="M454.3,325.9h-10.6v29.3h-4.4v-29.3h-10.6v-3.5h25.5V325.9z"/>
	<path class="st1" d="M471.4,355.2c-0.2-0.8-0.3-1.4-0.3-2c-0.2-0.6-0.2-1.1-0.2-1.7c-0.8,1.2-2,2.1-3.2,2.9
		c-1.4,0.8-2.7,1.2-4.2,1.2c-2.6,0-4.5-0.6-5.7-2c-1.4-1.4-2-3-2-5.4c0-2.3,0.9-4.1,2.9-5.4c1.8-1.4,4.4-2,7.7-2h4.8v-2.4
		c0-1.4-0.5-2.6-1.4-3.3c-0.9-0.9-2.1-1.2-3.6-1.2c-1.4,0-2.6,0.3-3.5,1.1c-0.9,0.8-1.4,1.7-1.4,2.6h-4.2v-0.2
		c-0.2-1.8,0.8-3.3,2.6-4.8c1.8-1.5,4.1-2.3,6.8-2.3s5,0.8,6.6,2.1c1.7,1.4,2.6,3.5,2.6,6v11.8c0,0.9,0,1.7,0.2,2.6
		c0.2,0.8,0.3,1.7,0.5,2.4H471.4z M464,351.9c1.7,0,3-0.5,4.4-1.2s2.1-1.8,2.6-2.9v-3.9h-5c-1.8,0-3.2,0.5-4.2,1.4
		c-1.1,0.9-1.7,2-1.7,3.2c0,1.1,0.3,2,1.1,2.6C461.7,351.6,462.8,351.9,464,351.9z"/>
	<path class="st1" d="M486.7,324.5h-4.5V320h4.4L486.7,324.5L486.7,324.5z M486.7,355.2h-4.5v-24.3h4.4L486.7,355.2L486.7,355.2z"/>
	<path class="st1" d="M498.3,355.2h-4.4V320h4.4V355.2z"/>
	<path class="st1" d="M504.1,342.8c0-3.6,0.9-6.6,2.9-8.9c2-2.3,4.5-3.5,8-3.5c3.3,0,6,1.2,8,3.5c2,2.3,2.9,5.3,2.9,8.9v0.5
		c0,3.6-0.9,6.6-2.9,8.9c-2,2.3-4.7,3.5-8,3.5c-3.3,0-6-1.2-8-3.5c-2-2.3-2.9-5.3-2.9-8.9V342.8z M508.4,343.3
		c0,2.6,0.6,4.7,1.7,6.3c1.1,1.7,2.7,2.6,4.8,2.6c2.1,0,3.8-0.9,4.8-2.6c1.1-1.7,1.7-3.8,1.7-6.3v-0.5c0-2.6-0.6-4.7-1.7-6.3
		c-1.1-1.7-2.7-2.6-4.8-2.6c-2.1,0-3.8,0.9-4.8,2.6c-1.1,1.7-1.7,3.8-1.7,6.3V343.3z"/>
	<path class="st1" d="M542.9,334.7l-2.3-0.2c-1.2,0-2.1,0.3-3,0.9c-0.8,0.6-1.4,1.4-1.8,2.4v17.4h-4.4v-24.3h3.9l0.5,3.6
		c0.8-1.2,1.5-2.3,2.6-3s2.1-1.1,3.5-1.1c0.3,0,0.6,0,0.9,0.2c0.3,0,0.6,0.2,0.8,0.2L542.9,334.7z"/>
	<path class="st1" d="M556.8,355.7c-3.3,0-6-1.1-8.2-3.3c-2-2.3-3-5.1-3-8.8v-1.1c0-3.5,1.1-6.3,3.2-8.6c2.1-2.3,4.5-3.5,7.4-3.5
		c3.3,0,5.7,1.1,7.4,3c1.7,2,2.6,4.7,2.6,8v2.7h-15.9v0.2c0,2.3,0.6,4.2,1.8,5.7s2.7,2.3,4.8,2.3c1.5,0,2.9-0.2,3.9-0.6
		c1.2-0.5,2.1-1.1,2.9-1.8l1.7,2.9c-0.9,0.9-2,1.5-3.5,2.1C560.6,355.4,558.9,355.7,556.8,355.7z M556.2,333.8
		c-1.5,0-2.7,0.6-3.8,1.8c-1.1,1.2-1.7,2.9-2,4.7v0.2h11.2v-0.6c0-1.7-0.5-3.2-1.4-4.4C559.4,334.4,558,333.8,556.2,333.8z"/>
	<path class="st1" d="M570.1,343.4c0-3.9,0.9-7.1,2.6-9.5c1.7-2.4,4.1-3.6,7.1-3.6c1.4,0,2.7,0.3,3.8,0.8c1.1,0.5,2.1,1.4,2.9,2.3
		v-13.4h4.4v35.2h-3.6l-0.5-3c-0.8,1.2-1.8,2-2.9,2.6c-1.2,0.6-2.6,0.9-4.1,0.9c-3,0-5.3-1.1-7-3.2s-2.6-5-2.6-8.5L570.1,343.4
		L570.1,343.4z M574.6,343.9c0,2.4,0.5,4.4,1.5,5.9s2.6,2.3,4.7,2.3c1.4,0,2.4-0.3,3.3-0.9c0.9-0.6,1.7-1.5,2.3-2.6v-11.3
		c-0.6-1.1-1.4-1.8-2.3-2.4c-0.9-0.6-2-0.9-3.3-0.9c-2.1,0-3.8,0.9-4.7,2.6c-1.1,1.8-1.5,4.1-1.5,6.8V343.9z"/>
	<path class="st1" d="M633.7,322.4v22.2c0,3.6-1.2,6.3-3.5,8.2c-2.3,2-5.3,2.9-9.1,2.9c-3.6,0-6.5-0.9-8.8-2.9
		c-2.3-2-3.3-4.7-3.3-8.2v-22.2h4.4v22.2c0,2.4,0.8,4.4,2.1,5.6c1.4,1.2,3.3,2,5.6,2c2.4,0,4.4-0.6,5.9-2c1.5-1.2,2.3-3.2,2.3-5.6
		v-22.2H633.7z"/>
	<path class="st1" d="M644.1,330.7l0.3,3.6c0.8-1.4,1.8-2.3,3-3s2.6-1.1,4.2-1.1c2.6,0,4.7,0.8,6,2.3c1.5,1.5,2.1,3.9,2.1,7.1v15.4
		h-4.4v-15.3c0-2.1-0.5-3.6-1.2-4.5c-0.8-0.9-2.1-1.4-3.9-1.4c-1.2,0-2.4,0.3-3.3,0.9c-1.1,0.6-1.8,1.5-2.4,2.6v17.8h-4.4v-24.3
		L644.1,330.7L644.1,330.7z"/>
	<path class="st1" d="M671.2,324.5h-4.4V320h4.4V324.5z M671.2,355.2h-4.4v-24.3h4.4V355.2z"/>
	<path class="st1" d="M679.8,355.2v-21.2H676v-3.3h3.8v-3c0-2.6,0.8-4.7,2.1-6c1.4-1.4,3.3-2.1,5.7-2.1c0.5,0,1.1,0,1.5,0.2
		c0.5,0.2,1.1,0.2,1.7,0.3l-0.6,3.3c-0.3,0-0.6-0.2-0.9-0.2c-0.5,0-0.8,0-1.2,0c-1.4,0-2.3,0.5-2.9,1.2c-0.6,0.8-0.9,2-0.9,3.3v3
		h5.1v3.3h-5.1v21.2L679.8,355.2L679.8,355.2z"/>
	<path class="st1" d="M698.7,324.5h-4.4V320h4.4V324.5z M698.7,355.2h-4.4v-24.3h4.4V355.2z"/>
	<path class="st1" d="M715.8,355.7c-3.3,0-6-1.1-8.2-3.3c-2-2.3-3-5.1-3-8.8v-1.1c0-3.5,1.1-6.3,3.2-8.6c2.1-2.3,4.5-3.5,7.4-3.5
		c3.3,0,5.7,1.1,7.4,3c1.7,2,2.6,4.7,2.6,8v2.7h-15.9v0.2c0,2.3,0.6,4.2,1.8,5.7c1.2,1.5,2.7,2.3,4.8,2.3c1.5,0,2.9-0.2,3.9-0.6
		c1.2-0.5,2.1-1.1,2.9-1.8l1.7,2.9c-0.9,0.9-2,1.5-3.5,2.1C719.4,355.4,717.7,355.7,715.8,355.7z M715,333.8c-1.5,0-2.7,0.6-3.8,1.8
		c-1.1,1.2-1.7,2.9-2,4.7v0.2h11.2v-0.6c0-1.7-0.5-3.2-1.4-4.4C718.2,334.4,716.8,333.8,715,333.8z"/>
	<path class="st1" d="M728.9,343.4c0-3.9,0.9-7.1,2.6-9.5c1.7-2.4,4.1-3.6,7.1-3.6c1.4,0,2.7,0.3,3.8,0.8c1.1,0.5,2.1,1.4,2.9,2.3
		v-13.4h4.4v35.2H746l-0.5-3c-0.8,1.2-1.8,2-2.9,2.6c-1.2,0.6-2.6,0.9-4.1,0.9c-3,0-5.3-1.1-7-3.2c-1.7-2.1-2.6-5-2.6-8.5
		L728.9,343.4L728.9,343.4z M733.5,343.9c0,2.4,0.5,4.4,1.5,5.9s2.6,2.3,4.7,2.3c1.4,0,2.4-0.3,3.3-0.9c0.9-0.6,1.7-1.5,2.3-2.6
		v-11.3c-0.6-1.1-1.4-1.8-2.3-2.4c-0.9-0.6-2-0.9-3.3-0.9c-2.1,0-3.8,0.9-4.7,2.6c-1.1,1.8-1.5,4.1-1.5,6.8V343.9z"/>
	<path class="st1" d="M786.5,346.9c0-1.5-0.6-2.7-1.7-3.8c-1.1-1.1-3.2-1.8-6-2.6c-3.5-0.8-6.2-2.1-8.2-3.6c-2-1.7-2.9-3.6-2.9-6
		c0-2.6,1.1-4.7,3.2-6.3c2.1-1.7,4.8-2.6,8.2-2.6c3.6,0,6.5,1.1,8.6,3c2.1,2,3.2,4.2,3,6.8v0.2h-4.2c0-2-0.6-3.5-2-4.7
		c-1.2-1.2-3-1.8-5.4-1.8c-2.3,0-3.9,0.5-5.1,1.5c-1.2,1.1-1.8,2.3-1.8,3.9c0,1.4,0.6,2.6,2,3.6c1.2,0.9,3.3,1.8,6.2,2.6
		c3.5,0.9,6,2.1,7.9,3.8c1.8,1.7,2.7,3.8,2.7,6.2c0,2.7-1.1,4.8-3.2,6.3c-2.1,1.5-5,2.4-8.5,2.4c-3.3,0-6.2-0.9-8.8-2.7
		c-2.6-1.8-3.8-4.2-3.6-7.1v-0.2h4.2c0,2.1,0.8,3.8,2.3,4.8c1.5,1.1,3.5,1.7,5.7,1.7c2.3,0,4.1-0.5,5.3-1.4
		C785.8,349.8,786.5,348.6,786.5,346.9z"/>
	<path class="st1" d="M804,346.2l0.8,3h0.2l6-18.4h5l-10.3,28.1c-0.6,1.7-1.5,3-2.7,4.2c-1.2,1.2-2.7,1.8-4.7,1.8
		c-0.3,0-0.8,0-1.4-0.2c-0.6-0.2-1.1-0.2-1.4-0.3l0.5-3.5c-0.2,0,0.2,0,0.8,0c0.6,0,1.1,0,1.2,0c0.9,0,1.7-0.5,2.3-1.2
		c0.6-0.9,1.1-1.8,1.5-2.7l1.1-2.6l-9.1-23.9h5L804,346.2z"/>
	<path class="st1" d="M834,348.7c0-0.9-0.3-1.8-1.1-2.4s-2.1-1.2-4.2-1.7c-3-0.6-5.1-1.5-6.6-2.6c-1.5-1.1-2.3-2.6-2.3-4.5
		s0.9-3.6,2.6-5.1c1.7-1.4,3.9-2.1,6.6-2.1c2.9,0,5.1,0.8,6.8,2.1c1.7,1.5,2.4,3.2,2.4,5.3v0.2H834c0-1.1-0.5-2-1.4-2.9
		c-0.9-0.9-2.1-1.2-3.6-1.2s-2.7,0.3-3.5,1.1s-1.2,1.5-1.2,2.6c0,0.9,0.3,1.7,1.1,2.3c0.6,0.6,2.1,1.1,4.1,1.5
		c3,0.6,5.4,1.5,6.8,2.7c1.5,1.2,2.3,2.7,2.3,4.5c0,2.1-0.9,3.9-2.6,5.3c-1.8,1.4-4.1,2-6.8,2c-3.2,0-5.6-0.8-7.4-2.4
		c-1.8-1.5-2.6-3.5-2.6-5.6v-0.2h4.2c0.2,1.5,0.6,2.7,1.8,3.5c1.1,0.8,2.4,1.1,3.9,1.1s2.9-0.3,3.8-0.9
		C833.5,350.5,834,349.8,834,348.7z"/>
	<path class="st1" d="M849.7,324.8v5.9h4.7v3.3h-4.7v14.8c0,1.2,0.3,2,0.8,2.4c0.5,0.5,1.1,0.8,1.8,0.8c0.3,0,0.6,0,0.9-0.2
		c0.3,0,0.6-0.2,0.8-0.2l0.6,3c-0.3,0.3-0.8,0.5-1.5,0.6c-0.6,0.2-1.2,0.3-2,0.3c-1.8,0-3.2-0.6-4.2-1.7c-1.1-1.1-1.7-2.9-1.7-5.1
		v-14.8h-3.9v-3.3h3.9v-5.9H849.7z"/>
	<path class="st1" d="M869.9,355.7c-3.3,0-6-1.1-8.2-3.3c-2-2.3-3-5.1-3-8.8v-1.1c0-3.5,1.1-6.3,3.2-8.6c2.1-2.3,4.5-3.5,7.4-3.5
		c3.3,0,5.7,1.1,7.4,3c1.7,2,2.6,4.7,2.6,8v2.7h-15.9v0.2c0,2.3,0.6,4.2,1.8,5.7c1.2,1.5,2.7,2.3,4.8,2.3c1.5,0,2.9-0.2,3.9-0.6
		c1.2-0.5,2.1-1.1,2.9-1.8l1.7,2.9c-0.9,0.9-2,1.5-3.5,2.1C873.7,355.4,872,355.7,869.9,355.7z M869.3,333.8c-1.5,0-2.7,0.6-3.8,1.8
		c-1.1,1.2-1.7,2.9-2,4.7v0.2h11.2v-0.6c0-1.7-0.5-3.2-1.4-4.4C872.5,334.4,871.1,333.8,869.3,333.8z"/>
	<path class="st1" d="M888.2,330.7l0.3,3.2c0.8-1.2,1.8-2.1,3-2.7s2.7-0.9,4.2-0.9c1.7,0,3,0.3,4.2,1.1s2,1.8,2.6,3.3
		c0.8-1.4,1.8-2.4,3-3.3c1.2-0.8,2.7-1.2,4.4-1.2c2.4,0,4.4,0.9,5.9,2.6s2.1,4.2,2.1,7.7v14.7h-4.4v-14.7c0-2.4-0.5-4.1-1.2-5.1
		c-0.8-1.1-2.1-1.5-3.6-1.5s-2.7,0.5-3.6,1.5c-0.9,1.1-1.5,2.4-1.7,3.9v0.2v15.4h-4.5v-14.7c0-2.3-0.5-3.9-1.2-5
		c-0.9-1.1-2.1-1.7-3.6-1.7c-1.4,0-2.4,0.3-3.3,0.9c-0.9,0.6-1.5,1.4-2,2.4v18.1h-4.4v-24.3h3.8L888.2,330.7L888.2,330.7z"/>
	<path class="st1" d="M954.9,346.9c0-1.5-0.6-2.7-1.7-3.8c-1.1-1.1-3.2-1.8-6-2.6c-3.5-0.8-6.2-2.1-8.2-3.6c-2-1.7-2.9-3.6-2.9-6
		c0-2.6,1.1-4.7,3.2-6.3c2.1-1.7,4.8-2.6,8.2-2.6c3.6,0,6.5,1.1,8.6,3c2.1,2,3.2,4.2,3,6.8v0.2h-4.2c0-2-0.6-3.5-2-4.7
		c-1.2-1.2-3-1.8-5.4-1.8c-2.3,0-3.9,0.5-5.1,1.5c-1.2,1.1-1.8,2.3-1.8,3.9c0,1.4,0.6,2.6,2,3.6c1.4,1.1,3.3,1.8,6.2,2.6
		c3.5,0.9,6,2.1,7.9,3.8c1.8,1.7,2.7,3.8,2.7,6.2c0,2.7-1.1,4.8-3.2,6.3c-2.1,1.5-5,2.4-8.5,2.4c-3.3,0-6.2-0.9-8.8-2.7
		c-2.6-1.8-3.8-4.2-3.6-7.1v-0.2h4.2c0,2.1,0.8,3.8,2.3,4.8c1.5,1.1,3.5,1.7,5.7,1.7s4.1-0.5,5.3-1.4
		C954.1,349.8,954.9,348.6,954.9,346.9z"/>
	<path class="st1" d="M963.9,342.8c0-3.6,0.9-6.6,2.9-8.9c2-2.3,4.5-3.5,8-3.5c3.3,0,6,1.2,8,3.5c2,2.3,2.9,5.3,2.9,8.9v0.5
		c0,3.6-0.9,6.6-2.9,8.9c-2,2.3-4.7,3.5-8,3.5c-3.3,0-6-1.2-8-3.5c-2-2.3-2.9-5.3-2.9-8.9V342.8z M968.3,343.3
		c0,2.6,0.6,4.7,1.7,6.3c1.1,1.7,2.7,2.6,4.8,2.6c2.1,0,3.8-0.9,4.8-2.6c1.1-1.7,1.7-3.8,1.7-6.3v-0.5c0-2.6-0.6-4.7-1.7-6.3
		c-1.1-1.7-2.7-2.6-4.8-2.6c-2.1,0-3.8,0.9-4.8,2.6c-1.1,1.7-1.7,3.8-1.7,6.3V343.3z"/>
	<path class="st1" d="M996,355.2h-4.4V320h4.4V355.2z"/>
	<path class="st1" d="M1018.3,351.6c-0.8,1.4-1.8,2.3-3,3s-2.6,1.1-4.2,1.1c-2.7,0-4.7-0.9-6.2-2.6s-2.3-4.4-2.3-8v-14.4h4.4v14.4
		c0,2.6,0.5,4.4,1.2,5.4c0.8,0.9,2,1.5,3.6,1.5c1.5,0,2.9-0.3,3.9-0.9c1.1-0.6,1.8-1.5,2.3-2.7v-17.5h4.4v24.3h-3.9L1018.3,351.6z"
		/>
	<path class="st1" d="M1034.8,324.8v5.9h4.7v3.3h-4.7v14.8c0,1.2,0.3,2,0.8,2.4c0.5,0.5,1.1,0.8,1.8,0.8c0.3,0,0.6,0,0.9-0.2
		c0.3,0,0.6-0.2,0.8-0.2l0.6,3c-0.3,0.3-0.8,0.5-1.5,0.6c-0.6,0.2-1.2,0.3-2,0.3c-1.8,0-3.2-0.6-4.4-1.7c-1.1-1.1-1.7-2.9-1.7-5.1
		v-14.8h-3.9v-3.3h3.9v-5.9H1034.8z"/>
	<path class="st1" d="M1049.8,324.5h-4.4V320h4.4V324.5z M1049.8,355.2h-4.4v-24.3h4.4V355.2z"/>
	<path class="st1" d="M1055.5,342.8c0-3.6,0.9-6.6,2.9-8.9c2-2.3,4.5-3.5,8-3.5c3.3,0,6,1.2,8,3.5c2,2.3,2.9,5.3,2.9,8.9v0.5
		c0,3.6-0.9,6.6-2.9,8.9c-2,2.3-4.7,3.5-8,3.5c-3.3,0-6-1.2-8-3.5c-2-2.3-2.9-5.3-2.9-8.9V342.8z M1060,343.3c0,2.6,0.6,4.7,1.7,6.3
		c1.1,1.7,2.7,2.6,4.8,2.6c2.1,0,3.8-0.9,4.8-2.6c1.1-1.7,1.7-3.8,1.7-6.3v-0.5c0-2.6-0.6-4.7-1.7-6.3c-1.1-1.7-2.7-2.6-4.8-2.6
		c-2.1,0-3.8,0.9-4.8,2.6c-1.1,1.7-1.7,3.8-1.7,6.3V343.3z"/>
	<path class="st1" d="M1086.8,330.7l0.3,3.6c0.8-1.4,1.8-2.3,3-3c1.2-0.8,2.6-1.1,4.2-1.1c2.6,0,4.7,0.8,6,2.3
		c1.5,1.5,2.1,3.9,2.1,7.1v15.4h-4.4v-15.3c0-2.1-0.5-3.6-1.2-4.5c-0.8-0.9-2.1-1.4-3.9-1.4c-1.2,0-2.4,0.3-3.3,0.9
		c-1.1,0.6-1.8,1.5-2.4,2.6v17.8h-4.4v-24.3L1086.8,330.7L1086.8,330.7z"/>
	<path class="st1" d="M1123.2,348.7c0-0.9-0.3-1.8-1.1-2.4s-2.1-1.2-4.2-1.7c-3-0.6-5.1-1.5-6.6-2.6c-1.5-1.1-2.3-2.6-2.3-4.5
		s0.9-3.6,2.6-5.1c1.7-1.4,3.9-2.1,6.6-2.1c2.9,0,5.1,0.8,6.8,2.1c1.7,1.5,2.4,3.2,2.4,5.3v0.2h-4.2c0-1.1-0.5-2-1.4-2.9
		s-2.1-1.2-3.6-1.2s-2.7,0.3-3.5,1.1s-1.2,1.5-1.2,2.6c0,0.9,0.3,1.7,1.1,2.3c0.6,0.6,2.1,1.1,4.1,1.5c3,0.6,5.4,1.5,6.8,2.7
		c1.5,1.2,2.3,2.7,2.3,4.5c0,2.1-0.9,3.9-2.6,5.3c-1.8,1.4-4.1,2-6.8,2c-3.2,0-5.6-0.8-7.4-2.4c-1.8-1.5-2.6-3.5-2.6-5.6v-0.2h4.2
		c0.2,1.5,0.6,2.7,1.8,3.5s2.4,1.1,3.9,1.1s2.9-0.3,3.8-0.9C1122.9,350.5,1123.2,349.8,1123.2,348.7z"/>
</g>
<g class="st2">
	<path class="st1" d="M582.4,116.1h-56.9v170.1h-40.3V116.1h-56.7V85h154V116.1z"/>
	<path class="st1" d="M764.2,85v133.4c0,22.6-7.5,40-22.4,52.3c-14.9,12.3-34.5,18.3-58.6,18.3s-43.4-6.1-58.3-18.3
		c-14.8-12.3-22.2-29.6-22.2-52.3V85h40.5v133.4c0,13.3,3.5,23.2,10.6,29.7c7.1,6.6,16.9,9.8,29.3,9.8c12.6,0,22.5-3.3,29.7-9.8
		c7.2-6.5,10.8-16.5,10.8-29.8V85H764.2z"/>
	<path class="st1" d="M908,233.7c0-7.7-2.8-13.9-8.2-18.7c-5.5-4.8-15-9.2-28.9-13.3c-24-7-42-15.1-54.3-24.7
		c-12.3-9.5-18.3-22.4-18.3-39c0-16.5,7.1-30,21.1-40.5c14-10.5,31.9-15.7,53.8-15.7c22.1,0,40.1,5.9,54.1,17.6
		c13.9,11.7,20.7,26.2,20.2,43.4l-0.3,0.9h-39.1c0-9.3-3.1-16.8-9.3-22.6c-6.2-5.7-14.9-8.6-26.2-8.6c-10.8,0-19.1,2.4-25,7.2
		c-5.9,4.8-8.8,10.9-8.8,18.3c0,6.9,3.2,12.4,9.5,16.8c6.3,4.4,17.2,9,32.7,13.9c22.2,6.2,39,14.4,50.4,24.4
		c11.4,10.2,17.1,23.4,17.1,39.9c0,17.2-6.7,30.8-20.3,40.8c-13.6,9.9-31.5,14.9-53.8,14.9c-21.9,0-41-5.6-57.4-16.9
		c-16.4-11.3-24.2-27.1-23.8-47.4l0.3-0.9h39.2c0,11.9,3.6,20.8,10.9,26.3c7.3,5.5,17.6,8.4,30.6,8.4c10.9,0,19.3-2.2,25.2-6.7
		C905.1,247.3,908,241.2,908,233.7z"/>
	<path class="st1" d="M1087.5,233.7c0-7.7-2.8-13.9-8.2-18.7c-5.5-4.8-15-9.2-28.9-13.3c-24-7-42-15.1-54.3-24.7
		c-12.3-9.5-18.3-22.4-18.3-39c0-16.5,7.1-30,21.1-40.5c14-10.5,31.9-15.7,53.8-15.7c22.1,0,40.1,5.9,54.1,17.6
		c13.9,11.7,20.7,26.2,20.2,43.4l-0.3,0.9h-39.1c0-9.3-3.1-16.8-9.3-22.6c-6.2-5.7-14.9-8.6-26.2-8.6c-10.8,0-19.1,2.4-25,7.2
		c-5.9,4.8-8.8,10.9-8.8,18.3c0,6.9,3.2,12.4,9.5,16.8c6.3,4.4,17.2,9,32.7,13.9c22.2,6.2,39,14.4,50.4,24.4
		c11.4,10.2,17.1,23.4,17.1,39.9c0,17.2-6.7,30.8-20.3,40.8c-13.6,9.9-31.5,14.9-53.8,14.9c-21.9,0-41-5.6-57.4-16.9
		c-16.4-11.3-24.2-27.1-23.8-47.4l0.3-0.9h39.2c0,11.9,3.6,20.8,10.9,26.3c7.3,5.5,17.6,8.4,30.6,8.4c10.9,0,19.3-2.2,25.2-6.7
		C1084.6,247.3,1087.5,241.2,1087.5,233.7z"/>
</g>
</svg>
