<svg width="169" height="169" viewBox="0 0 169 169" fill="none" xmlns="http://www.w3.org/2000/svg">
<g clip-path="url(#clip0)">
<g clip-path="url(#clip1)">
<path d="M93.864 170C68.1228 170 47.2559 166.221 47.2559 161.56C47.2559 158.754 54.821 156.267 66.4601 154.733C66.459 154.747 66.4573 154.763 66.4562 154.778C66.3338 156.167 66.8852 157.417 68.0948 158.494C70.1663 160.338 75.0169 161.758 80.168 161.758C81.9835 161.758 83.8365 161.581 85.6183 161.184C87.8033 160.698 89.6832 159.928 91.223 158.897C91.227 158.974 91.2337 159.051 91.2427 159.128C91.3118 159.752 91.5443 160.351 91.8627 160.854C92.0159 161.115 92.204 161.332 92.3893 161.554C92.4837 161.661 92.587 161.754 92.6864 161.854C92.7863 161.952 92.8858 162.052 92.9964 162.136C93.86 162.848 94.7922 163.308 95.7323 163.694C96.6745 164.072 97.6342 164.356 98.6007 164.588C100.537 165.035 102.504 165.258 104.478 165.293C104.597 165.295 104.717 165.296 104.837 165.296C105.704 165.296 106.573 165.258 107.44 165.182C108.425 165.079 109.41 164.946 110.385 164.723C112.329 164.288 114.256 163.584 115.976 162.443C116.829 161.864 117.631 161.189 118.317 160.395C118.995 159.593 119.554 158.689 119.979 157.728C120.34 156.876 120.608 155.977 120.773 155.062H123.608C133.909 156.61 140.472 158.947 140.472 161.56C140.472 166.221 119.605 170 93.864 170Z" fill="#7991C5"/>
<path d="M77.5992 70.7846L73.2107 84.7113C66.4817 86.6158 49.64 83.5882 38.025 75.5659C33.0155 72.1091 28.9789 67.7221 27.1425 62.4034C21.7694 46.8422 35.6614 45.8953 41.0096 49.2752C45.17 51.9038 48.2389 55.4001 51.9883 58.8548C57.3713 63.8139 64.1604 68.687 77.5992 70.7846Z" fill="white"/>
<path d="M38.9501 75.0782C38.8142 74.9864 38.6795 74.8948 38.5459 74.802C33.1899 71.1059 29.6468 66.8326 28.0148 62.1007C26.5705 57.9185 26.4749 54.5658 27.7071 52.2324C27.8148 53.7853 28.1882 55.5628 28.8868 57.5871C28.9149 57.6688 28.9451 57.7514 28.9774 57.8359C29.9071 60.2676 32.186 61.609 34.5173 61.609C35.9947 61.609 37.4924 61.0711 38.6823 59.9306C39.1226 59.508 39.4567 59.2425 39.6004 59.2425C39.6498 59.2425 39.6768 59.2746 39.6768 59.3426C39.7088 64.6568 38.0247 68.8333 39.7695 70.7503C40.4753 71.5256 41.2345 72.2475 42.0364 72.9171C42.0246 72.9266 42.0123 72.9368 41.9999 72.9468C41.9999 72.9458 41.9993 72.9452 41.9993 72.9446C41.6422 73.2327 41.2828 73.509 40.9218 73.7723C40.838 73.833 40.7544 73.8932 40.6707 73.9529C40.5618 74.0306 40.4528 74.1071 40.3433 74.1818C40.2299 74.2607 40.126 74.3461 40.0316 74.4385C39.8907 74.5273 39.7481 74.6146 39.6038 74.7012C39.3893 74.8295 39.1708 74.9555 38.9501 75.0782Z" fill="#B9AFBE"/>
<path d="M77.5987 70.7843L75.5771 77.1996L73.2107 84.711C72.0478 85.0407 70.5821 85.2219 68.8947 85.2567C60.8164 85.4205 47.6324 82.2016 38.0244 75.5658C45.9 71.6475 50.0308 63.9229 51.9883 58.854C54.4979 61.1681 57.3168 63.4615 60.9724 65.4679C64.2839 67.2808 68.2854 68.855 73.3691 69.9888C74.7005 70.2858 76.1089 70.5515 77.5987 70.7843Z" fill="#4A83FF"/>
<path d="M39.6035 74.7007C39.7478 74.6141 39.8904 74.5269 40.0314 74.438C40.0314 74.438 40.0309 74.438 40.0309 74.4386C39.8899 74.5269 39.7473 74.6147 39.6035 74.7007Z" fill="#8C7B94"/>
<path d="M68.088 84.3371C62.5895 84.2999 54.7756 82.7751 47.2806 79.5602C47.9505 79.0285 48.6306 78.4545 49.3078 77.8379C49.4819 77.6793 49.6559 77.5178 49.8295 77.3535C53.4363 78.7005 57.0852 79.6857 60.4741 80.3102C61.3372 80.4694 62.1992 80.5465 63.0494 80.5465C65.6718 80.5465 68.1931 79.8151 70.3645 78.5019C70.3477 78.5716 70.3309 78.6413 70.3146 78.7106C70.2787 78.7325 70.2461 78.7618 70.2197 78.7978C69.4246 79.8815 68.9736 81.0743 68.617 82.289C68.4115 82.9643 68.2397 83.6484 68.088 84.3371ZM39.4348 75.4005C39.2719 75.2936 39.1102 75.1862 38.9507 75.0787C39.1714 74.9554 39.3893 74.83 39.6038 74.7011C39.7475 74.6151 39.8902 74.5272 40.0311 74.439C39.7475 74.7152 39.5493 75.0466 39.4348 75.4005Z" fill="#435EBE"/>
<path d="M68.2308 86.2054C61.7651 86.206 52.9478 84.1783 45.3922 80.7478C42.4958 79.434 39.8391 77.9458 37.497 76.3243C31.8113 72.4004 28.0335 67.8181 26.2699 62.7054C23.505 54.6972 25.772 50.753 28.161 48.8546C31.8475 45.9249 38.0355 46.3019 41.5019 48.4923C44.628 50.4688 47.105 52.8741 49.7279 55.4208C50.6607 56.3272 51.626 57.264 52.6271 58.1856C54.5404 59.9489 56.2463 61.3331 57.9961 62.5416C63.4077 66.2843 69.6813 68.6132 77.741 69.8707C78.2442 69.9495 78.5896 70.4226 78.5109 70.9274C78.4323 71.4315 77.9645 71.7792 77.4569 71.6987C69.1124 70.3968 62.5957 67.9706 56.9482 64.0641C55.1255 62.8061 53.3555 61.3702 51.3777 59.5472C50.3591 58.6098 49.3848 57.664 48.4431 56.7492C45.8909 54.2712 43.4807 51.9312 40.5164 50.057C37.6457 48.2424 32.3359 47.8976 29.3082 50.304C26.5531 52.4933 26.1059 56.5725 28.0148 62.1005C29.6468 66.8324 33.1899 71.1057 38.5459 74.8017C40.7977 76.3608 43.3572 77.7945 46.1542 79.0626C56.6382 83.8226 68.0163 85.2209 72.9601 83.821C73.4509 83.682 73.9608 83.9684 74.0994 84.4601C74.2376 84.9513 73.9523 85.4623 73.4615 85.6012C72.0166 86.0102 70.2366 86.2054 68.2308 86.2054Z" fill="#371A45"/>
<path d="M57.9433 64.4076C56.0396 71.4643 51.1278 76.6092 46.7781 79.9525C46.0626 80.5022 45.0991 80.6017 44.2865 80.2102C42.9977 79.589 41.7321 78.9222 40.5023 78.2104C38.9934 77.3367 38.9103 75.175 40.3445 74.1819C41.9948 73.0397 43.6413 71.6511 45.1546 69.966C48.1224 66.661 49.9963 63.5084 51.1693 60.9782C51.8314 59.5502 53.6559 59.1316 54.8643 60.1376C55.56 60.7171 56.2827 61.2899 57.0409 61.8532C57.8337 62.4428 58.201 63.4528 57.9433 64.4076Z" fill="white"/>
<path d="M47.2809 79.5597H47.2803C47.9502 79.028 48.6308 78.4541 49.308 77.8374C48.6308 78.4541 47.9508 79.028 47.2809 79.5597Z" fill="#3F4694"/>
<path d="M45.3227 80.4473C44.97 80.4473 44.6152 80.3692 44.2861 80.2105C44.0109 80.0771 43.7364 79.9421 43.4629 79.8048C43.7364 79.9415 44.0109 80.0765 44.2867 80.2099C44.6162 80.3686 44.9706 80.4468 45.3232 80.4468C45.8398 80.4468 46.3525 80.2791 46.7782 79.9522C46.945 79.8239 47.1123 79.6934 47.2803 79.5601H47.2808C47.1123 79.6934 46.945 79.8245 46.7782 79.9522C46.3531 80.2797 45.8398 80.4473 45.3227 80.4473Z" fill="#371A45"/>
<path d="M40.0317 74.4381C40.1261 74.3459 40.2299 74.2604 40.3434 74.1816C40.4529 74.1068 40.5619 74.0302 40.6707 73.9526C40.5623 74.0302 40.4534 74.1068 40.3445 74.1816C40.2316 74.2598 40.1283 74.3453 40.034 74.4365C40.0334 74.437 40.0329 74.4375 40.0317 74.4381Z" fill="#8C7B94"/>
<path d="M40.0312 74.4385C40.0312 74.4379 40.0319 74.4379 40.0319 74.4379C40.0331 74.4372 40.0338 74.4366 40.0344 74.436V74.4366C40.0331 74.4372 40.0325 74.4379 40.0312 74.4385Z" fill="#6E5978"/>
<path d="M39.4346 75.4002C39.5491 75.0463 39.7473 74.7149 40.0309 74.4387C40.032 74.4381 40.0326 74.4375 40.0337 74.437C39.7484 74.7138 39.5497 75.0457 39.4346 75.4002Z" fill="#3F4694"/>
<path d="M39.3521 75.7425C39.3711 75.6272 39.3986 75.5123 39.4352 75.4004C39.3992 75.5123 39.3711 75.6272 39.3521 75.7425Z" fill="#371A45"/>
<path d="M40.9219 73.7719C41.2829 73.5086 41.6423 73.2324 41.9995 72.9443C41.9995 72.9448 42 72.9454 42 72.9466C41.6423 73.234 41.2823 73.5086 40.9219 73.7719Z" fill="#8C7B94"/>
<path d="M45.3231 80.4469C44.9704 80.4469 44.6161 80.3688 44.2865 80.2101C44.0108 80.0767 43.7362 79.9416 43.4627 79.805C42.458 79.3003 41.4687 78.7685 40.5017 78.2093C39.5864 77.6793 39.1961 76.6733 39.3517 75.7426C39.3707 75.6273 39.3988 75.5126 39.4347 75.4006C39.5498 75.0461 39.7487 74.7141 40.0339 74.4373V74.4367C40.1283 74.3457 40.2315 74.2601 40.3444 74.1819C40.4534 74.1071 40.5623 74.0306 40.6707 73.9529C40.7544 73.8932 40.838 73.833 40.9217 73.7723C41.2822 73.509 41.6422 73.2344 41.9998 72.9469C42.1931 73.375 42.517 73.756 42.9691 74.0187C44.1994 74.7305 45.4663 75.3949 46.7533 76.0173C47.0835 76.176 47.4384 76.2541 47.791 76.2541C48.3082 76.2541 48.8204 76.0864 49.2455 75.7595C51.6859 73.8848 54.3045 71.4395 56.4675 68.4092C54.6643 72.2453 52.0082 75.3798 49.3078 77.838C48.6306 78.4546 47.95 79.0285 47.2801 79.5602C47.1122 79.6936 46.9448 79.8241 46.7781 79.9524C46.3524 80.2792 45.8397 80.4469 45.3231 80.4469Z" fill="#B9AFBE"/>
<path d="M57.943 64.4074H57.9458H57.943ZM53.3439 60.51C53.2367 60.51 53.1283 60.5218 53.0204 60.546C52.5712 60.6473 52.2018 60.9466 52.0063 61.3674C50.511 64.5925 48.4366 67.6933 45.8406 70.5847C44.3957 72.1933 42.7229 73.6596 40.8687 74.943C40.4498 75.2328 40.2212 75.6936 40.242 76.2067C40.2622 76.717 40.5256 77.1553 40.9636 77.4091C42.1462 78.0938 43.399 78.7555 44.6866 79.3761C45.1886 79.6181 45.7743 79.5572 46.2157 79.2186C50.1156 76.2208 55.1611 71.176 57.0518 64.1661V64.1666C57.209 63.5831 56.9889 62.9665 56.4903 62.5963C55.7507 62.046 55.0258 61.4749 54.2738 60.8487C54.0077 60.627 53.6803 60.51 53.3439 60.51ZM45.3263 81.374C44.8383 81.374 44.3464 81.2649 43.8858 81.0432C42.5567 80.4024 41.2629 79.7187 40.0404 79.0109C39.0571 78.4415 38.4434 77.4214 38.3973 76.281C38.3513 75.1382 38.883 74.0692 39.8192 73.421C41.5555 72.2192 43.1194 70.8486 44.4682 69.3469C46.9412 66.5933 48.9145 63.6462 50.3319 60.5881C50.7703 59.6429 51.6026 58.9695 52.6156 58.741C53.6231 58.5132 54.6585 58.7635 55.4542 59.4263C56.1791 60.03 56.8777 60.5809 57.5904 61.1103C58.7027 61.9368 59.1907 63.326 58.8342 64.6488C56.8086 72.1579 51.465 77.5148 47.3393 80.6859C46.7475 81.1411 46.0405 81.374 45.3263 81.374Z" fill="#371A45"/>
<path d="M131.99 115.278C126.682 122.213 112.858 119.809 112.858 119.809L112.737 72.9454L112.712 63.48C112.712 63.48 120.598 63.6899 126.59 66.1705C129.477 67.3639 131.924 69.0856 132.839 71.5641C136.025 80.1743 136.352 109.578 131.99 115.278Z" fill="white"/>
<path d="M131.65 114.105C131.779 113.387 131.879 112.624 131.948 111.814C132.186 111.716 132.419 111.609 132.646 111.489C132.353 112.548 132.022 113.434 131.65 114.105Z" fill="#B9AFBE"/>
<path d="M118.298 121.148C115.243 121.148 112.932 120.761 112.699 120.721C112.197 120.634 111.861 120.155 111.948 119.652C112.035 119.149 112.514 118.811 113.014 118.898C113.148 118.921 126.354 121.121 131.258 114.715C135.299 109.435 135.211 80.6382 131.973 71.8862C129.403 64.9381 112.856 64.4092 112.688 64.4046C112.179 64.3906 111.777 63.9658 111.791 63.455C111.804 62.9441 112.233 62.5502 112.738 62.5552C113.47 62.5749 130.702 63.128 133.705 71.2437C135.247 75.414 136.236 84.768 136.168 94.5193C136.131 99.6241 135.723 111.92 132.722 115.841C129.35 120.247 122.958 121.148 118.298 121.148Z" fill="#371A45"/>
<path d="M134.21 95.438L124.788 96.1463C123.947 96.2099 123.254 96.8325 123.104 97.6641C122.554 100.709 121.649 107.809 124.605 110.153C127.059 112.099 131.042 111.871 133.378 109.891C135.989 107.676 136.244 100.713 136.201 97.2661C136.189 96.1942 135.276 95.3575 134.21 95.438Z" fill="white"/>
<path d="M132.06 109.698C132.079 108.946 132.077 108.158 132.054 107.333C132.698 107.039 133.376 106.576 134.082 105.889C134.264 105.711 134.439 105.513 134.605 105.295C134.177 107.178 133.559 108.526 132.782 109.185C132.556 109.376 132.316 109.547 132.06 109.698Z" fill="#B9AFBE"/>
<path d="M134.279 96.3599L124.858 97.0679C124.435 97.1008 124.087 97.4128 124.012 97.8281C122.956 103.676 123.392 108.012 125.178 109.428C127.228 111.053 130.71 110.941 132.782 109.184C134.42 107.795 135.353 103.344 135.279 97.2766C135.276 97.0167 135.169 96.7772 134.978 96.6014C134.786 96.4263 134.54 96.3413 134.279 96.3599ZM128.756 112.428C127.039 112.428 125.339 111.915 124.032 110.878C120.796 108.312 121.493 101.394 122.196 97.4987C122.42 96.2541 123.459 95.3184 124.72 95.2239L134.141 94.5149C134.9 94.4581 135.662 94.7214 136.225 95.2379C136.787 95.7545 137.115 96.4892 137.125 97.2543C137.184 102.072 136.685 108.298 133.974 110.596C132.54 111.813 130.636 112.428 128.756 112.428Z" fill="#371A45"/>
<path d="M126.629 103.123C126.733 104.307 126.727 105.437 126.805 106.558C126.876 107.676 127.002 108.779 127.275 109.814C127.546 110.847 127.974 111.812 128.619 112.538C129.258 113.27 130.112 113.733 131.069 113.961L131.072 113.962C131.568 114.08 131.875 114.579 131.757 115.076C131.639 115.573 131.14 115.881 130.644 115.762C130.625 115.757 130.604 115.751 130.584 115.746C129.966 115.553 129.359 115.283 128.806 114.917C128.253 114.553 127.759 114.091 127.359 113.573C126.553 112.529 126.132 111.31 125.899 110.129C125.666 108.939 125.612 107.757 125.611 106.597C125.605 105.438 125.681 104.285 125.653 103.192L125.652 103.179C125.645 102.909 125.859 102.684 126.129 102.677C126.388 102.67 126.605 102.868 126.629 103.123Z" fill="#371A45"/>
<path d="M128.646 71.2221C127.778 71.2897 126.895 71.3915 126.024 71.5108C125.152 71.63 124.282 71.7713 123.418 71.9333C122.554 72.0931 121.696 72.2759 120.846 72.483C119.994 72.6822 119.155 72.9242 118.324 73.1728L118.308 73.1773C117.818 73.3236 117.304 73.0451 117.157 72.5544C117.011 72.0644 117.29 71.5484 117.779 71.4022C117.808 71.3932 117.838 71.3859 117.867 71.3803C118.761 71.2064 119.655 71.0427 120.551 70.9239C121.447 70.7973 122.344 70.6978 123.241 70.6217C124.138 70.5442 125.036 70.4879 125.933 70.4546C126.833 70.4215 127.724 70.4062 128.632 70.4254C128.852 70.4299 129.026 70.6122 129.022 70.8322C129.017 71.0387 128.858 71.2047 128.657 71.221L128.646 71.2221Z" fill="#371A45"/>
<path d="M118.838 70.7807C118.456 70.325 118.063 69.8669 117.661 69.4106C117.36 68.3714 117.046 67.3266 116.721 66.2766C117.192 65.8406 117.655 65.391 118.105 64.9297C120.465 65.2796 123.254 65.858 125.731 66.8067C123.569 68.3619 121.258 69.6925 118.838 70.7807Z" fill="#B9AFBE"/>
<path d="M125.732 66.8066C123.254 65.858 120.465 65.2796 118.105 64.9297C118.367 64.6618 118.624 64.3895 118.879 64.1133C121.312 64.5077 124.113 65.1452 126.59 66.1709C126.307 66.3869 126.021 66.5985 125.732 66.8066Z" fill="#371A45"/>
<path d="M94.339 153.861C90.31 163.215 73.06 161.675 68.7064 157.804C64.2466 153.834 72.3098 148.879 72.3098 148.879C70.6246 146.009 69.7036 141.923 69.2432 137.613C68.7187 132.725 68.7828 127.555 68.9838 123.565C69.1888 119.45 69.5403 116.592 69.5403 116.592L94.968 102.804C94.9506 107.989 94.0841 112.423 93.3097 115.977C91.6589 123.53 91.7655 129.34 92.4337 134.087C92.7578 136.39 93.2132 138.444 93.6658 140.323C94.9433 145.633 96.1877 149.565 94.339 153.861Z" fill="white"/>
<path d="M92.4339 134.087C92.7578 136.39 93.2132 138.444 93.6659 140.323C82.252 142.33 73.5155 139.52 69.2433 137.613C68.7188 132.726 68.7829 127.555 68.9838 123.565C69.1888 119.451 69.5403 116.592 69.5403 116.592L94.9681 102.804C94.9507 107.989 94.0842 112.423 93.3099 115.977C91.6589 123.53 91.7657 129.34 92.4339 134.087Z" fill="#4A83FF"/>
<path d="M80.1679 161.758C75.0168 161.758 70.1663 160.338 68.0947 158.494C66.8851 157.418 66.3338 156.167 66.4561 154.778C66.701 151.997 69.6524 149.595 71.0939 148.579C65.985 138.573 68.5125 117.4 68.6254 116.479C68.6877 115.973 69.1465 115.611 69.6542 115.674C70.1601 115.737 70.52 116.199 70.4578 116.706C70.4302 116.931 67.7583 139.309 73.1059 148.41C73.3614 148.845 73.2222 149.405 72.7931 149.668C71.6066 150.399 68.4844 152.774 68.2946 154.943C68.2261 155.727 68.5619 156.436 69.3206 157.111C71.7841 159.304 79.106 160.74 85.2179 159.379C88.1137 158.735 91.8997 157.19 93.4927 153.493C95.0572 149.86 94.2379 146.528 93.1047 141.914C91.5936 135.766 89.7136 128.113 92.4078 115.78C93.2485 111.931 94.0285 107.694 94.0442 102.799C94.0459 102.29 94.4591 101.877 94.9674 101.877H94.9707C95.48 101.879 95.8922 102.295 95.8905 102.806C95.8742 107.874 95.0735 112.226 94.2115 116.176C91.6088 128.089 93.4321 135.51 94.8972 141.472C96.0713 146.249 96.9979 150.022 95.1875 154.226C93.6825 157.721 90.3734 160.127 85.6183 161.184C83.8364 161.581 81.9834 161.758 80.1679 161.758Z" fill="#371A45"/>
<path d="M87.325 141.607C81.7185 141.607 74.0702 140.982 68.8889 138.064C68.5553 137.876 68.4375 137.454 68.6244 137.12C68.8114 136.785 69.2337 136.667 69.5672 136.854C78.0544 141.634 94.2527 139.898 94.415 139.878C94.7962 139.838 95.1371 140.111 95.1798 140.492C95.2219 140.872 94.9484 141.215 94.5683 141.258C94.2841 141.289 91.3237 141.607 87.325 141.607Z" fill="#371A45"/>
<path d="M89.0248 130.293C98.1651 130.936 105.11 128.096 107.487 127.036C113.59 124.316 118.282 119.38 120.577 112.864C124.119 102.803 121.572 80.5565 111.949 55.2998L80.6685 53.3052C66.4362 80.5565 63.2753 110.367 69.1406 120.171C69.7324 121.16 70.3821 122.114 71.1969 122.957C74.5499 126.426 79.8537 128.469 84.1456 129.494L89.0248 130.293Z" fill="white"/>
<path d="M122.001 104.848C121.811 108.017 121.331 110.716 120.576 112.865C118.282 119.379 113.589 124.315 107.486 127.036C105.11 128.095 98.1655 130.937 89.0253 130.292L84.1449 129.494C79.8536 128.47 74.5499 126.426 71.1957 122.957C70.3815 122.114 69.7334 121.16 69.1416 120.17C65.5831 114.221 65.3479 100.902 68.8946 85.2569C69.6392 81.9688 70.172 78.7082 71.2586 75.2614C71.7932 73.56 72.7478 71.7145 73.3689 69.9889C75.3562 64.4491 77.7843 58.8249 80.6673 53.3047L111.948 55.3009C113.852 60.2979 115.48 65.1777 116.836 69.8673L116.839 69.8769C120.878 83.8312 122.531 96.1109 122.001 104.848Z" fill="#4A83FF"/>
<path d="M70.812 78.9653C70.853 79.3023 70.8564 79.6281 70.8474 79.9499C70.8423 80.2723 70.8154 80.5886 70.7828 80.9031C70.7261 81.5338 70.5981 82.1448 70.4768 82.757C70.2403 83.9825 69.918 85.1859 69.6187 86.3962C69.3155 87.6053 69.074 88.8285 68.85 90.054C68.6203 91.2788 68.4209 92.5083 68.2328 93.7387C67.5118 98.661 67.1019 103.646 67.3439 108.58C67.472 111.041 67.7595 113.498 68.3856 115.833C68.7012 116.996 69.096 118.133 69.6373 119.163C69.9046 119.662 70.2263 120.195 70.5587 120.685C70.8917 121.176 71.2461 121.643 71.6324 122.07C73.2216 123.782 75.2785 125.129 77.4573 126.18C78.0037 126.444 78.5596 126.692 79.1246 126.92C79.6877 127.152 80.2746 127.326 80.8574 127.508C81.4387 127.692 82.0131 127.896 82.5775 128.148C82.8588 128.278 83.139 128.415 83.4119 128.588C83.6842 128.763 83.9577 128.94 84.2166 129.194L84.2278 129.204C84.3659 129.339 84.3687 129.561 84.234 129.7C84.1891 129.747 84.1324 129.778 84.074 129.794C83.3799 129.981 82.7189 129.966 82.0776 129.874C81.4387 129.774 80.8164 129.601 80.2133 129.373C79.6108 129.144 79.0229 128.878 78.4265 128.634C77.8296 128.39 77.2383 128.129 76.656 127.847C74.3289 126.719 72.0985 125.286 70.2634 123.311C69.8074 122.807 69.4009 122.27 69.0308 121.723C68.6585 121.172 68.3288 120.631 68.0026 120.023C67.3754 118.826 66.9458 117.574 66.6032 116.315C65.9277 113.792 65.634 111.227 65.5004 108.675C65.2505 103.564 65.6733 98.4804 66.4067 93.4664C66.5982 92.2134 66.8009 90.9626 67.0346 89.7175C67.1474 89.0946 67.2681 88.4729 67.3944 87.8523L67.7555 85.9877C67.988 84.7425 68.2474 83.5013 68.617 82.2888C68.9735 81.0741 69.4244 79.8813 70.2196 78.7977C70.3268 78.6507 70.5323 78.6193 70.6789 78.7273C70.7542 78.7824 70.7991 78.8646 70.8104 78.9512L70.812 78.9653Z" fill="#371A45"/>
<path d="M91.7292 131.313C90.8274 131.313 89.9048 131.282 88.9603 131.216C88.4521 131.18 88.0685 130.738 88.1045 130.229C88.1399 129.719 88.5767 129.335 89.0894 129.371C96.864 129.918 103.181 127.943 107.112 126.191C113.072 123.535 117.545 118.692 119.706 112.555C122.809 103.743 121.398 82.9284 111.297 56.1852L80.6095 54.2284C80.1013 54.1957 79.715 53.7557 79.747 53.2465C79.7795 52.7367 80.2181 52.3497 80.7269 52.3817L112.007 54.3768C112.368 54.3999 112.682 54.6317 112.811 54.9699C121.867 78.7356 125.337 102.125 121.447 113.172C119.116 119.792 114.291 125.017 107.862 127.881C104.217 129.507 98.6148 131.313 91.7292 131.313Z" fill="#371A45"/>
<path d="M91.7279 131.313C90.8266 131.313 89.9045 131.282 88.9612 131.215C88.4524 131.179 88.0694 130.737 88.1048 130.228C88.1402 129.719 88.5782 129.334 89.0903 129.37C96.866 129.917 103.181 127.943 107.111 126.191C113.072 123.535 117.545 118.692 119.705 112.558C123.126 102.84 120.551 82.7165 113.142 61.2898C112.976 60.807 113.231 60.2803 113.713 60.1132C114.195 59.9461 114.72 60.2016 114.887 60.6843C122.424 82.4818 124.998 103.085 121.446 113.172C119.115 119.792 114.29 125.016 107.861 127.882C104.216 129.506 98.613 131.313 91.7279 131.313Z" fill="#371A45"/>
<path d="M84.8028 149.287C83.783 148.953 82.7363 148.713 81.6957 148.57C80.6557 148.417 79.6135 148.373 78.5921 148.42C78.0799 148.42 77.5751 148.511 77.0731 148.557C76.5756 148.654 76.0758 148.711 75.5907 148.846C75.3492 148.912 75.0987 148.944 74.8601 149.022C74.622 149.1 74.3817 149.17 74.1396 149.238C73.8959 149.299 73.6623 149.392 73.4259 149.478C73.1883 149.563 72.9486 149.642 72.7037 149.716L72.6161 149.742C72.1282 149.888 71.6143 149.61 71.4689 149.121C71.3414 148.693 71.5385 148.245 71.917 148.042C72.935 147.495 74.0374 147.069 75.188 146.88C75.7563 146.749 76.3403 146.728 76.917 146.684C77.2062 146.673 77.496 146.689 77.784 146.693C78.0727 146.693 78.359 146.722 78.6449 146.753C79.7871 146.863 80.9057 147.116 81.9647 147.502C83.0233 147.891 84.0318 148.388 84.933 149.057C84.992 149.101 85.0044 149.184 84.9606 149.244C84.9258 149.29 84.8656 149.307 84.8134 149.291L84.8028 149.287Z" fill="#371A45"/>
<path d="M80.1265 159.909C75.5096 159.909 71.1193 158.711 69.3208 157.111C68.5621 156.436 68.2263 155.726 68.2948 154.942C68.3105 154.761 68.347 154.578 68.4015 154.395C71.4147 155.929 76.1131 157.193 80.5146 157.192C85.3848 157.192 89.8918 155.645 91.3507 151.204C92.4541 147.841 91.0233 145.285 89.6188 141.573C90.3489 141.552 91.0199 141.521 91.6168 141.488C91.6686 141.808 91.7241 142.127 91.7898 142.445C92.034 143.697 92.3221 144.947 92.7271 146.17C93.1302 147.392 93.5918 148.605 94.2089 149.755C94.2499 149.833 94.2921 149.911 94.3341 149.988C94.2583 151.161 94.0017 152.311 93.4929 153.493C91.8999 157.19 88.1139 158.734 85.2181 159.379C83.5688 159.746 81.8325 159.909 80.1265 159.909Z" fill="#B9AFBE"/>
<path d="M89.1185 140.182C88.8905 139.51 88.6721 138.799 88.4749 138.039C87.8359 135.574 85.889 133.662 83.4284 133.025C78.6266 131.783 72.8124 129.298 69.8491 125.039C69.8773 124.31 69.9103 123.608 69.9469 122.947C70.0496 123.069 70.1552 123.191 70.2635 123.311C72.0987 125.286 74.3291 126.719 76.6562 127.847C77.2385 128.129 77.8298 128.39 78.4267 128.634C79.0231 128.879 79.611 129.145 80.2135 129.374C80.8166 129.601 81.4388 129.774 82.0778 129.874C82.3591 129.915 82.6444 129.94 82.9342 129.94C83.3054 129.94 83.685 129.898 84.0741 129.794C84.1325 129.778 84.1892 129.747 84.2342 129.699C84.283 129.649 84.3139 129.588 84.3268 129.524L85.5948 129.731L88.1139 130.144C88.1094 130.172 88.1061 130.2 88.1043 130.229C88.0684 130.738 88.4519 131.18 88.9601 131.216C89.6952 131.267 90.4174 131.298 91.1265 131.309C90.9514 133.751 90.9879 136.215 91.2468 138.667C91.2911 139.145 91.3518 139.622 91.4124 140.099C90.7346 140.133 89.9619 140.164 89.1185 140.182Z" fill="#435EBE"/>
<path d="M80.1388 160.833C75.2999 160.833 70.679 159.558 68.7069 157.804C67.3013 156.553 67.1384 155.204 67.5776 153.945C67.8353 154.096 68.1104 154.247 68.4014 154.395C68.3469 154.578 68.3103 154.761 68.2947 154.943C68.2261 155.726 68.562 156.436 69.3206 157.111C71.1193 158.712 75.5094 159.909 80.1264 159.909C81.8324 159.909 83.5687 159.746 85.2179 159.379C88.1139 158.735 91.8998 157.19 93.4929 153.493C94.0016 152.311 94.2583 151.161 94.3341 149.988C94.5744 150.43 94.8316 150.864 95.1067 151.287C95.0045 151.883 94.853 152.479 94.6435 153.079C94.4912 153.208 94.3408 153.339 94.1925 153.474C93.4473 154.161 92.7331 154.908 92.1541 155.822C91.8666 156.278 91.6116 156.777 91.4359 157.332C91.4011 157.442 91.3697 157.555 91.3421 157.67C88.4103 159.935 84.1982 160.834 80.1388 160.833ZM69.849 125.039C69.5907 124.667 69.3538 124.282 69.1409 123.883C69.0865 123.782 69.0325 123.676 68.9831 123.565C69.014 122.946 69.0483 122.357 69.0837 121.8C69.3509 122.191 69.6368 122.576 69.9467 122.947C69.9103 123.608 69.8771 124.31 69.849 125.039Z" fill="#371A45"/>
<path d="M89.6185 141.573C89.4501 141.128 89.2816 140.665 89.1182 140.182C89.9617 140.164 90.7343 140.133 91.4121 140.099C91.4318 140.253 91.4514 140.406 91.4705 140.56C91.5194 140.869 91.566 141.179 91.6165 141.488C91.0196 141.521 90.3485 141.552 89.6185 141.573Z" fill="#371A45"/>
<path d="M88.1139 130.144L85.5947 129.731L88.1139 130.143C88.1139 130.144 88.1139 130.144 88.1139 130.144Z" fill="#B9AFBE"/>
<path d="M88.1138 130.143L85.5947 129.731L84.3268 129.524C84.3486 129.411 84.3155 129.29 84.2279 129.204L84.2167 129.194C83.9578 128.94 83.6843 128.763 83.412 128.588C83.1391 128.415 82.8589 128.278 82.5775 128.148C82.0132 127.896 81.4388 127.692 80.8575 127.508C80.2746 127.326 79.6879 127.152 79.1246 126.92C78.5597 126.692 78.0038 126.444 77.4574 126.18C75.2786 125.129 73.2216 123.782 71.6325 122.07C71.2462 121.643 70.8919 121.177 70.5589 120.685C70.2264 120.195 69.9046 119.662 69.6373 119.163C69.096 118.133 68.7012 116.996 68.3857 115.833C68.0207 114.472 67.7702 113.069 67.6001 111.649C67.5647 110.529 67.5602 109.323 67.5849 108.031C67.6787 111.498 68.1868 114.005 69.1409 115.474C69.3543 115.801 69.5952 116.116 69.8541 116.422C74.1797 121.516 84.5637 123.518 89.0252 123.775C89.9332 123.827 90.8182 123.851 91.6801 123.851C91.8306 123.851 91.9806 123.849 92.1294 123.848C92.2782 123.847 92.4259 123.845 92.5736 123.842C92.1355 124.983 91.8588 126.152 91.624 127.332C91.4864 128.037 91.3797 128.747 91.2961 129.46C90.575 129.451 89.8394 129.422 89.0903 129.37C89.0684 129.368 89.046 129.368 89.0246 129.368C88.8528 129.368 88.6911 129.415 88.5524 129.498C88.3239 129.634 88.1588 129.866 88.1138 130.143Z" fill="#435EBE"/>
<path d="M82.9342 129.94C82.6444 129.94 82.3592 129.915 82.0779 129.874C81.4388 129.775 80.8167 129.601 80.2136 129.374C79.611 129.145 79.0231 128.879 78.4267 128.634C77.8298 128.39 77.2384 128.129 76.6561 127.847C74.3291 126.719 72.0987 125.286 70.2636 123.311C70.1552 123.191 70.0496 123.069 69.9468 122.947C69.6369 122.576 69.351 122.19 69.0837 121.8C69.1191 121.252 69.1556 120.739 69.1927 120.261C69.1763 120.231 69.1573 120.203 69.141 120.173C68.2285 118.462 67.7248 115.592 67.6001 111.648C67.7703 113.069 68.0207 114.472 68.3857 115.833C68.7013 116.996 69.0961 118.133 69.6374 119.163C69.9047 119.662 70.2264 120.195 70.5589 120.685C70.8919 121.177 71.2463 121.643 71.6325 122.07C73.2217 123.782 75.2787 125.129 77.4575 126.18C78.0038 126.444 78.5598 126.692 79.1247 126.919C79.6879 127.152 80.2747 127.327 80.8576 127.508C81.4388 127.692 82.0133 127.896 82.5776 128.148C82.8589 128.278 83.1392 128.415 83.4121 128.589C83.6845 128.762 83.9579 128.94 84.2168 129.194L84.228 129.204C84.3156 129.291 84.3488 129.411 84.3268 129.524C84.314 129.588 84.283 129.649 84.2342 129.7C84.1893 129.747 84.1325 129.779 84.0741 129.794C83.6849 129.898 83.3053 129.94 82.9342 129.94Z" fill="#371A45"/>
<path d="M111.221 109.675C111.237 109.454 111.251 109.23 111.265 109.006C111.688 102.041 110.097 94.4364 109.962 89.1323C110.151 90.0309 110.341 90.9215 110.512 91.8133C110.73 92.9127 110.924 94.0116 111.098 95.1093C111.274 96.2065 111.41 97.3065 111.563 98.3999C111.643 98.9678 111.716 99.5358 111.796 100.104C111.669 100.366 111.611 100.667 111.64 100.978C111.723 101.853 111.779 102.675 111.813 103.439C111.826 103.728 111.914 103.994 112.055 104.222C112.092 104.281 112.133 104.338 112.177 104.392C112.215 106.553 112.061 108.027 111.994 108.558C111.818 108.792 111.537 109.181 111.221 109.675ZM109.975 88.3356C109.972 88.335 109.969 88.335 109.966 88.335C109.971 88.3165 109.977 88.3007 109.984 88.2866L109.975 88.3356Z" fill="#435EBE"/>
<path d="M91.1268 131.309C90.4175 131.298 89.6953 131.267 88.9603 131.216C88.452 131.18 88.0685 130.738 88.1044 130.229C88.1061 130.2 88.1095 130.172 88.1139 130.144C88.1589 129.866 88.324 129.634 88.5525 129.498C88.3015 129.647 88.1269 129.914 88.105 130.228C88.0696 130.738 88.4526 131.179 88.9613 131.215C89.6959 131.267 90.4181 131.297 91.1268 131.308V131.309Z" fill="#371A45"/>
<path d="M91.1264 131.308C90.4177 131.297 89.6956 131.267 88.9612 131.215C88.4524 131.18 88.0694 130.738 88.1048 130.228C88.1267 129.914 88.3013 129.647 88.5524 129.498C88.6911 129.415 88.8528 129.368 89.0246 129.368C89.0459 129.368 89.0684 129.369 89.0903 129.37C89.8394 129.422 90.575 129.452 91.2961 129.46C91.2331 130 91.1831 130.541 91.1433 131.084C91.1377 131.158 91.132 131.233 91.1264 131.308Z" fill="#371A45"/>
<path d="M119.118 157.345C115.087 166.701 97.8364 165.161 93.4856 161.29C89.0253 157.319 97.0862 152.365 97.0862 152.365C94.2454 149.038 92.8988 144.459 92.3445 139.937C91.3349 131.716 92.941 123.679 92.941 123.679L119.745 106.288C119.727 111.475 118.863 115.91 118.086 119.465C116.124 128.45 116.646 134.969 117.646 140.167C119.041 147.44 121.368 152.125 119.118 157.345Z" fill="white"/>
<path d="M118.086 119.465C116.124 128.45 116.646 134.969 117.646 140.167C102.219 145.581 92.5967 140.08 92.3445 139.937C91.3349 131.716 92.941 123.679 92.941 123.679L103.137 115.699L119.745 106.288C119.727 111.475 118.863 115.91 118.086 119.465Z" fill="#4A83FF"/>
<path d="M95.4648 140.398C94.7167 140.163 93.9761 139.892 93.25 139.58C93.2129 139.23 93.1821 138.879 93.1567 138.529C93.9283 138.697 94.6999 138.807 95.4648 138.863V140.398Z" fill="#435EBE"/>
<path d="M104.835 163.445C104.725 163.445 104.616 163.445 104.506 163.444C102.66 163.41 100.81 163.2 99.0213 162.786C98.1301 162.573 97.2535 162.312 96.423 161.978C95.5965 161.644 94.8013 161.231 94.1886 160.723C93.5597 160.203 93.1543 159.572 93.0773 158.923C93.0621 158.799 93.0599 158.674 93.0683 158.544C95.4144 159.549 98.7484 160.195 102.192 160.195C107.27 160.195 112.586 158.791 115.336 155.062H118.891C118.75 155.725 118.548 156.373 118.282 157.001C117.929 157.791 117.475 158.526 116.919 159.187C116.353 159.841 115.681 160.407 114.953 160.903C113.483 161.88 111.763 162.521 109.985 162.917C109.095 163.122 108.183 163.243 107.269 163.34C106.461 163.41 105.649 163.445 104.835 163.445Z" fill="#B9AFBE"/>
<path d="M113.089 121.307H112.939C112.977 121.191 113.014 121.067 113.051 120.938C113.075 120.973 113.1 121.007 113.125 121.042C113.112 121.131 113.101 121.219 113.089 121.307Z" fill="#435EBE"/>
<path d="M113.333 121.308H113.09C113.101 121.219 113.113 121.131 113.125 121.042C113.19 121.131 113.26 121.219 113.333 121.308Z" fill="#3F4694"/>
<path d="M93.2431 123.793C93.2582 126.289 93.1341 128.739 93.0504 131.185C92.992 133.63 92.973 136.072 93.1543 138.497C93.2397 139.709 93.3964 140.914 93.6131 142.103C93.8276 143.291 94.1106 144.465 94.4841 145.602C94.8591 146.737 95.2843 147.857 95.8441 148.897C96.3961 149.94 97.0413 150.924 97.7893 151.819C98.1195 152.213 98.0678 152.802 97.6736 153.132C97.6422 153.158 97.6102 153.183 97.577 153.204L97.5703 153.209C97.2182 153.431 96.8307 153.706 96.4747 153.978C96.1137 154.254 95.7644 154.544 95.432 154.846C94.7721 155.451 94.1567 156.106 93.7125 156.812C93.2672 157.516 92.9982 158.265 93.0774 158.923C93.1543 159.572 93.5597 160.203 94.1887 160.723C94.8013 161.231 95.5965 161.644 96.4231 161.978C97.2536 162.312 98.1301 162.574 99.0213 162.787C100.81 163.2 102.66 163.411 104.506 163.444C105.43 163.455 106.352 163.42 107.269 163.34C108.183 163.243 109.095 163.122 109.985 162.917C111.763 162.521 113.483 161.882 114.953 160.903C115.681 160.408 116.353 159.842 116.919 159.188C117.475 158.526 117.929 157.791 118.282 157.001C118.971 155.372 119.235 153.614 119.095 151.81C118.969 150.006 118.542 148.172 118.094 146.324C117.642 144.472 117.168 142.596 116.798 140.688C116.422 138.781 116.138 136.846 115.983 134.899C115.826 132.953 115.796 130.995 115.883 129.046C115.97 127.098 116.171 125.158 116.456 123.234C116.752 121.318 117.173 119.393 117.558 117.553C117.941 115.695 118.155 113.819 118.419 111.958C118.685 110.092 118.917 108.24 119.437 106.342L119.437 106.339C119.484 106.17 119.659 106.069 119.829 106.117C119.942 106.148 120.024 106.237 120.052 106.344C120.554 108.276 120.546 110.249 120.363 112.186C120.186 114.129 119.747 116.03 119.368 117.922C118.967 119.829 118.571 121.645 118.281 123.514C118.005 125.378 117.811 127.25 117.727 129.127C117.55 132.882 117.87 136.636 118.609 140.33C118.968 142.181 119.432 144.019 119.888 145.885C120.338 147.753 120.794 149.665 120.937 151.685C121.013 152.692 120.983 153.728 120.825 154.75C120.668 155.773 120.381 156.78 119.979 157.729C119.554 158.689 118.995 159.593 118.318 160.395C117.631 161.19 116.829 161.865 115.977 162.443C114.256 163.584 112.329 164.288 110.385 164.723C109.41 164.946 108.426 165.079 107.44 165.182C106.453 165.269 105.465 165.306 104.478 165.293C102.505 165.258 100.537 165.035 98.6007 164.588C97.6343 164.357 96.6746 164.072 95.7323 163.694C94.7923 163.308 93.8602 162.848 92.9966 162.136C92.8859 162.053 92.7865 161.952 92.6866 161.854C92.5872 161.754 92.4838 161.661 92.3895 161.554C92.2042 161.332 92.0161 161.115 91.8628 160.854C91.5443 160.351 91.3119 159.752 91.2428 159.128C91.1693 158.503 91.2619 157.884 91.436 157.332C91.6117 156.777 91.8667 156.278 92.1542 155.821C92.7331 154.908 93.4474 154.161 94.1926 153.474C94.5677 153.133 94.9552 152.813 95.3539 152.508C95.7588 152.2 96.1491 151.919 96.605 151.631L96.386 153.021C95.538 152.009 94.8176 150.907 94.2089 149.755C93.5917 148.605 93.1302 147.392 92.727 146.17C92.3221 144.947 92.0341 143.697 91.7898 142.445C91.6606 141.82 91.5702 141.189 91.4708 140.56C91.3928 139.929 91.3052 139.299 91.2468 138.667C90.98 136.14 90.9492 133.6 91.1435 131.084C91.2355 129.825 91.3826 128.57 91.6241 127.332C91.8706 126.093 92.1638 124.867 92.64 123.671C92.704 123.511 92.8859 123.433 93.0465 123.496C93.1683 123.546 93.2425 123.662 93.2436 123.786L93.2431 123.793Z" fill="#371A45"/>
<path d="M104.852 143.118C100.743 143.118 96.1952 142.501 92.0459 140.56C91.6989 140.398 91.5495 139.986 91.7112 139.638C91.8724 139.291 92.2846 139.14 92.6316 139.303C103.319 144.302 117.318 139.952 117.458 139.907C117.822 139.791 118.212 139.994 118.327 140.359C118.443 140.724 118.241 141.114 117.877 141.23C117.504 141.348 111.807 143.118 104.852 143.118Z" fill="#371A45"/>
<path d="M110.993 154.194C110.817 154.194 110.639 154.144 110.482 154.039C110.248 153.884 104.766 150.344 97.4296 153.278C96.9563 153.469 96.42 153.238 96.2302 152.763C96.0409 152.288 96.2718 151.75 96.7452 151.561C105.018 148.252 111.246 152.326 111.506 152.501C111.93 152.785 112.044 153.36 111.76 153.784C111.583 154.05 111.29 154.194 110.993 154.194Z" fill="#371A45"/>
<path d="M126.425 122.472C126.432 122.463 126.426 122.394 126.423 122.35L126.405 122.197C126.392 122.092 126.373 121.986 126.353 121.88C126.31 121.667 126.251 121.454 126.185 121.243C126.053 120.822 125.864 120.421 125.645 120.04C125.196 119.287 124.564 118.647 123.78 118.244C123.585 118.141 123.385 118.06 123.152 117.97C122.928 117.879 122.699 117.801 122.47 117.723C122.013 117.564 121.547 117.433 121.077 117.32C120.609 117.205 120.133 117.12 119.657 117.052C119.189 116.992 118.687 116.953 118.254 116.96H118.235H118.209C117.777 116.957 117.276 117.001 116.808 117.065C116.332 117.137 115.859 117.226 115.391 117.346C114.923 117.462 114.459 117.598 114.004 117.76C113.776 117.84 113.549 117.92 113.325 118.013C113.093 118.106 112.896 118.187 112.705 118.291C111.931 118.695 111.322 119.343 110.88 120.086C110.668 120.465 110.485 120.863 110.359 121.282C110.296 121.49 110.241 121.701 110.2 121.911C110.181 122.017 110.164 122.123 110.152 122.226L110.137 122.377C110.135 122.419 110.129 122.488 110.138 122.493C111.219 123.025 111.663 124.335 111.13 125.417C110.599 126.5 109.292 126.944 108.212 126.411C107.239 125.931 106.782 124.82 107.091 123.812L107.653 121.974C107.689 121.857 107.714 121.805 107.745 121.728L107.832 121.52C107.892 121.385 107.955 121.256 108.019 121.126C108.147 120.869 108.282 120.619 108.429 120.377C108.724 119.894 109.045 119.429 109.423 119.007C110.159 118.153 111.099 117.45 112.15 117.051C112.409 116.946 112.684 116.867 112.922 116.803C113.169 116.735 113.416 116.668 113.665 116.608C114.161 116.485 114.66 116.373 115.164 116.283C115.668 116.193 116.172 116.11 116.684 116.06C117.202 116.009 117.694 115.966 118.254 115.982H118.209C118.77 115.97 119.261 116.017 119.778 116.073C120.288 116.128 120.792 116.215 121.294 116.309C121.796 116.403 122.293 116.519 122.788 116.644C123.035 116.707 123.282 116.776 123.527 116.846C123.765 116.912 124.036 116.992 124.292 117.098C125.333 117.498 126.25 118.209 126.978 119.052C127.35 119.473 127.665 119.935 127.954 120.414C128.098 120.656 128.23 120.903 128.354 121.159C128.418 121.287 128.479 121.415 128.537 121.549L128.623 121.754C128.652 121.83 128.676 121.882 128.711 121.995L129.021 123.014C129.265 123.814 128.815 124.661 128.016 124.906C127.217 125.15 126.371 124.699 126.128 123.898C125.972 123.388 126.106 122.851 126.425 122.472Z" fill="#371A45"/>
<path d="M135.705 154.139H100.759C98.3448 154.139 96.3872 152.177 96.3872 149.758V126.614C96.3872 124.195 98.3448 122.234 100.759 122.234H135.705C138.12 122.234 140.076 124.195 140.076 126.614V149.758C140.076 152.177 138.12 154.139 135.705 154.139Z" fill="#A34F31"/>
<path d="M100.289 123.157C98.6466 123.157 97.3107 124.497 97.3107 126.144V150.229C97.3107 151.874 98.6466 153.213 100.289 153.213H136.175C137.818 153.213 139.154 151.874 139.154 150.229V126.144C139.154 124.497 137.818 123.157 136.175 123.157H100.289ZM136.175 155.062H100.289C97.6285 155.062 95.4644 152.894 95.4644 150.229V126.144C95.4644 123.477 97.6285 121.308 100.289 121.308H136.175C138.835 121.308 141 123.477 141 126.144V150.229C141 152.894 138.835 155.062 136.175 155.062Z" fill="#371A45"/>
<path d="M136.176 153.212H107.169C107.246 153.032 107.288 152.834 107.288 152.626V138.12H136.176C137.299 138.12 138.333 137.735 139.154 137.087V139.386C138.555 140.093 137.711 140.585 136.751 140.727V141.359C136.751 141.892 136.439 142.355 135.988 142.572V149.239C137.31 149.211 138.47 148.524 139.154 147.493V150.229C139.154 151.874 137.818 153.212 136.176 153.212ZM110.43 140.769V141.359C110.43 141.892 110.118 142.355 109.666 142.572V149.241H132.17V140.769H110.43ZM103.589 153.212H100.289C98.647 153.212 97.311 151.874 97.311 150.229V148.149C98.0124 148.825 98.9654 149.241 100.015 149.241H103.47V152.626C103.47 152.834 103.512 153.032 103.589 153.212Z" fill="#7D3D38"/>
<path d="M135.902 154.139H100.015C97.8602 154.139 96.1143 152.387 96.1143 150.23V145.332C96.1143 146.439 96.573 147.438 97.3109 148.149V150.229C97.3109 151.874 98.6468 153.212 100.289 153.212H103.588C103.818 153.754 104.355 154.137 104.978 154.137H105.781C106.403 154.137 106.94 153.754 107.169 153.212H136.175C137.818 153.212 139.154 151.874 139.154 150.229V147.493C139.565 146.874 139.803 146.131 139.803 145.332V150.23C139.803 152.387 138.057 154.139 135.902 154.139ZM139.154 139.386V137.088C139.504 136.811 139.814 136.488 140.076 136.127V136.862C140.076 137.824 139.729 138.705 139.154 139.386Z" fill="#371A45"/>
<path d="M103.47 140.769H100.289C99.0951 140.769 98.0265 140.233 97.311 139.387V137.087C98.132 137.735 99.1664 138.12 100.289 138.12H103.47V140.769Z" fill="#923E3A"/>
<path d="M97.3109 139.386C96.7347 138.705 96.3877 137.824 96.3877 136.862V136.127C96.6499 136.488 96.961 136.811 97.3109 137.088V139.386Z" fill="#471948"/>
<path d="M140.077 126.143V133.287C140.077 135.447 138.33 137.196 136.175 137.196H100.289C98.1335 137.196 96.3877 135.447 96.3877 133.287V126.143C96.3877 123.984 98.1335 122.232 100.289 122.232H136.175C138.33 122.232 140.077 123.984 140.077 126.143Z" fill="#A34F31"/>
<path d="M124.391 128.812C121.593 128.812 119.326 127.356 119.326 125.56C119.326 125.544 119.326 125.528 119.329 125.511H109.666V123.478C109.666 123.367 109.653 123.26 109.627 123.156H116.116C116.895 123.413 117.823 123.57 118.927 123.575C119.006 123.576 119.087 123.576 119.166 123.576C120.76 123.576 122.366 123.494 123.879 123.156H136.176C137.818 123.156 139.154 124.496 139.154 126.143V126.895C138.438 126.048 137.37 125.511 136.175 125.511H129.455C129.458 125.528 129.458 125.544 129.458 125.56C129.458 127.356 127.188 128.812 124.391 128.812ZM97.311 126.895V126.143C97.311 124.496 98.647 123.156 100.289 123.156H103.549C103.498 123.309 103.47 123.47 103.47 123.639V125.511H100.289C99.0951 125.511 98.0265 126.048 97.311 126.895Z" fill="#BF846F"/>
<path d="M100.289 123.156C98.6466 123.156 97.3107 124.496 97.3107 126.143V133.287C97.3107 134.932 98.6466 136.271 100.289 136.271H136.175C137.818 136.271 139.154 134.932 139.154 133.287V126.143C139.154 124.496 137.818 123.156 136.175 123.156H100.289ZM136.175 138.12H100.289C97.6285 138.12 95.4644 135.952 95.4644 133.287V126.143C95.4644 123.477 97.6285 121.308 100.289 121.308H136.175C138.835 121.308 141 123.477 141 126.143V133.287C141 135.952 138.835 138.12 136.175 138.12Z" fill="#371A45"/>
<path d="M105.78 154.137H104.978C104.148 154.137 103.47 153.458 103.47 152.626V123.639C103.47 122.808 104.148 122.128 104.978 122.128H105.78C106.609 122.128 107.288 122.808 107.288 123.639V152.626C107.288 153.458 106.609 154.137 105.78 154.137Z" fill="#BF943D"/>
<path d="M107.288 125.806H109.666V125.51H107.288V125.806Z" fill="#7D3D38"/>
<path d="M109.666 125.511H107.288V123.639C107.288 123.47 107.26 123.309 107.208 123.156H109.627C109.652 123.26 109.666 123.367 109.666 123.478V125.511Z" fill="#905F60"/>
<path d="M109.627 123.156H107.208C107.087 122.799 106.834 122.499 106.509 122.318C106.71 122.198 106.945 122.128 107.194 122.128H108.322C108.951 122.128 109.483 122.569 109.627 123.156Z" fill="#371A45"/>
<path d="M107.288 125.806H105.848V123.478C105.848 122.986 106.114 122.554 106.509 122.318C106.834 122.499 107.087 122.799 107.208 123.156C107.26 123.309 107.288 123.47 107.288 123.639V125.511V125.806Z" fill="#906940"/>
<path d="M105.848 142.67C105.255 142.529 104.813 141.992 104.813 141.359V135.311C104.813 134.678 105.255 134.142 105.848 134V142.67Z" fill="#A66F42"/>
<path d="M105.78 154.137H104.978C104.148 154.137 103.47 153.458 103.47 152.626V123.639C103.47 122.808 104.148 122.128 104.978 122.128H105.78C106.609 122.128 107.288 122.808 107.288 123.639V152.626C107.288 153.458 106.609 154.137 105.78 154.137Z" fill="#EC1C24"/>
<path d="M132.096 154.137H131.294C130.464 154.137 129.786 153.458 129.786 152.626V123.639C129.786 122.808 130.464 122.128 131.294 122.128H132.096C132.925 122.128 133.604 122.808 133.604 123.639V152.626C133.604 153.458 132.925 154.137 132.096 154.137Z" fill="#EC1C24"/>
<path d="M104.977 123.054C104.66 123.054 104.393 123.322 104.393 123.639V152.626C104.393 152.945 104.66 153.212 104.977 153.212H105.781C106.098 153.212 106.365 152.945 106.365 152.626V123.639C106.365 123.322 106.098 123.054 105.781 123.054H104.977ZM105.781 155.062H104.977C103.637 155.062 102.547 153.97 102.547 152.626V123.639C102.547 122.297 103.637 121.204 104.977 121.204H105.781C107.121 121.204 108.211 122.297 108.211 123.639V152.626C108.211 153.97 107.121 155.062 105.781 155.062Z" fill="#371A45"/>
<path d="M131.293 123.054C130.976 123.054 130.709 123.322 130.709 123.639V152.626C130.709 152.945 130.976 153.212 131.293 153.212H132.096C132.413 153.212 132.68 152.945 132.68 152.626V123.639C132.68 123.322 132.413 123.054 132.096 123.054H131.293ZM132.096 155.062H131.293C129.953 155.062 128.862 153.97 128.862 152.626V123.639C128.862 122.297 129.953 121.204 131.293 121.204H132.096C133.437 121.204 134.527 122.297 134.527 123.639V152.626C134.527 153.97 133.437 155.062 132.096 155.062Z" fill="#371A45"/>
<path d="M132.997 142.666H130.394C129.564 142.666 128.886 141.986 128.886 141.155V135.431C128.886 134.601 129.564 133.921 130.394 133.921H132.997C133.825 133.921 134.504 134.601 134.504 135.431V141.155C134.504 141.986 133.825 142.666 132.997 142.666Z" fill="#FFCE00"/>
<path d="M130.393 134.847C130.076 134.847 129.808 135.114 129.808 135.431V141.155C129.808 141.473 130.076 141.74 130.393 141.74H132.996C133.312 141.74 133.58 141.473 133.58 141.155V135.431C133.58 135.114 133.312 134.847 132.996 134.847H130.393ZM132.996 143.59H130.393C129.053 143.59 127.961 142.498 127.961 141.155V135.431C127.961 134.089 129.053 132.996 130.393 132.996H132.996C134.336 132.996 135.427 134.089 135.427 135.431V141.155C135.427 142.498 134.336 143.59 132.996 143.59Z" fill="#371A45"/>
<path d="M106.544 142.707H103.941C103.112 142.707 102.434 142.028 102.434 141.197V135.474C102.434 134.643 103.112 133.963 103.941 133.963H106.544C107.373 133.963 108.052 134.643 108.052 135.474V141.197C108.052 142.028 107.373 142.707 106.544 142.707Z" fill="#FFCE00"/>
<path d="M103.977 134.847C103.66 134.847 103.393 135.114 103.393 135.431V141.155C103.393 141.473 103.66 141.74 103.977 141.74H106.581C106.897 141.74 107.165 141.473 107.165 141.155V135.431C107.165 135.114 106.897 134.847 106.581 134.847H103.977ZM106.581 143.59H103.977C102.637 143.59 101.547 142.498 101.547 141.155V135.431C101.547 134.089 102.637 132.996 103.977 132.996H106.581C107.921 132.996 109.011 134.089 109.011 135.431V141.155C109.011 142.498 107.921 143.59 106.581 143.59Z" fill="#371A45"/>
<path d="M131.139 109.321C130.948 121.231 125.639 122.684 118.93 122.652C113.326 122.622 112.953 118.323 112.953 118.323C112.953 118.323 110.896 117.799 110.322 115.45C109.802 113.331 112.002 110.112 112.678 109.186C112.802 109.021 112.874 108.929 112.874 108.929C112.874 108.929 113.104 107.525 113.106 105.103C113.106 104.631 113.099 104.121 113.079 103.574C112.938 99.8798 112.248 94.5411 109.953 88.4481L115.489 68.3818C125.305 78.9754 129.691 88.9691 130.876 103.085C130.931 103.724 130.98 104.373 131.02 105.03C131.04 105.346 131.058 105.663 131.075 105.983C131.136 107.178 131.158 108.289 131.139 109.321Z" fill="white"/>
<path d="M119.188 121.727C119.104 121.727 119.019 121.727 118.935 121.726C114.363 121.704 113.909 118.59 113.873 118.243C113.84 117.857 113.562 117.531 113.189 117.428C113.127 117.411 111.646 116.984 111.218 115.231C111.116 114.816 111.169 114.299 111.321 113.738C111.521 113.833 111.729 113.87 111.932 113.87C112.577 113.87 113.16 113.504 113.16 113.504C113.16 113.504 113.326 119.322 118.93 119.352C119.002 119.352 119.074 119.352 119.146 119.352C123.843 119.352 127.826 118.57 129.805 113.885C129.361 116.268 128.563 118.05 127.404 119.268C125.379 121.397 122.278 121.727 119.188 121.727Z" fill="#B9AFBE"/>
<path d="M131.02 105.03C124.513 104.644 116.601 104.936 113.106 105.103C113.109 101.44 112.587 95.4441 109.953 88.4481L111.748 79.0739L115.49 68.3818C125.751 79.4565 130.077 89.8745 131.02 105.03Z" fill="#4A83FF"/>
<path d="M129.424 98.5033C128.889 98.4773 128.333 98.457 127.759 98.4425C126.455 87.4827 122.977 79.0002 116.154 70.52C116.158 70.516 116.162 70.5127 116.166 70.5088C123.773 79.1314 127.799 87.5148 129.424 98.5033Z" fill="#C8DAFF"/>
<path d="M112.038 101.678C111.849 100.586 111.716 99.4935 111.563 98.4001C111.41 97.3067 111.274 96.2066 111.098 95.1094C110.924 94.0116 110.73 92.9128 110.512 91.8134C110.301 90.7117 110.06 89.6117 109.831 88.496C109.815 88.424 109.861 88.3531 109.933 88.3379C109.992 88.3255 110.049 88.3536 110.077 88.4032C110.638 89.3996 111.123 90.4366 111.565 91.4938C112.001 92.5527 112.389 93.6341 112.72 94.7347C113.05 95.8352 113.345 96.9513 113.542 98.0872C113.739 99.2212 113.878 100.369 113.879 101.525C113.879 102.038 113.464 102.453 112.953 102.454C112.495 102.454 112.115 102.122 112.04 101.685L112.038 101.678Z" fill="#371A45"/>
<path d="M119.166 123.577C119.086 123.577 119.006 123.577 118.926 123.576C113.89 123.552 112.512 120.366 112.154 119.006C111.347 118.638 109.924 117.716 109.424 115.671C108.79 113.072 111.277 109.514 111.994 108.559C112.078 107.893 112.297 105.75 112.107 102.632C112.076 102.122 112.463 101.683 112.972 101.651C113.482 101.622 113.919 102.009 113.95 102.519C114.194 106.524 113.802 108.976 113.785 109.078C113.76 109.233 113.696 109.378 113.6 109.5C112.485 110.922 110.852 113.735 111.218 115.231C111.646 116.984 113.127 117.411 113.19 117.429C113.562 117.531 113.84 117.857 113.874 118.243C113.91 118.591 114.363 121.704 118.935 121.726C122.108 121.743 125.324 121.455 127.405 119.269C129.6 116.963 130.499 112.633 130.153 106.033C129.338 90.4254 125.036 80.0463 114.812 69.0121C114.465 68.6381 114.487 68.0529 114.861 67.7052C115.234 67.3574 115.819 67.3794 116.165 67.7536C126.717 79.1415 131.156 89.8464 131.997 105.936C132.375 113.172 131.34 117.813 128.741 120.545C126.234 123.179 122.672 123.577 119.166 123.577Z" fill="#371A45"/>
<path d="M113.675 113.237L113.873 118.218L113.874 118.235C113.894 118.748 113.496 119.18 112.984 119.2C112.472 119.22 112.041 118.821 112.021 118.309C112.019 118.26 112.022 118.205 112.028 118.157L112.646 113.186C112.681 112.903 112.939 112.701 113.222 112.737C113.477 112.769 113.665 112.981 113.675 113.23V113.237Z" fill="#371A45"/>
<path d="M39.8716 60.7761C38.7872 57.0705 42.5378 54.0383 42.5378 54.0383C42.5378 54.0383 39.154 47.9438 41.7927 46.2919C43.206 45.4068 47.1273 49.5783 48.0381 52.3116C48.9495 55.0444 48.9506 57.6725 48.9506 57.6725" fill="white"/>
<path d="M39.7242 60.8193C39.6478 60.6708 39.5725 60.5177 39.5035 60.3597C39.4692 60.2803 39.431 60.201 39.4008 60.1193C39.3754 60.0372 39.3547 59.9534 39.3333 59.869C39.294 59.7007 39.239 59.5286 39.2143 59.3542L39.1693 58.8242C39.1481 58.1135 39.2715 57.3906 39.5091 56.7188C39.7517 56.0498 40.0925 55.4258 40.4935 54.853C40.6962 54.5672 40.9119 54.2932 41.1426 54.0305C41.2544 53.8954 41.3802 53.7722 41.5026 53.6455C41.6334 53.5173 41.7463 53.4053 41.913 53.2624L41.6683 54.5233C41.1589 53.6067 40.7714 52.7048 40.4508 51.7264C40.1414 50.7519 39.8854 49.7408 39.8606 48.6076C39.8522 48.0444 39.9196 47.4272 40.1869 46.8038C40.2442 46.6485 40.3458 46.4983 40.4295 46.3486C40.5384 46.2091 40.6333 46.0572 40.7658 45.9362L40.9585 45.75L41.169 45.5913C41.2656 45.5075 41.5762 45.3263 41.8053 45.2858C42.3044 45.1693 42.6998 45.2587 43.0199 45.3527C43.3422 45.4551 43.619 45.5845 43.8667 45.7263C44.3698 46.0082 44.7893 46.3334 45.192 46.6716C45.9882 47.3523 46.6811 48.104 47.2921 48.9272C47.6009 49.3362 47.8834 49.7672 48.1412 50.2201C48.4023 50.672 48.633 51.1491 48.8189 51.669C48.8639 51.7973 48.9104 51.9391 48.947 52.0634L49.048 52.432C49.1137 52.6784 49.1643 52.9271 49.2153 53.1752C49.3069 53.6732 49.3681 54.1745 49.3962 54.6758C49.4394 55.6807 49.3918 56.6844 49.1047 57.6724C49.0806 57.7574 48.9914 57.8064 48.9065 57.7816C48.8549 57.767 48.8167 57.7281 48.8004 57.6814L48.7971 57.6724C48.473 56.7379 48.2074 55.8253 47.9249 54.9357C47.7824 54.4918 47.6464 54.0512 47.4982 53.6186C47.4252 53.4025 47.3522 53.1864 47.2752 52.9737L47.1607 52.6547C47.1213 52.5507 47.0855 52.4668 47.0445 52.3712C46.8738 51.9982 46.6593 51.62 46.429 51.2464C46.1948 50.8745 45.9359 50.5094 45.6686 50.1498C45.1251 49.4386 44.531 48.75 43.888 48.1581C43.568 47.8666 43.2322 47.5903 42.9031 47.3912C42.7396 47.286 42.5785 47.2111 42.4454 47.1633C42.3129 47.1133 42.2157 47.1171 42.2449 47.1127C42.25 47.1082 42.2584 47.1031 42.2753 47.098C42.277 47.0992 42.2972 47.0778 42.2798 47.0913L42.2416 47.12L42.1619 47.174C42.1411 47.1971 42.1191 47.2185 42.0961 47.2392C42.0445 47.2753 42.0203 47.3378 41.9743 47.3805C41.9468 47.4441 41.9008 47.488 41.8782 47.5605C41.7575 47.8194 41.7025 48.18 41.7177 48.575C41.7429 49.3689 41.9894 50.2398 42.3022 51.0787C42.4617 51.5002 42.6369 51.9205 42.8256 52.3358C43.0069 52.7481 43.2181 53.1763 43.4079 53.5533L43.4354 53.6079C43.6488 54.0309 43.5242 54.5357 43.163 54.8148C43.0844 54.8755 42.9643 54.9807 42.8643 55.0713L42.5533 55.3673C42.3449 55.5659 42.1461 55.7774 41.9602 55.9963C41.5806 56.4312 41.2415 56.8931 40.9416 57.3782C40.6468 57.8671 40.4227 58.3848 40.2481 58.9389C40.0813 59.4971 40.0335 60.0862 40.0195 60.7327L40.019 60.7512C40.0173 60.8379 39.946 60.906 39.8595 60.9042C39.8006 60.9032 39.7494 60.8688 39.7242 60.8193Z" fill="#371A45"/>
<path d="M130.218 109.417C127.777 109.175 124.791 109.046 121.731 109.046C118.997 109.046 116.205 109.149 113.689 109.364C113.736 109.275 113.769 109.179 113.786 109.078C113.798 109 114.031 107.541 114.03 105.061C116.351 104.96 119.898 104.84 123.664 104.84C125.496 104.84 127.379 104.868 129.198 104.941C129.504 104.966 129.803 104.992 130.095 105.021C130.116 105.357 130.136 105.693 130.153 106.033C130.216 107.236 130.238 108.363 130.218 109.417Z" fill="#B9AFBE"/>
<path d="M114.03 105.061C114.03 105.06 114.03 105.061 114.03 105.06C116.351 104.96 119.897 104.839 123.664 104.839C125.495 104.839 127.378 104.868 129.196 104.94C129.196 104.94 129.197 104.94 129.198 104.941C127.379 104.868 125.496 104.84 123.664 104.84C119.898 104.84 116.351 104.96 114.03 105.061Z" fill="#435EBE"/>
<path d="M114.03 105.06C114.03 105.024 114.03 104.989 114.03 104.952C116.456 104.756 119.12 104.662 121.731 104.662C124.375 104.662 126.966 104.758 129.196 104.94C127.378 104.868 125.495 104.839 123.664 104.839C119.897 104.839 116.351 104.96 114.03 105.06Z" fill="#9597BE"/>
<path d="M130.535 109.44C130.48 109.44 130.424 109.437 130.367 109.432C130.318 109.427 130.268 109.422 130.218 109.417C130.238 108.363 130.216 107.236 130.153 106.033C130.136 105.692 130.117 105.356 130.095 105.02C130.186 105.03 130.277 105.039 130.367 105.047C130.424 105.053 130.48 105.057 130.535 105.057C130.703 105.057 130.865 105.031 131.017 104.983C131.018 104.999 131.019 105.014 131.02 105.03C131.04 105.346 131.057 105.663 131.074 105.982C131.136 107.178 131.159 108.289 131.139 109.32C130.953 109.399 130.749 109.44 130.535 109.44ZM113.45 109.378C113.173 109.378 112.91 109.31 112.679 109.186C112.802 109.02 112.874 108.928 112.874 108.928C112.874 108.928 113.104 107.525 113.107 105.102C113.107 105.055 113.107 105.007 113.107 104.958C113.217 104.983 113.33 104.994 113.446 104.994C113.494 104.994 113.541 104.992 113.589 104.988C113.735 104.976 113.882 104.963 114.03 104.952C114.03 104.988 114.03 105.024 114.03 105.06C114.03 105.061 114.03 105.06 114.03 105.061C114.031 107.54 113.798 109 113.786 109.078C113.769 109.178 113.736 109.275 113.689 109.364C113.656 109.367 113.622 109.37 113.589 109.373C113.542 109.376 113.496 109.378 113.45 109.378Z" fill="#371A45"/>
<path d="M130.366 105.048C125.711 104.571 118.996 104.517 113.589 104.988C112.665 105.068 111.855 104.368 111.813 103.439C111.779 102.674 111.723 101.852 111.64 100.978C111.556 100.101 112.173 99.31 113.045 99.1941C118.519 98.4649 125.508 98.2427 130.31 98.5537C131.092 98.6049 131.726 99.2096 131.819 99.9891C131.95 101.063 132.061 102.158 132.154 103.276C132.24 104.299 131.385 105.152 130.366 105.048Z" fill="white"/>
<path d="M112.176 104.393C112.133 104.339 112.092 104.282 112.055 104.223C112.092 104.282 112.133 104.339 112.176 104.392V104.393Z" fill="#3F4694"/>
<path d="M131.899 104.309C131.91 104.293 131.92 104.275 131.929 104.258C131.92 104.275 131.91 104.293 131.899 104.309Z" fill="#B9AFBE"/>
<path d="M131.017 104.983C131.383 104.868 131.694 104.625 131.899 104.308V104.309C131.694 104.626 131.383 104.869 131.017 104.983ZM113.107 104.959C112.737 104.88 112.41 104.678 112.177 104.393V104.392C112.41 104.678 112.737 104.88 113.107 104.959Z" fill="#371A45"/>
<path d="M130.095 105.022C129.803 104.993 129.504 104.966 129.198 104.941C129.202 104.941 129.205 104.941 129.208 104.941C129.511 104.967 129.807 104.993 130.095 105.021V105.022Z" fill="#8C7B94"/>
<path d="M129.21 104.941C129.207 104.941 129.202 104.941 129.198 104.941C129.198 104.94 129.196 104.94 129.196 104.94C129.2 104.94 129.203 104.941 129.208 104.941H129.21Z" fill="#3F4694"/>
<path d="M114.03 104.952C114.03 104.951 114.03 104.951 114.03 104.951C116.455 104.755 119.118 104.661 121.728 104.661C124.378 104.661 126.974 104.758 129.207 104.941C129.203 104.941 129.199 104.94 129.196 104.94C126.966 104.758 124.375 104.662 121.731 104.662C119.12 104.662 116.456 104.756 114.03 104.952Z" fill="#746B94"/>
<path d="M130.535 105.057C130.48 105.057 130.424 105.053 130.367 105.048C130.277 105.039 130.186 105.03 130.095 105.021V105.02C130.186 105.029 130.277 105.039 130.367 105.048C130.424 105.053 130.48 105.056 130.536 105.056C130.703 105.056 130.865 105.031 131.017 104.983C131.017 104.983 131.017 104.983 131.017 104.984C130.865 105.031 130.703 105.057 130.535 105.057ZM113.446 104.994C113.33 104.994 113.217 104.983 113.106 104.959V104.958C113.216 104.982 113.329 104.993 113.444 104.993C113.492 104.993 113.541 104.991 113.589 104.987C113.735 104.975 113.882 104.962 114.03 104.951C114.03 104.951 114.03 104.951 114.03 104.952C113.882 104.963 113.735 104.976 113.589 104.988C113.541 104.993 113.493 104.994 113.446 104.994Z" fill="#371A45"/>
<path d="M132.055 102.156C132.007 101.658 131.955 101.166 131.9 100.678C131.956 101.166 132.007 101.659 132.055 102.156Z" fill="#B9AFBE"/>
<path d="M130.512 98.5799C130.446 98.5664 130.379 98.5587 130.31 98.5539C130.148 98.5432 129.984 98.5336 129.817 98.5239C129.983 98.5336 130.148 98.5442 130.309 98.5529C130.378 98.5577 130.446 98.5664 130.512 98.5799Z" fill="#371A45"/>
<path d="M130.536 105.056C130.48 105.056 130.424 105.053 130.367 105.049C130.277 105.039 130.186 105.029 130.095 105.021C129.807 104.994 129.511 104.967 129.209 104.941C129.208 104.941 129.207 104.941 129.207 104.941C126.973 104.758 124.378 104.661 121.728 104.661C119.118 104.661 116.455 104.755 114.03 104.951C113.882 104.963 113.735 104.975 113.589 104.988C113.541 104.992 113.492 104.994 113.445 104.994C113.329 104.994 113.216 104.982 113.106 104.959C112.737 104.881 112.41 104.678 112.177 104.392C112.133 104.339 112.092 104.282 112.055 104.223C111.914 103.995 111.827 103.728 111.814 103.439C111.797 103.038 111.773 102.618 111.74 102.185C114.203 101.98 116.918 101.882 119.578 101.882C122.701 101.882 125.746 102.017 128.214 102.268C128.27 102.275 128.326 102.277 128.382 102.277C129.326 102.277 130.083 101.462 130.002 100.495C129.946 99.8308 129.884 99.174 129.818 98.5239C129.984 98.5336 130.148 98.5432 130.311 98.5539C130.379 98.5587 130.446 98.5674 130.513 98.5799C131.199 98.7132 131.734 99.2793 131.82 99.9892C131.848 100.218 131.875 100.447 131.9 100.678C131.955 101.166 132.007 101.658 132.055 102.156C132.09 102.527 132.122 102.9 132.153 103.275C132.184 103.636 132.098 103.976 131.929 104.26C131.919 104.276 131.91 104.292 131.899 104.309C131.694 104.626 131.383 104.868 131.017 104.983C130.865 105.031 130.703 105.056 130.536 105.056Z" fill="#B9AFBE"/>
<path d="M130.46 104.128C130.745 104.156 130.935 104.016 131.022 103.93C131.176 103.779 131.253 103.569 131.235 103.353C131.144 102.257 131.032 101.163 130.904 100.101C130.862 99.7612 130.588 99.4995 130.251 99.4772C125.296 99.1546 118.432 99.4096 113.167 100.111C112.79 100.161 112.522 100.504 112.559 100.89C112.639 101.733 112.698 102.576 112.735 103.398C112.744 103.589 112.828 103.764 112.973 103.89C113.121 104.021 113.314 104.085 113.509 104.065C118.795 103.606 125.608 103.631 130.46 104.128ZM130.534 105.982C130.447 105.982 130.36 105.977 130.273 105.968C125.524 105.482 118.851 105.458 113.668 105.909C112.978 105.969 112.279 105.741 111.756 105.282C111.23 104.821 110.922 104.181 110.891 103.482C110.855 102.69 110.798 101.878 110.721 101.066C110.59 99.6839 111.558 98.4592 112.924 98.2776C118.297 97.5618 125.309 97.302 130.37 97.6314C131.593 97.7106 132.589 98.6562 132.737 99.8781C132.867 100.964 132.981 102.08 133.075 103.199C133.139 103.965 132.862 104.712 132.315 105.25C131.836 105.722 131.198 105.982 130.534 105.982Z" fill="#371A45"/>
<path d="M114.015 60.987C107.907 66.2866 82.1642 94.0398 82.1642 94.0398L74.7529 66.3013C76.4532 61.9638 78.4232 57.6021 80.6682 53.3047L111.949 55.3009C112.679 57.2151 113.367 59.1123 114.015 60.987Z" fill="white"/>
<path d="M114.015 60.987C107.907 66.2866 82.1642 94.0398 82.1642 94.0398L74.7529 66.3013C76.4532 61.9638 78.4232 57.6021 80.6682 53.3047L111.949 55.3009C112.679 57.2151 113.367 59.1123 114.015 60.987Z" fill="white"/>
<path d="M75.7229 66.3562L82.6243 92.1869C87.5878 86.8513 106.912 66.1475 112.94 60.705C112.412 59.1943 111.86 57.6785 111.297 56.1858L81.2092 54.2656C79.1972 58.1618 77.3537 62.2253 75.7229 66.3562ZM82.1638 94.9646C82.0897 94.9646 82.0145 94.9556 81.9409 94.9371C81.6147 94.8561 81.3586 94.604 81.2721 94.2787L73.8608 66.5402C73.8103 66.3495 73.821 66.1469 73.8934 65.9629C75.6494 61.4843 77.6536 57.081 79.8497 52.8758C80.0193 52.5517 80.3681 52.3587 80.7263 52.3812L112.007 54.3775C112.368 54.4006 112.681 54.6323 112.811 54.9705C113.528 56.852 114.227 58.774 114.887 60.6842C115.011 61.0415 114.905 61.4387 114.619 61.6863C108.619 66.8924 83.0971 94.3924 82.8399 94.6692C82.663 94.86 82.4165 94.9646 82.1638 94.9646Z" fill="#371A45"/>
<path d="M75.7229 66.3562L82.6243 92.1874C86.2148 88.3299 97.5456 76.1907 105.659 67.886C108.995 64.4714 111.439 62.0604 112.94 60.7056C112.412 59.1943 111.86 57.6785 111.297 56.1858L81.2092 54.2656C79.1972 58.1618 77.3537 62.2253 75.7229 66.3562ZM82.1638 94.9646C82.0897 94.9646 82.0145 94.9556 81.9409 94.9371C81.6147 94.8561 81.3586 94.604 81.2721 94.2787L73.8608 66.5402C73.8103 66.3495 73.821 66.1469 73.8934 65.9629C75.6494 61.4843 77.6536 57.081 79.8497 52.8758C80.0193 52.5517 80.3681 52.3587 80.7263 52.3812L112.007 54.3775C112.368 54.4006 112.681 54.6323 112.811 54.9705C113.528 56.852 114.227 58.774 114.887 60.6842C115.011 61.0415 114.905 61.4387 114.619 61.6863C113.225 62.896 110.654 65.4172 106.978 69.1802C97.285 79.1019 82.9831 94.5151 82.8399 94.6692C82.663 94.86 82.4165 94.9646 82.1638 94.9646Z" fill="#371A45"/>
<path d="M83.5045 71.4404L81.7795 73.7366C81.4549 74.1688 81.3903 74.7438 81.611 75.2372L82.811 77.9172C83.0401 78.4286 83.5371 78.7667 84.0958 78.7921L86.0157 78.8798C86.4644 78.9001 86.8979 78.7155 87.1949 78.3779L89.2227 76.07C89.6708 75.5601 89.7157 74.8107 89.3327 74.2498L87.4482 71.4945C87.1719 71.0905 86.7148 70.8491 86.2263 70.8491H84.6883C84.2227 70.8491 83.7842 71.068 83.5045 71.4404Z" fill="#EC1C24"/>
<path d="M84.2421 71.9971L82.517 74.2926C82.3946 74.4559 82.3704 74.6724 82.4541 74.8587L83.6535 77.5386C83.7406 77.7327 83.926 77.8588 84.1382 77.8683L86.0576 77.956C86.2272 77.9656 86.39 77.8947 86.5023 77.7664L88.5301 75.4591C88.6991 75.2667 88.7159 74.9841 88.5716 74.7732L86.687 72.0173C86.5831 71.8648 86.4108 71.7737 86.226 71.7737H84.6886C84.5139 71.7737 84.3471 71.8576 84.2421 71.9971ZM86.0851 79.8066C86.048 79.8066 86.011 79.8055 85.9739 79.8038L84.0539 79.7166C83.142 79.675 82.3429 79.1303 81.9689 78.2954L80.7695 75.616C80.4107 74.8148 80.5151 73.8814 81.0418 73.1803L82.7669 70.8841H82.7675C83.2189 70.2833 83.9372 69.9243 84.6886 69.9243H86.226C87.0201 69.9243 87.7619 70.3159 88.2105 70.9719L90.0945 73.7272C90.7173 74.6382 90.6437 75.8529 89.916 76.6817L87.8882 78.9891C87.4277 79.5123 86.7764 79.8066 86.0851 79.8066Z" fill="#371A45"/>
<path d="M83.0349 130.136C82.6071 130.136 82.2229 129.836 82.132 129.4C78.2124 110.532 81.2251 94.0329 81.256 93.8686C81.3503 93.3667 81.8327 93.0359 82.3336 93.1311C82.8344 93.2249 83.1647 93.7089 83.0703 94.2108C83.04 94.3717 80.0981 110.529 83.9395 129.022C84.0435 129.522 83.7228 130.012 83.2242 130.116C83.1607 130.13 83.0973 130.136 83.0349 130.136Z" fill="#371A45"/>
<path d="M96.5742 80.0277C98.178 78.3352 99.816 76.6129 101.429 74.9284C106.228 73.5319 110.711 71.2064 114.614 68.0894C114.51 68.3994 114.575 68.7555 114.813 69.0122C114.924 69.132 115.034 69.2518 115.144 69.3717L114.128 72.2738C114.128 72.2744 114.127 72.2743 114.126 72.2749C109.006 76.393 102.93 79.0295 96.5742 80.0277Z" fill="#435EBE"/>
<path d="M116.232 67.8259C116.209 67.8017 116.187 67.778 116.165 67.7533C115.983 67.5569 115.736 67.4579 115.488 67.4579C115.45 67.4579 115.413 67.4602 115.375 67.4647C115.574 67.297 115.771 67.1282 115.967 66.9561C116.056 67.2469 116.145 67.5367 116.232 67.8259Z" fill="#371A45"/>
<path d="M114.128 72.2738L115.144 69.3716C115.407 69.6586 115.666 69.9455 115.921 70.2325C115.999 70.3281 116.077 70.4243 116.154 70.52C115.498 71.1316 114.821 71.7167 114.128 72.2738Z" fill="#435EBE"/>
<path d="M116.154 70.5199C116.077 70.4243 115.999 70.328 115.921 70.2324C116.003 70.3241 116.085 70.4169 116.166 70.5087C116.162 70.5126 116.158 70.516 116.154 70.5199Z" fill="#9597BE"/>
<path d="M116.167 70.5087C116.085 70.4171 116.003 70.3242 115.921 70.2325C115.666 69.9455 115.407 69.6585 115.144 69.3717C115.034 69.2518 114.924 69.1319 114.813 69.0121C114.575 68.7555 114.51 68.3994 114.614 68.0893C114.869 67.8846 115.124 67.6758 115.375 67.4648C115.413 67.4603 115.451 67.458 115.489 67.458C115.736 67.458 115.983 67.5571 116.165 67.7535C116.188 67.7782 116.21 67.8019 116.232 67.826C116.439 68.5102 116.64 69.1905 116.836 69.8674L116.834 69.8696C116.614 70.0857 116.391 70.2988 116.167 70.5087Z" fill="#371A45"/>
<path d="M71.3555 74.9631C71.2871 74.9215 71.2191 74.8793 71.1512 74.8365C70.5868 74.4792 70.0325 74.1146 69.4957 73.7382C68.3917 72.964 67.34 72.1408 66.3427 71.2704C64.9018 70.0112 63.5738 68.6586 62.3647 67.2256C64.6221 68.3204 67.0295 69.2376 69.6327 69.9932C69.954 70.2081 70.2954 70.4298 70.6632 70.6622C71.3089 71.0651 71.9671 71.4488 72.6353 71.8123C72.1811 72.8711 71.7015 73.9402 71.3555 74.9631Z" fill="#435EBE"/>
<path d="M69.6328 69.9931C67.0296 69.2375 64.6222 68.3204 62.3648 67.2255C61.8813 66.6522 61.4169 66.066 60.9722 65.4678C62.8197 66.4789 64.8822 67.4163 67.2272 68.2445C67.7977 68.6934 68.379 69.125 68.9651 69.5352C69.1792 69.6854 69.4004 69.8379 69.6328 69.9931Z" fill="#371A45"/>
<path d="M76.8558 77.7508C76.7098 77.6912 76.5638 77.6309 76.4178 77.5691C76.1359 77.4498 75.8563 77.3283 75.5766 77.1995C74.2373 76.5996 72.9233 75.9098 71.6363 75.1312C71.5419 75.0754 71.4487 75.0197 71.3555 74.9629C71.7013 73.94 72.1809 72.8709 72.6352 71.812C72.8587 71.9341 73.0834 72.0534 73.3091 72.1705C74.0076 72.5328 74.7158 72.8732 75.4306 73.1894C75.5087 73.2237 75.5867 73.2581 75.6648 73.2918L76.8558 77.7508Z" fill="#435EBE"/>
<path d="M90.7877 80.4799C90.2211 80.4799 89.6546 80.4669 89.0868 80.441C88.377 80.4062 87.6666 80.3538 86.9535 80.2824C85.0033 80.0765 83.058 79.7192 81.1353 79.1959C80.4127 79.0001 79.6933 78.7818 78.9778 78.541L77.8042 74.1484C78.719 74.4826 79.6523 74.7831 80.5946 75.047C80.6288 75.2405 80.6866 75.4313 80.7692 75.6158L81.9687 78.2951C82.3426 79.1301 83.1417 79.6748 84.0537 79.7164L85.9736 79.8035C86.0106 79.8053 86.0477 79.8064 86.0848 79.8064C86.776 79.8064 87.4275 79.5121 87.8879 78.9889L89.9157 76.6814C89.9836 76.6038 90.0459 76.5228 90.1026 76.439C90.3311 76.443 90.5597 76.4452 90.7877 76.4452C93.2635 76.4452 95.7097 76.2038 98.0957 75.7374C96.6165 77.2897 95.138 78.8493 93.7055 80.3651C92.7363 80.4416 91.7632 80.4799 90.7877 80.4799Z" fill="#B9AFBE"/>
<path d="M93.7055 80.3651C95.138 78.8493 96.6165 77.2897 98.0956 75.7374C98.0973 75.7368 98.099 75.7362 98.1007 75.7362C96.6221 77.2879 95.1436 78.8476 93.7099 80.3651C93.7089 80.3651 93.7066 80.3651 93.7055 80.3651ZM96.5721 80.028C98.1765 78.3345 99.8145 76.6123 101.426 74.9288C101.427 74.9282 101.428 74.9282 101.428 74.9282C99.8156 76.6128 98.1776 78.3351 96.5739 80.0275C96.5733 80.028 96.5727 80.028 96.5721 80.028ZM78.9778 78.541V78.5404L77.8042 74.1484L78.9778 78.541Z" fill="#371A45"/>
<path d="M93.7103 80.3651C95.1439 78.8475 96.6224 77.2879 98.101 75.7361C99.2235 75.5161 100.333 75.2466 101.426 74.9287C99.8148 76.6121 98.1768 78.3344 96.5724 80.028C95.624 80.1771 94.6688 80.2896 93.7103 80.3651ZM78.9782 78.5404C78.2661 78.3001 77.558 78.0373 76.8561 77.7509L75.665 73.292C75.7964 73.3494 75.9285 73.4056 76.0604 73.4613C76.0615 73.4619 76.0632 73.4625 76.0643 73.4631C76.6354 73.7049 77.2166 73.9334 77.8046 74.1483L78.9782 78.5404Z" fill="#371A45"/>
<path d="M86.0886 77.9564C86.078 77.9564 86.0678 77.9564 86.0578 77.9558L84.1384 77.8681C83.9262 77.8586 83.7409 77.7325 83.6538 77.5384L82.7817 75.5894C84.1227 75.8797 85.4878 76.0986 86.8614 76.2426C87.1629 76.273 87.4661 76.3 87.7699 76.3242L86.5025 77.7662C86.3969 77.8867 86.2469 77.9564 86.0886 77.9564Z" fill="#AD1B30"/>
<path d="M86.0849 79.8068C86.0478 79.8068 86.0108 79.8056 85.9737 79.804L84.0538 79.7168C83.1419 79.6751 82.3427 79.1305 81.9687 78.2955L80.7693 75.6162C80.6868 75.4316 80.6289 75.2409 80.5947 75.0474C80.6947 75.0749 80.7941 75.1025 80.894 75.1295C81.5162 75.2989 82.1456 75.4525 82.7813 75.5897L83.6535 77.5387C83.7405 77.7329 83.9258 77.8589 84.138 77.8685L86.0574 77.9562C86.0675 77.9568 86.0776 77.9568 86.0883 77.9568C86.2466 77.9568 86.3966 77.887 86.5021 77.7666L87.7695 76.3246C88.1951 76.3583 88.6219 76.3853 89.0459 76.4056C89.3985 76.4219 89.7506 76.4332 90.1028 76.4393C90.046 76.5232 89.9837 76.6042 89.9157 76.6819L87.888 78.9892C87.4275 79.5125 86.7762 79.8068 86.0849 79.8068Z" fill="#371A45"/>
<path d="M55.7858 50.797C57.8792 56.6677 61.4445 62.0387 66.3417 66.3108C67.3407 67.1813 68.3908 68.0055 69.4959 68.7786C70.0322 69.1562 70.5864 69.5207 71.1514 69.8775C72.8596 70.9431 74.6195 71.8518 76.4175 72.6086C77.9663 73.2646 79.5447 73.8053 81.1362 74.2369C83.0577 74.7595 85.0041 75.118 86.9543 75.3222C87.6658 75.3942 88.3773 75.4472 89.0882 75.4815C102.102 76.0768 115.045 69.8027 122.421 57.933C133.287 40.4499 127.948 17.4517 110.502 6.56441C107.141 4.46967 103.573 2.97024 99.9287 2.05312C99.5037 1.94172 99.0735 1.8427 98.6423 1.75211C97.4905 1.50342 96.3332 1.31099 95.1736 1.17482C92.4923 0.860302 89.798 0.844546 87.1424 1.11293C84.488 1.37793 81.8662 1.92933 79.333 2.75305C78.5278 3.01468 77.731 3.30276 76.942 3.6201C75.7605 4.09722 74.6015 4.63117 73.4677 5.23209C67.8146 8.20737 62.8523 12.6833 59.2337 18.5089C52.9821 28.5656 52.0948 40.4453 55.7858 50.797Z" fill="white"/>
<path d="M90.8785 1.01801C89.6351 1.01801 88.3907 1.08045 87.152 1.20536C84.5094 1.46981 81.8886 2.02009 79.3623 2.84211C78.5492 3.10543 77.7467 3.39688 76.9768 3.7069C75.7746 4.19191 74.6088 4.7326 73.511 5.31438C67.7069 8.36956 62.7973 12.949 59.3129 18.558C53.2859 28.2535 52.0326 39.9932 55.8735 50.7662C58.0029 56.7382 61.6439 62.0889 66.4025 66.2407C67.4104 67.1184 68.4689 67.9471 69.5493 68.7023C70.0446 69.0511 70.5853 69.4101 71.2014 69.7989C72.8804 70.8465 74.6475 71.7631 76.454 72.5227C77.9663 73.1635 79.5498 73.7104 81.1604 74.147C83.0443 74.6595 84.9968 75.0236 86.9638 75.2301C87.6692 75.301 88.3857 75.3544 89.0922 75.3888C89.6581 75.4147 90.2248 75.4276 90.788 75.4276C103.578 75.4281 115.551 68.8137 122.341 57.8837C133.162 40.4737 127.829 17.4873 110.453 6.64335C107.155 4.58857 103.607 3.07449 99.9058 2.14331C99.4998 2.03697 99.0803 1.93907 98.6232 1.84341C97.4788 1.59641 96.3147 1.40285 95.163 1.26726C93.7439 1.10127 92.312 1.01801 90.8785 1.01801ZM90.788 75.6139C90.2214 75.6139 89.6531 75.6009 89.0837 75.5745C88.3733 75.5406 87.654 75.4866 86.9448 75.4153C84.9676 75.2076 83.0051 74.8419 81.1114 74.3271C79.4932 73.8876 77.9017 73.3385 76.3816 72.6942C74.5667 71.9308 72.7906 71.0097 71.1026 69.9564C70.4837 69.5659 69.9407 69.2052 69.4426 68.8547C68.3572 68.0957 67.293 67.2636 66.2806 66.3808C61.4979 62.2088 57.8389 56.8304 55.6988 50.8286C51.8383 40.0016 53.0977 28.204 59.1546 18.4596C62.6569 12.8223 67.5912 8.22046 73.4245 5.15009C74.528 4.56494 75.6994 4.02143 76.9072 3.53417C77.6816 3.22246 78.4879 2.92989 79.305 2.66488C81.8437 1.83891 84.478 1.28582 87.1335 1.02026C89.8143 0.749628 92.5231 0.770454 95.1843 1.08272C96.3422 1.21832 97.5119 1.41355 98.662 1.66168C99.1219 1.75789 99.5441 1.85637 99.9524 1.96326C103.671 2.89895 107.237 4.42034 110.551 6.48526C128.015 17.3837 133.374 40.4849 122.499 57.9822C115.676 68.9662 103.641 75.6133 90.788 75.6139Z" fill="#371A45"/>
<path d="M90.7894 74.5954C90.2391 74.5954 89.6849 74.583 89.1318 74.5577C89.0492 74.5537 88.9661 74.5493 88.8836 74.5448C94.7635 74.0767 100.403 72.2807 105.259 69.2362C109.803 66.387 113.485 62.62 116.197 58.0924C117.277 59.0815 118.499 59.7607 119.814 60.105C112.979 69.194 102.218 74.5954 90.7894 74.5954ZM85.7754 72.8192C82.7677 72.8192 79.7192 72.4591 76.7076 71.7276C76.5375 71.6555 76.3674 71.5818 76.1977 71.5071C76.1977 71.5071 76.1972 71.5065 76.1966 71.5065C76.1843 71.5008 76.1713 71.4952 76.1585 71.4896C76.1567 71.489 76.1557 71.4884 76.1539 71.4874C76.1421 71.4822 76.1309 71.4772 76.1191 71.4721C76.1169 71.471 76.1141 71.4699 76.1113 71.4687C76.1005 71.4637 76.0899 71.4592 76.0793 71.4541C76.0759 71.453 76.0731 71.4513 76.0691 71.4502C76.0596 71.4457 76.0495 71.4412 76.0399 71.4367C76.0355 71.435 76.0315 71.4328 76.027 71.4311C76.018 71.4271 76.0096 71.4232 76.0012 71.4193C75.9956 71.417 75.99 71.4141 75.9849 71.4119C75.977 71.4085 75.9698 71.4052 75.9619 71.4018C75.9552 71.399 75.949 71.3962 75.9428 71.3928C75.936 71.39 75.9294 71.3872 75.9226 71.3838C75.9152 71.381 75.908 71.3776 75.9006 71.3743C75.895 71.3715 75.8894 71.3691 75.8838 71.3663C75.8754 71.3624 75.867 71.3591 75.8586 71.3551C75.8541 71.3528 75.8496 71.3512 75.8451 71.3489C75.8355 71.3444 75.8266 71.3405 75.817 71.336C75.8136 71.3343 75.8097 71.3332 75.8063 71.3315C75.7962 71.3264 75.7855 71.3219 75.7749 71.3169C75.7727 71.3157 75.7704 71.3146 75.7681 71.3141C75.7569 71.3084 75.7451 71.3034 75.7333 71.2978C75.7323 71.2972 75.7305 71.2966 75.7294 71.296C75.7171 71.2904 75.7041 71.2842 75.6917 71.2786H75.6913C74.3031 70.6394 72.9447 69.9068 71.6436 69.095C71.0394 68.7135 70.5104 68.3624 70.0241 68.0203C68.9959 67.3012 67.9868 66.5141 67.0249 65.6802C72.8257 69.0691 79.289 70.8538 85.7209 70.8538C89.0694 70.8538 92.4112 70.3699 95.6445 69.3763C103.439 66.9822 109.59 61.9521 113.384 55.0772C113.495 54.9764 113.607 54.8734 113.717 54.7711C114.06 55.444 114.453 56.0747 114.895 56.6565C112.304 61.1532 108.729 64.879 104.279 67.6681C98.8672 71.0614 92.4207 72.8192 85.7754 72.8192ZM126.662 32.5572C126.238 32.3861 125.801 32.2517 125.354 32.156C125.529 30.7814 125.628 29.4036 125.65 28.0278C126.082 29.5144 126.421 31.0274 126.662 32.5572Z" fill="#B9AFBE"/>
<path d="M90.8785 1.64185C89.656 1.64185 88.4324 1.70319 87.215 1.82641C84.6156 2.08578 82.0387 2.62705 79.5544 3.43501C78.7547 3.69439 77.9658 3.98077 77.2094 4.28573C76.0274 4.76229 74.8813 5.294 73.8025 5.86565C68.0944 8.87018 63.2674 13.3725 59.8414 18.8876C53.9154 28.4205 52.6829 39.9632 56.4604 50.5562C58.5538 56.4275 62.1331 61.6888 66.8118 65.7702C67.8024 66.6332 68.8435 67.448 69.9054 68.1907C70.3939 68.5344 70.9263 68.8878 71.5333 69.271C73.1815 70.299 74.9195 71.2003 76.695 71.9475C78.1831 72.5782 79.7398 73.1156 81.3227 73.5448C83.1752 74.0484 85.0952 74.4068 87.0291 74.6093C87.7209 74.6792 88.4262 74.732 89.1225 74.7652C89.6784 74.7905 90.2361 74.8035 90.7892 74.8035C103.364 74.8041 115.137 68.3004 121.813 57.5538C132.453 40.4359 127.209 17.8348 110.124 7.17268C106.881 5.15222 103.392 3.664 99.7542 2.74858C99.3527 2.64336 98.9434 2.54771 98.4964 2.45431C97.3671 2.21068 96.2227 2.01996 95.0906 1.88661C93.6963 1.72344 92.288 1.64185 90.8785 1.64185ZM90.7881 76.2371C90.2119 76.2371 89.6347 76.2241 89.0551 76.1978C88.3325 76.1628 87.6024 76.1088 86.882 76.0357C84.87 75.8247 82.8743 75.4522 80.9488 74.929C79.3034 74.4822 77.685 73.9241 76.1391 73.2691C74.2956 72.4932 72.4897 71.5565 70.7735 70.4863C70.143 70.0879 69.5915 69.7216 69.0845 69.3655C67.9833 68.5947 66.9017 67.7485 65.8719 66.8516C61.0088 62.6087 57.2881 57.1409 55.1121 51.0384C51.1875 40.0313 52.4683 28.0362 58.6262 18.1296C62.1864 12.3985 67.2038 7.71901 73.1348 4.59745C74.2557 4.0033 75.4473 3.45076 76.6748 2.95507C77.4627 2.63773 78.2825 2.34067 79.1131 2.07116C81.6939 1.23169 84.3719 0.66903 87.0718 0.399528C89.7958 0.123827 92.5496 0.145206 95.2569 0.462535C96.4344 0.600945 97.6243 0.799017 98.7934 1.05164C99.259 1.14899 99.6914 1.24969 100.11 1.35941C103.885 2.30916 107.511 3.85645 110.88 5.95512C128.635 17.0359 134.084 40.5231 123.028 58.3117C116.09 69.4786 103.856 76.2371 90.7881 76.2371Z" fill="#371A45"/>
<path d="M90.8785 1.84936C89.6627 1.84936 88.4464 1.91071 87.2357 2.0328C84.6509 2.29105 82.0886 2.82949 79.6184 3.63296C78.8232 3.89065 78.0388 4.17536 77.2863 4.47862C76.1116 4.95236 74.9716 5.48126 73.8996 6.04953C68.2235 9.03718 63.424 13.5142 60.0178 18.9972C54.1254 28.4761 52.9002 39.9535 56.6552 50.4858C58.7368 56.3237 62.2959 61.5547 66.9477 65.6131C67.9332 66.4717 68.9681 67.2813 70.0244 68.0201C70.5107 68.3622 71.0397 68.7133 71.644 69.0948C73.282 70.1165 75.0098 71.0128 76.7753 71.7555C78.255 72.3829 79.8026 72.9168 81.3771 73.3438C83.219 73.8447 85.1277 74.2008 87.0504 74.4022C87.7383 74.472 88.4397 74.5243 89.132 74.5575C89.6852 74.5828 90.2394 74.5952 90.7898 74.5952C103.293 74.5958 114.998 68.1293 121.636 57.444C132.216 40.4233 127.002 17.9507 110.014 7.34925C106.79 5.34003 103.321 3.86027 99.7037 2.94991C99.3033 2.84525 98.8973 2.75018 98.4543 2.65791C97.3295 2.41484 96.1918 2.22523 95.0665 2.09356C93.68 1.93096 92.2801 1.84936 90.8785 1.84936ZM90.788 76.4452C90.2091 76.4452 89.6279 76.4322 89.0462 76.4053C88.319 76.3703 87.585 76.3157 86.8611 76.2426C84.8374 76.0305 82.8304 75.6558 80.8942 75.1291C79.2399 74.6808 77.6125 74.1192 76.0582 73.4603C74.2051 72.6805 72.3891 71.7386 70.664 70.6623C70.0294 70.2617 69.4747 69.8937 68.9653 69.5354C67.858 68.7611 66.7708 67.9104 65.7359 67.0084C60.846 62.7425 57.1044 57.2443 54.9172 51.108C50.9707 40.0407 52.2583 27.9804 58.4499 18.0198C62.0297 12.2572 67.0746 7.55237 73.0382 4.41337C74.1646 3.8164 75.363 3.26049 76.5973 2.76254C77.3896 2.44296 78.214 2.14421 79.049 1.87302C81.6438 1.02904 84.3365 0.463563 87.0516 0.192366C89.7902 -0.0838945 92.5591 -0.0625088 95.281 0.255949C96.4653 0.394926 97.6613 0.594096 98.8367 0.847851C99.3049 0.945752 99.7401 1.0476 100.162 1.15788C103.957 2.1127 107.602 3.66785 110.99 5.77833C128.841 16.9199 134.321 40.5353 123.204 58.4219C116.228 69.6495 103.927 76.4452 90.788 76.4452Z" fill="#371A45"/>
<path d="M60.1195 59.3098C79.3429 77.7326 110.315 71.5125 115.876 45.7094C119.661 28.1543 105.427 10.8883 88.3669 8.32661C75.9501 6.462 63.0137 10.0843 54.8579 28.6021C54.8579 28.6021 52.5107 37.3587 54.0061 43.6614C55.5015 49.9647 58.0171 55.8416 58.0171 55.8416L60.1195 59.3098Z" fill="#371A45"/>
<path d="M115.876 45.7093C110.315 71.5118 79.3422 77.7313 60.1195 59.3107L59.6943 58.6069C82.7513 66.5172 108.572 55.95 114.68 29.9658C116.497 34.902 117.043 40.2916 115.876 45.7093Z" fill="#220F2D"/>
<path d="M76.7079 71.7274C86.3732 74.0753 96.4181 72.5972 104.28 67.6678C111.787 62.9607 116.809 55.5872 118.802 46.344C120.626 37.8852 118.698 28.9734 113.372 21.2505C107.541 12.7962 98.2987 6.88331 88.6474 5.43449C83.2499 4.62371 78.2589 4.84652 73.812 6.0956C68.1758 9.08157 63.4072 13.5411 60.0178 18.9971C54.1254 28.4761 52.9002 39.9535 56.6552 50.4857C58.7368 56.3237 62.2959 61.5546 66.9477 65.6131C67.9332 66.4717 68.9681 67.2813 70.0244 68.02C70.5107 68.3621 71.0397 68.7132 71.644 69.0947C73.2612 70.1035 74.966 70.9903 76.7079 71.7274ZM85.7718 74.6683C82.5946 74.6683 79.3758 74.2851 76.1986 73.507C76.1514 73.4952 76.1054 73.48 76.0605 73.4614C74.2051 72.6804 72.3891 71.7386 70.6635 70.6623C70.0294 70.2616 69.4747 69.8937 68.9653 69.5352C67.858 68.7611 66.7708 67.9103 65.7359 67.0084C60.846 62.7424 57.1044 57.2442 54.9172 51.108C50.9707 40.0407 52.2583 27.9804 58.4499 18.0198C62.0297 12.2571 67.0746 7.5523 73.0382 4.41328C73.0949 4.38347 73.1545 4.35982 73.2157 4.34239C77.9405 2.99766 83.2246 2.74951 88.9215 3.60474C99.0674 5.12839 108.775 11.3316 114.891 20.1989C120.509 28.3472 122.54 37.771 120.607 46.7346C118.506 56.4767 113.199 64.2576 105.259 69.2359C99.552 72.8138 92.7619 74.6677 85.7718 74.6683Z" fill="#371A45"/>
<path d="M60.8454 58.7252C70.3513 67.7787 83.4667 71.1821 95.1035 67.6077C105.386 64.4495 112.629 56.3964 114.974 45.5136C116.591 38.0164 114.88 30.1162 110.158 23.2694C104.987 15.7703 96.7893 10.5265 88.2308 9.2414C73.4185 7.01782 62.484 13.6334 55.7326 28.9077C55.5254 29.7167 53.5477 37.7305 54.9043 43.4476C56.2852 49.2659 58.5785 54.7939 58.8413 55.4191L60.8454 58.7252ZM85.7213 70.8535C76.3199 70.8535 66.8517 67.0411 59.4821 59.9782C59.4237 59.9218 59.3731 59.8589 59.331 59.7897L57.2291 56.3221C57.2067 56.2849 57.1865 56.2461 57.1696 56.2062C57.0658 55.9636 54.605 50.1835 53.1085 43.8752C51.5767 37.4188 53.8683 28.7293 53.9665 28.3624C53.9789 28.3168 53.9947 28.2718 54.0137 28.2285C61.1397 12.0496 72.7418 5.04461 88.5043 7.41167C97.5581 8.77159 106.221 14.3064 111.677 22.2178C116.692 29.4894 118.504 37.9015 116.779 45.9041C114.288 57.4603 106.585 66.016 95.6449 69.3761C92.4116 70.3697 89.0698 70.8535 85.7213 70.8535Z" fill="#371A45"/>
<path d="M132.439 46.6118C131.763 53.9369 126.881 59.6776 121.532 59.434C116.184 59.1904 112.396 53.0542 113.071 45.729C113.746 38.4039 118.629 32.6632 123.978 32.9074C129.325 33.151 133.114 39.2867 132.439 46.6118Z" fill="white"/>
<path d="M123.645 33.8246C118.905 33.8246 114.607 39.1214 113.99 45.814C113.624 49.7909 114.66 53.609 116.763 56.0273C118.104 57.5694 119.768 58.428 121.575 58.5102C126.429 58.7336 130.891 53.3559 131.52 46.527L132.439 46.6119L131.52 46.527C131.886 42.5507 130.85 38.7326 128.747 36.3143C127.406 34.7722 125.742 33.9136 123.935 33.8314C123.839 33.8268 123.742 33.8246 123.645 33.8246ZM121.856 60.3664C121.734 60.3664 121.613 60.3636 121.491 60.3579C119.167 60.2522 117.051 59.1747 115.371 57.2426C112.907 54.4085 111.734 50.1813 112.152 45.6441C112.871 37.8465 118.186 31.7147 124.019 31.9831C126.342 32.0894 128.459 33.1669 130.139 35.099C132.603 37.9331 133.776 42.1603 133.358 46.6975C132.655 54.332 127.536 60.3664 121.856 60.3664Z" fill="#371A45"/>
<path d="M132.598 52.0124C130.331 57.2715 125.429 59.544 121.651 57.0881C117.872 54.6315 116.648 48.3771 118.916 43.118C121.183 37.8589 126.085 35.5864 129.863 38.0424C133.642 40.499 134.867 46.7533 132.598 52.0124Z" fill="white"/>
<path d="M126.596 37.1466C125.999 37.1466 125.392 37.2383 124.782 37.4235C122.365 38.156 120.259 40.2457 119.004 43.1562C116.757 48.3658 117.969 54.5792 121.703 57.0064C123.23 57.9989 124.968 58.2414 126.731 57.7069C129.149 56.9743 131.254 54.8852 132.51 51.974C134.756 46.7645 133.545 40.5518 129.811 38.1239C128.812 37.4747 127.723 37.1466 126.596 37.1466ZM124.916 58.1779C123.753 58.1779 122.628 57.8391 121.598 57.169C117.788 54.6922 116.545 48.3715 118.827 43.0797C120.105 40.1162 122.255 37.9872 124.726 37.2383C126.545 36.687 128.34 36.9367 129.915 37.9613C133.726 40.4381 134.969 46.7589 132.687 52.0506C131.409 55.014 129.259 57.1431 126.787 57.892C126.158 58.0827 125.531 58.1779 124.916 58.1779Z" fill="#371A45"/>
<path d="M120.762 56.5284C119.336 55.4627 118.293 53.6706 117.933 51.3435C117.907 51.1781 117.886 51.0127 117.867 50.8467C118.255 53.14 119.248 55.1769 120.762 56.5284Z" fill="#B9AFBE"/>
<path d="M124.076 57.6353C123.443 57.6353 122.833 57.5306 122.257 57.3292C122.07 57.2325 121.885 57.1244 121.703 57.0063C119.121 55.3279 117.745 51.8389 117.885 48.1238C117.994 47.1915 118.206 46.2686 118.507 45.3819C119.327 48.7617 121.686 50.8013 124.476 50.8013C125.367 50.8013 126.301 50.5938 127.244 50.1549C129.761 48.9851 131.754 46.4375 132.754 43.4858C132.825 43.7665 132.881 44.0603 132.928 44.3608C133.708 49.4066 130.984 55.0612 126.843 56.9888C125.901 57.4277 124.966 57.6353 124.076 57.6353Z" fill="#B9AFBE"/>
<path d="M122.257 57.3295C121.726 57.1433 121.224 56.8743 120.762 56.5289C119.248 55.1774 118.255 53.1406 117.867 50.8472C117.769 49.9459 117.778 49.0304 117.884 48.124C117.745 51.8392 119.121 55.3282 121.703 57.0065C121.885 57.1247 122.07 57.2327 122.257 57.3295Z" fill="#371A45"/>
<path d="M126.667 37.4062C123.174 37.4062 119.945 41.7081 119.426 47.1079C119.104 50.4562 119.904 53.5918 121.566 55.4958C122.489 56.5519 123.613 57.1349 124.819 57.1799C124.872 57.1821 124.926 57.1833 124.978 57.1833C128.473 57.1833 131.702 52.8807 132.221 47.4809C132.543 44.1327 131.742 40.9969 130.079 39.0929C129.157 38.0369 128.033 37.4546 126.828 37.409C126.773 37.4073 126.72 37.4062 126.667 37.4062ZM124.969 59.0327C124.896 59.0327 124.823 59.0315 124.749 59.0287C123.024 58.9634 121.442 58.1628 120.177 56.7135C118.186 54.4336 117.219 50.7764 117.588 46.9307C118.207 40.4912 122.372 35.3919 126.896 35.5607C128.623 35.6254 130.204 36.4261 131.47 37.8754C133.46 40.1553 134.428 43.8125 134.058 47.6581L133.139 47.5699L134.058 47.6581C133.449 53.9931 129.398 59.0327 124.969 59.0327Z" fill="#371A45"/>
<path d="M61.4529 48.503C57.964 44.2685 56.2794 39.7646 56.9959 33.917C57.0678 33.3402 57.1638 32.7489 57.2812 32.1446C57.3075 32.0056 57.3367 31.8678 57.3687 31.73L57.3715 31.7221C57.695 30.5151 58.1797 28.9454 58.8742 27.2203C60.966 22.0164 64.9502 15.3963 72.1262 13.0337C75.3572 11.9698 78.4659 11.5596 81.3124 11.5596C90.2887 11.5596 96.6718 15.6332 96.1608 16.1311C96.1608 16.1311 95.0332 16.0349 93.1778 16.0349C87.8612 16.0349 76.5668 16.8254 68.6945 22.9397C68.6833 22.9481 68.6721 22.9571 68.6608 22.9656C66.4276 24.7036 64.7042 27.016 63.6535 29.6465C62.2648 33.1253 61.8162 35.727 61.5095 38.0321C60.5796 45.0433 61.4529 48.503 61.4529 48.503Z" fill="#C3BAC7"/>
<path d="M106.509 40.8476C104.003 40.8476 101.77 38.6567 101.386 35.6938C100.973 32.5126 102.847 29.6459 105.571 29.2908C105.758 29.2667 105.945 29.2549 106.129 29.2549C108.635 29.2549 110.868 31.4458 111.252 34.4087C111.665 37.5899 109.791 40.4566 107.067 40.8116C106.88 40.8358 106.693 40.8476 106.509 40.8476Z" fill="#C3BAC7"/>
<path d="M106.246 47.1328C105.973 46.8138 105.769 46.4109 105.669 45.9535C105.389 44.6588 106.06 43.4137 107.169 43.1729C107.295 43.1454 107.422 43.1318 107.547 43.1318C108.02 43.1318 108.478 43.3204 108.854 43.645C108.042 44.8682 107.169 46.0328 106.246 47.1328Z" fill="#C3BAC7"/>
<path d="M107.806 47.9014C107.22 47.9014 106.657 47.6122 106.246 47.1328C107.17 46.0328 108.042 44.8682 108.854 43.645C109.252 43.9899 109.556 44.489 109.684 45.0798C109.965 46.3744 109.294 47.6195 108.185 47.8609C108.059 47.888 107.932 47.9014 107.806 47.9014Z" fill="#BCB7C0"/>
<path d="M82.0342 95.739C81.7703 95.739 81.5131 95.6254 81.3345 95.4172L73.3505 86.1274C73.1416 85.8842 73.0731 85.5495 73.1703 85.2429L74.1366 82.2074L71.6608 80.8531C71.3649 80.6904 71.1802 80.3793 71.1802 80.0412V70.4508C71.1802 69.94 71.5934 69.5258 72.1033 69.5258C72.6132 69.5258 73.0265 69.94 73.0265 70.4508V79.492L75.6893 80.9493C76.0779 81.1614 76.261 81.6199 76.1268 82.0419L75.0862 85.312L82.3256 93.7354L97.5794 88.473L98.182 83.7282C98.2268 83.3765 98.4689 83.0812 98.8047 82.9681L109.063 79.5258L109.527 70.1673C109.552 69.657 109.985 69.2614 110.494 69.289C111.004 69.3143 111.396 69.7486 111.37 70.259L110.876 80.2483C110.857 80.6285 110.607 80.9583 110.247 81.0792L99.9407 84.5379L99.3382 89.277C99.2938 89.6265 99.0552 89.9201 98.7227 90.0344L82.3346 95.6884C82.2363 95.7221 82.1347 95.739 82.0342 95.739Z" fill="#371A45"/>
<path d="M86.9898 78.5681L87.9011 87.8895L82.1633 94.0399L80.0737 86.2174L82.9899 78.2114L86.9898 78.5681Z" fill="#EC1C24"/>
<path d="M81.0404 86.26L82.6245 92.1903L86.941 87.563L86.1454 79.4216L83.6134 79.1954L81.0404 86.26ZM82.1629 94.9647C82.0889 94.9647 82.0136 94.9557 81.9394 94.9372C81.6137 94.8555 81.3583 94.6034 81.2717 94.2788L79.1817 86.4564C79.1329 86.273 79.1413 86.0788 79.2059 85.8999L82.1225 77.894C82.2657 77.5001 82.6543 77.2531 83.0715 77.2897L87.0714 77.647C87.5133 77.6863 87.8648 78.0358 87.9081 78.478L88.8195 87.7994C88.8453 88.0638 88.756 88.3266 88.5752 88.5207L82.8379 94.6715C82.661 94.8606 82.4156 94.9647 82.1629 94.9647Z" fill="#371A45"/>
<path d="M89.5932 82.4976C89.3108 82.4976 89.0345 82.3676 88.8548 82.1286L86.4576 78.9332C86.1515 78.5253 86.2335 77.9453 86.6406 77.6386C87.0483 77.3314 87.6267 77.4142 87.9334 77.8221L89.8617 80.3922L97.511 76.4289C97.9636 76.1949 98.5207 76.3721 98.7543 76.8256C98.989 77.2791 98.8116 77.8372 98.3584 78.0718L90.0166 82.3947C89.8819 82.4644 89.7365 82.4976 89.5932 82.4976Z" fill="#371A45"/>
<path d="M80.5577 80.9391C80.3106 80.9391 80.0658 80.8396 79.8861 80.6494L76.8987 77.4805C76.5483 77.1091 76.5652 76.5235 76.9358 76.173C77.3069 75.8224 77.891 75.8387 78.2408 76.21L80.7122 78.8308L82.3648 77.8074C82.7988 77.539 83.3677 77.6735 83.6356 78.1084C83.9034 78.5428 83.7692 79.1127 83.3356 79.3811L81.0423 80.8007C80.8924 80.8935 80.7245 80.9391 80.5577 80.9391Z" fill="#371A45"/>
<path d="M86.2018 99.3263C86.2018 100.125 85.5555 100.772 84.7581 100.772C83.9613 100.772 83.3149 100.125 83.3149 99.3263C83.3149 98.5266 83.9613 97.8794 84.7581 97.8794C85.5555 97.8794 86.2018 98.5266 86.2018 99.3263Z" fill="#371A45"/>
<path d="M86.2018 107.105C86.2018 107.903 85.5555 108.552 84.7581 108.552C83.9613 108.552 83.3149 107.903 83.3149 107.105C83.3149 106.306 83.9613 105.659 84.7581 105.659C85.5555 105.659 86.2018 106.306 86.2018 107.105Z" fill="#371A45"/>
<path d="M86.4431 115.139C86.4431 115.938 85.7968 116.585 84.9994 116.585C84.2026 116.585 83.5557 115.938 83.5557 115.139C83.5557 114.34 84.2026 113.692 84.9994 113.692C85.7968 113.692 86.4431 114.34 86.4431 115.139Z" fill="#371A45"/>
</g>
</g>
<defs>
<clipPath id="clip0">
<rect width="169" height="169" fill="white"/>
</clipPath>
<clipPath id="clip1">
<rect width="116" height="170" fill="white" transform="translate(25)"/>
</clipPath>
</defs>
</svg>
